G04 #@! TF.GenerationSoftware,KiCad,Pcbnew,(5.99.0-1468-g7e1294a4b)*
G04 #@! TF.CreationDate,2020-08-22T19:19:53+02:00*
G04 #@! TF.ProjectId,MD_Flash_8M,4d445f46-6c61-4736-985f-384d2e6b6963,rev?*
G04 #@! TF.SameCoordinates,Original*
G04 #@! TF.FileFunction,Soldermask,Top*
G04 #@! TF.FilePolarity,Negative*
%FSLAX46Y46*%
G04 Gerber Fmt 4.6, Leading zero omitted, Abs format (unit mm)*
G04 Created by KiCad (PCBNEW (5.99.0-1468-g7e1294a4b)) date 2020-08-22 19:19:53*
%MOMM*%
%LPD*%
G01*
G04 APERTURE LIST*
%ADD10O,1.750000X1.750000*%
%ADD11C,1.900000*%
%ADD12C,2.300000*%
%ADD13C,6.750000*%
G04 APERTURE END LIST*
G36*
G01*
X229800000Y-90845000D02*
X229800000Y-89595000D01*
G75*
G02*
X230000000Y-89395000I200000J0D01*
G01*
X231000000Y-89395000D01*
G75*
G02*
X231200000Y-89595000I0J-200000D01*
G01*
X231200000Y-90845000D01*
G75*
G02*
X231000000Y-91045000I-200000J0D01*
G01*
X230000000Y-91045000D01*
G75*
G02*
X229800000Y-90845000I0J200000D01*
G01*
G37*
G36*
G01*
X227800000Y-90845000D02*
X227800000Y-89595000D01*
G75*
G02*
X228000000Y-89395000I200000J0D01*
G01*
X229000000Y-89395000D01*
G75*
G02*
X229200000Y-89595000I0J-200000D01*
G01*
X229200000Y-90845000D01*
G75*
G02*
X229000000Y-91045000I-200000J0D01*
G01*
X228000000Y-91045000D01*
G75*
G02*
X227800000Y-90845000I0J200000D01*
G01*
G37*
G36*
G01*
X227800000Y-93765000D02*
X227800000Y-92515000D01*
G75*
G02*
X228000000Y-92315000I200000J0D01*
G01*
X229000000Y-92315000D01*
G75*
G02*
X229200000Y-92515000I0J-200000D01*
G01*
X229200000Y-93765000D01*
G75*
G02*
X229000000Y-93965000I-200000J0D01*
G01*
X228000000Y-93965000D01*
G75*
G02*
X227800000Y-93765000I0J200000D01*
G01*
G37*
G36*
G01*
X229800000Y-93765000D02*
X229800000Y-92515000D01*
G75*
G02*
X230000000Y-92315000I200000J0D01*
G01*
X231000000Y-92315000D01*
G75*
G02*
X231200000Y-92515000I0J-200000D01*
G01*
X231200000Y-93765000D01*
G75*
G02*
X231000000Y-93965000I-200000J0D01*
G01*
X230000000Y-93965000D01*
G75*
G02*
X229800000Y-93765000I0J200000D01*
G01*
G37*
G36*
G01*
X219870000Y-73555000D02*
X219870000Y-72305000D01*
G75*
G02*
X220070000Y-72105000I200000J0D01*
G01*
X221070000Y-72105000D01*
G75*
G02*
X221270000Y-72305000I0J-200000D01*
G01*
X221270000Y-73555000D01*
G75*
G02*
X221070000Y-73755000I-200000J0D01*
G01*
X220070000Y-73755000D01*
G75*
G02*
X219870000Y-73555000I0J200000D01*
G01*
G37*
G36*
G01*
X217870000Y-73555000D02*
X217870000Y-72305000D01*
G75*
G02*
X218070000Y-72105000I200000J0D01*
G01*
X219070000Y-72105000D01*
G75*
G02*
X219270000Y-72305000I0J-200000D01*
G01*
X219270000Y-73555000D01*
G75*
G02*
X219070000Y-73755000I-200000J0D01*
G01*
X218070000Y-73755000D01*
G75*
G02*
X217870000Y-73555000I0J200000D01*
G01*
G37*
G36*
G01*
X153545000Y-85840000D02*
X154795000Y-85840000D01*
G75*
G02*
X154995000Y-86040000I0J-200000D01*
G01*
X154995000Y-87040000D01*
G75*
G02*
X154795000Y-87240000I-200000J0D01*
G01*
X153545000Y-87240000D01*
G75*
G02*
X153345000Y-87040000I0J200000D01*
G01*
X153345000Y-86040000D01*
G75*
G02*
X153545000Y-85840000I200000J0D01*
G01*
G37*
G36*
G01*
X153545000Y-87840000D02*
X154795000Y-87840000D01*
G75*
G02*
X154995000Y-88040000I0J-200000D01*
G01*
X154995000Y-89040000D01*
G75*
G02*
X154795000Y-89240000I-200000J0D01*
G01*
X153545000Y-89240000D01*
G75*
G02*
X153345000Y-89040000I0J200000D01*
G01*
X153345000Y-88040000D01*
G75*
G02*
X153545000Y-87840000I200000J0D01*
G01*
G37*
G36*
G01*
X231750000Y-83750000D02*
X231750000Y-85350000D01*
G75*
G02*
X231550000Y-85550000I-200000J0D01*
G01*
X230550000Y-85550000D01*
G75*
G02*
X230350000Y-85350000I0J200000D01*
G01*
X230350000Y-83750000D01*
G75*
G02*
X230550000Y-83550000I200000J0D01*
G01*
X231550000Y-83550000D01*
G75*
G02*
X231750000Y-83750000I0J-200000D01*
G01*
G37*
G36*
G01*
X228750000Y-83750000D02*
X228750000Y-85350000D01*
G75*
G02*
X228550000Y-85550000I-200000J0D01*
G01*
X227550000Y-85550000D01*
G75*
G02*
X227350000Y-85350000I0J200000D01*
G01*
X227350000Y-83750000D01*
G75*
G02*
X227550000Y-83550000I200000J0D01*
G01*
X228550000Y-83550000D01*
G75*
G02*
X228750000Y-83750000I0J-200000D01*
G01*
G37*
G36*
G01*
X151860000Y-87520000D02*
X150260000Y-87520000D01*
G75*
G02*
X150060000Y-87320000I0J200000D01*
G01*
X150060000Y-86320000D01*
G75*
G02*
X150260000Y-86120000I200000J0D01*
G01*
X151860000Y-86120000D01*
G75*
G02*
X152060000Y-86320000I0J-200000D01*
G01*
X152060000Y-87320000D01*
G75*
G02*
X151860000Y-87520000I-200000J0D01*
G01*
G37*
G36*
G01*
X151860000Y-90520000D02*
X150260000Y-90520000D01*
G75*
G02*
X150060000Y-90320000I0J200000D01*
G01*
X150060000Y-89320000D01*
G75*
G02*
X150260000Y-89120000I200000J0D01*
G01*
X151860000Y-89120000D01*
G75*
G02*
X152060000Y-89320000I0J-200000D01*
G01*
X152060000Y-90320000D01*
G75*
G02*
X151860000Y-90520000I-200000J0D01*
G01*
G37*
G36*
G01*
X227900000Y-80825000D02*
X227900000Y-82325000D01*
G75*
G02*
X227700000Y-82525000I-200000J0D01*
G01*
X225700000Y-82525000D01*
G75*
G02*
X225500000Y-82325000I0J200000D01*
G01*
X225500000Y-80825000D01*
G75*
G02*
X225700000Y-80625000I200000J0D01*
G01*
X227700000Y-80625000D01*
G75*
G02*
X227900000Y-80825000I0J-200000D01*
G01*
G37*
G36*
G01*
X227900000Y-76225000D02*
X227900000Y-77725000D01*
G75*
G02*
X227700000Y-77925000I-200000J0D01*
G01*
X225700000Y-77925000D01*
G75*
G02*
X225500000Y-77725000I0J200000D01*
G01*
X225500000Y-76225000D01*
G75*
G02*
X225700000Y-76025000I200000J0D01*
G01*
X227700000Y-76025000D01*
G75*
G02*
X227900000Y-76225000I0J-200000D01*
G01*
G37*
G36*
G01*
X227900000Y-78525000D02*
X227900000Y-80025000D01*
G75*
G02*
X227700000Y-80225000I-200000J0D01*
G01*
X225700000Y-80225000D01*
G75*
G02*
X225500000Y-80025000I0J200000D01*
G01*
X225500000Y-78525000D01*
G75*
G02*
X225700000Y-78325000I200000J0D01*
G01*
X227700000Y-78325000D01*
G75*
G02*
X227900000Y-78525000I0J-200000D01*
G01*
G37*
G36*
G01*
X221600000Y-77375000D02*
X221600000Y-81175000D01*
G75*
G02*
X221400000Y-81375000I-200000J0D01*
G01*
X219400000Y-81375000D01*
G75*
G02*
X219200000Y-81175000I0J200000D01*
G01*
X219200000Y-77375000D01*
G75*
G02*
X219400000Y-77175000I200000J0D01*
G01*
X221400000Y-77175000D01*
G75*
G02*
X221600000Y-77375000I0J-200000D01*
G01*
G37*
G36*
G01*
X155850000Y-78450000D02*
X152050000Y-78450000D01*
G75*
G02*
X151850000Y-78250000I0J200000D01*
G01*
X151850000Y-76250000D01*
G75*
G02*
X152050000Y-76050000I200000J0D01*
G01*
X155850000Y-76050000D01*
G75*
G02*
X156050000Y-76250000I0J-200000D01*
G01*
X156050000Y-78250000D01*
G75*
G02*
X155850000Y-78450000I-200000J0D01*
G01*
G37*
G36*
G01*
X154700000Y-84750000D02*
X153200000Y-84750000D01*
G75*
G02*
X153000000Y-84550000I0J200000D01*
G01*
X153000000Y-82550000D01*
G75*
G02*
X153200000Y-82350000I200000J0D01*
G01*
X154700000Y-82350000D01*
G75*
G02*
X154900000Y-82550000I0J-200000D01*
G01*
X154900000Y-84550000D01*
G75*
G02*
X154700000Y-84750000I-200000J0D01*
G01*
G37*
G36*
G01*
X157000000Y-84750000D02*
X155500000Y-84750000D01*
G75*
G02*
X155300000Y-84550000I0J200000D01*
G01*
X155300000Y-82550000D01*
G75*
G02*
X155500000Y-82350000I200000J0D01*
G01*
X157000000Y-82350000D01*
G75*
G02*
X157200000Y-82550000I0J-200000D01*
G01*
X157200000Y-84550000D01*
G75*
G02*
X157000000Y-84750000I-200000J0D01*
G01*
G37*
G36*
G01*
X152400000Y-84750000D02*
X150900000Y-84750000D01*
G75*
G02*
X150700000Y-84550000I0J200000D01*
G01*
X150700000Y-82550000D01*
G75*
G02*
X150900000Y-82350000I200000J0D01*
G01*
X152400000Y-82350000D01*
G75*
G02*
X152600000Y-82550000I0J-200000D01*
G01*
X152600000Y-84550000D01*
G75*
G02*
X152400000Y-84750000I-200000J0D01*
G01*
G37*
G36*
G01*
X167875000Y-55850000D02*
X167875000Y-55100000D01*
G75*
G02*
X168075000Y-54900000I200000J0D01*
G01*
X168875000Y-54900000D01*
G75*
G02*
X169075000Y-55100000I0J-200000D01*
G01*
X169075000Y-55850000D01*
G75*
G02*
X168875000Y-56050000I-200000J0D01*
G01*
X168075000Y-56050000D01*
G75*
G02*
X167875000Y-55850000I0J200000D01*
G01*
G37*
G36*
G01*
X169375000Y-55850000D02*
X169375000Y-55100000D01*
G75*
G02*
X169575000Y-54900000I200000J0D01*
G01*
X170375000Y-54900000D01*
G75*
G02*
X170575000Y-55100000I0J-200000D01*
G01*
X170575000Y-55850000D01*
G75*
G02*
X170375000Y-56050000I-200000J0D01*
G01*
X169575000Y-56050000D01*
G75*
G02*
X169375000Y-55850000I0J200000D01*
G01*
G37*
G36*
G01*
X199250000Y-48800000D02*
X197900000Y-48800000D01*
G75*
G02*
X197700000Y-48600000I0J200000D01*
G01*
X197700000Y-47250000D01*
G75*
G02*
X197900000Y-47050000I200000J0D01*
G01*
X199250000Y-47050000D01*
G75*
G02*
X199450000Y-47250000I0J-200000D01*
G01*
X199450000Y-48600000D01*
G75*
G02*
X199250000Y-48800000I-200000J0D01*
G01*
G37*
D10*
X200575000Y-47925000D03*
X202575000Y-47925000D03*
X204575000Y-47925000D03*
G36*
G01*
X213325000Y-58350000D02*
X213325000Y-59100000D01*
G75*
G02*
X213125000Y-59300000I-200000J0D01*
G01*
X212325000Y-59300000D01*
G75*
G02*
X212125000Y-59100000I0J200000D01*
G01*
X212125000Y-58350000D01*
G75*
G02*
X212325000Y-58150000I200000J0D01*
G01*
X213125000Y-58150000D01*
G75*
G02*
X213325000Y-58350000I0J-200000D01*
G01*
G37*
G36*
G01*
X214825000Y-58350000D02*
X214825000Y-59100000D01*
G75*
G02*
X214625000Y-59300000I-200000J0D01*
G01*
X213825000Y-59300000D01*
G75*
G02*
X213625000Y-59100000I0J200000D01*
G01*
X213625000Y-58350000D01*
G75*
G02*
X213825000Y-58150000I200000J0D01*
G01*
X214625000Y-58150000D01*
G75*
G02*
X214825000Y-58350000I0J-200000D01*
G01*
G37*
G36*
G01*
X214825000Y-55625000D02*
X214825000Y-56375000D01*
G75*
G02*
X214625000Y-56575000I-200000J0D01*
G01*
X213825000Y-56575000D01*
G75*
G02*
X213625000Y-56375000I0J200000D01*
G01*
X213625000Y-55625000D01*
G75*
G02*
X213825000Y-55425000I200000J0D01*
G01*
X214625000Y-55425000D01*
G75*
G02*
X214825000Y-55625000I0J-200000D01*
G01*
G37*
G36*
G01*
X213325000Y-55625000D02*
X213325000Y-56375000D01*
G75*
G02*
X213125000Y-56575000I-200000J0D01*
G01*
X212325000Y-56575000D01*
G75*
G02*
X212125000Y-56375000I0J200000D01*
G01*
X212125000Y-55625000D01*
G75*
G02*
X212325000Y-55425000I200000J0D01*
G01*
X213125000Y-55425000D01*
G75*
G02*
X213325000Y-55625000I0J-200000D01*
G01*
G37*
G36*
G01*
X213400000Y-53025000D02*
X213400000Y-53775000D01*
G75*
G02*
X213200000Y-53975000I-200000J0D01*
G01*
X212400000Y-53975000D01*
G75*
G02*
X212200000Y-53775000I0J200000D01*
G01*
X212200000Y-53025000D01*
G75*
G02*
X212400000Y-52825000I200000J0D01*
G01*
X213200000Y-52825000D01*
G75*
G02*
X213400000Y-53025000I0J-200000D01*
G01*
G37*
G36*
G01*
X214900000Y-53025000D02*
X214900000Y-53775000D01*
G75*
G02*
X214700000Y-53975000I-200000J0D01*
G01*
X213900000Y-53975000D01*
G75*
G02*
X213700000Y-53775000I0J200000D01*
G01*
X213700000Y-53025000D01*
G75*
G02*
X213900000Y-52825000I200000J0D01*
G01*
X214700000Y-52825000D01*
G75*
G02*
X214900000Y-53025000I0J-200000D01*
G01*
G37*
G36*
G01*
X214925000Y-50675000D02*
X214925000Y-51425000D01*
G75*
G02*
X214725000Y-51625000I-200000J0D01*
G01*
X213925000Y-51625000D01*
G75*
G02*
X213725000Y-51425000I0J200000D01*
G01*
X213725000Y-50675000D01*
G75*
G02*
X213925000Y-50475000I200000J0D01*
G01*
X214725000Y-50475000D01*
G75*
G02*
X214925000Y-50675000I0J-200000D01*
G01*
G37*
G36*
G01*
X213425000Y-50675000D02*
X213425000Y-51425000D01*
G75*
G02*
X213225000Y-51625000I-200000J0D01*
G01*
X212425000Y-51625000D01*
G75*
G02*
X212225000Y-51425000I0J200000D01*
G01*
X212225000Y-50675000D01*
G75*
G02*
X212425000Y-50475000I200000J0D01*
G01*
X213225000Y-50475000D01*
G75*
G02*
X213425000Y-50675000I0J-200000D01*
G01*
G37*
G36*
G01*
X184200000Y-48750000D02*
X182850000Y-48750000D01*
G75*
G02*
X182650000Y-48550000I0J200000D01*
G01*
X182650000Y-47200000D01*
G75*
G02*
X182850000Y-47000000I200000J0D01*
G01*
X184200000Y-47000000D01*
G75*
G02*
X184400000Y-47200000I0J-200000D01*
G01*
X184400000Y-48550000D01*
G75*
G02*
X184200000Y-48750000I-200000J0D01*
G01*
G37*
X185525000Y-47875000D03*
X187525000Y-47875000D03*
X189525000Y-47875000D03*
X191525000Y-47875000D03*
X193525000Y-47875000D03*
D11*
X205850000Y-59300000D03*
G36*
G01*
X218905000Y-49945000D02*
X220805000Y-49945000D01*
G75*
G02*
X221005000Y-50145000I0J-200000D01*
G01*
X221005000Y-52045000D01*
G75*
G02*
X220805000Y-52245000I-200000J0D01*
G01*
X218905000Y-52245000D01*
G75*
G02*
X218705000Y-52045000I0J200000D01*
G01*
X218705000Y-50145000D01*
G75*
G02*
X218905000Y-49945000I200000J0D01*
G01*
G37*
D12*
X222395000Y-51095000D03*
X219855000Y-53635000D03*
X222395000Y-53635000D03*
X219855000Y-56175000D03*
X222395000Y-56175000D03*
X219855000Y-58715000D03*
X222395000Y-58715000D03*
X219855000Y-61255000D03*
X222395000Y-61255000D03*
G36*
G01*
X180103769Y-68015901D02*
X180634099Y-68546231D01*
G75*
G02*
X180634099Y-68829073I-141421J-141421D01*
G01*
X180068413Y-69394759D01*
G75*
G02*
X179785571Y-69394759I-141421J141421D01*
G01*
X179255241Y-68864429D01*
G75*
G02*
X179255241Y-68581587I141421J141421D01*
G01*
X179820927Y-68015901D01*
G75*
G02*
X180103769Y-68015901I141421J-141421D01*
G01*
G37*
G36*
G01*
X181164429Y-66955241D02*
X181694759Y-67485571D01*
G75*
G02*
X181694759Y-67768413I-141421J-141421D01*
G01*
X181129073Y-68334099D01*
G75*
G02*
X180846231Y-68334099I-141421J141421D01*
G01*
X180315901Y-67803769D01*
G75*
G02*
X180315901Y-67520927I141421J141421D01*
G01*
X180881587Y-66955241D01*
G75*
G02*
X181164429Y-66955241I141421J-141421D01*
G01*
G37*
G36*
G01*
X185789429Y-62480241D02*
X186319759Y-63010571D01*
G75*
G02*
X186319759Y-63293413I-141421J-141421D01*
G01*
X185754073Y-63859099D01*
G75*
G02*
X185471231Y-63859099I-141421J141421D01*
G01*
X184940901Y-63328769D01*
G75*
G02*
X184940901Y-63045927I141421J141421D01*
G01*
X185506587Y-62480241D01*
G75*
G02*
X185789429Y-62480241I141421J-141421D01*
G01*
G37*
G36*
G01*
X184728769Y-63540901D02*
X185259099Y-64071231D01*
G75*
G02*
X185259099Y-64354073I-141421J-141421D01*
G01*
X184693413Y-64919759D01*
G75*
G02*
X184410571Y-64919759I-141421J141421D01*
G01*
X183880241Y-64389429D01*
G75*
G02*
X183880241Y-64106587I141421J141421D01*
G01*
X184445927Y-63540901D01*
G75*
G02*
X184728769Y-63540901I141421J-141421D01*
G01*
G37*
G36*
G01*
X201669759Y-65964429D02*
X201139429Y-66494759D01*
G75*
G02*
X200856587Y-66494759I-141421J141421D01*
G01*
X200290901Y-65929073D01*
G75*
G02*
X200290901Y-65646231I141421J141421D01*
G01*
X200821231Y-65115901D01*
G75*
G02*
X201104073Y-65115901I141421J-141421D01*
G01*
X201669759Y-65681587D01*
G75*
G02*
X201669759Y-65964429I-141421J-141421D01*
G01*
G37*
G36*
G01*
X200609099Y-64903769D02*
X200078769Y-65434099D01*
G75*
G02*
X199795927Y-65434099I-141421J141421D01*
G01*
X199230241Y-64868413D01*
G75*
G02*
X199230241Y-64585571I141421J141421D01*
G01*
X199760571Y-64055241D01*
G75*
G02*
X200043413Y-64055241I141421J-141421D01*
G01*
X200609099Y-64620927D01*
G75*
G02*
X200609099Y-64903769I-141421J-141421D01*
G01*
G37*
G36*
G01*
X199434099Y-66153769D02*
X198903769Y-66684099D01*
G75*
G02*
X198620927Y-66684099I-141421J141421D01*
G01*
X198055241Y-66118413D01*
G75*
G02*
X198055241Y-65835571I141421J141421D01*
G01*
X198585571Y-65305241D01*
G75*
G02*
X198868413Y-65305241I141421J-141421D01*
G01*
X199434099Y-65870927D01*
G75*
G02*
X199434099Y-66153769I-141421J-141421D01*
G01*
G37*
G36*
G01*
X200494759Y-67214429D02*
X199964429Y-67744759D01*
G75*
G02*
X199681587Y-67744759I-141421J141421D01*
G01*
X199115901Y-67179073D01*
G75*
G02*
X199115901Y-66896231I141421J141421D01*
G01*
X199646231Y-66365901D01*
G75*
G02*
X199929073Y-66365901I141421J-141421D01*
G01*
X200494759Y-66931587D01*
G75*
G02*
X200494759Y-67214429I-141421J-141421D01*
G01*
G37*
G36*
G01*
X200153769Y-78215901D02*
X200684099Y-78746231D01*
G75*
G02*
X200684099Y-79029073I-141421J-141421D01*
G01*
X200118413Y-79594759D01*
G75*
G02*
X199835571Y-79594759I-141421J141421D01*
G01*
X199305241Y-79064429D01*
G75*
G02*
X199305241Y-78781587I141421J141421D01*
G01*
X199870927Y-78215901D01*
G75*
G02*
X200153769Y-78215901I141421J-141421D01*
G01*
G37*
G36*
G01*
X201214429Y-77155241D02*
X201744759Y-77685571D01*
G75*
G02*
X201744759Y-77968413I-141421J-141421D01*
G01*
X201179073Y-78534099D01*
G75*
G02*
X200896231Y-78534099I-141421J141421D01*
G01*
X200365901Y-78003769D01*
G75*
G02*
X200365901Y-77720927I141421J141421D01*
G01*
X200931587Y-77155241D01*
G75*
G02*
X201214429Y-77155241I141421J-141421D01*
G01*
G37*
G36*
G01*
X196389429Y-81855241D02*
X196919759Y-82385571D01*
G75*
G02*
X196919759Y-82668413I-141421J-141421D01*
G01*
X196354073Y-83234099D01*
G75*
G02*
X196071231Y-83234099I-141421J141421D01*
G01*
X195540901Y-82703769D01*
G75*
G02*
X195540901Y-82420927I141421J141421D01*
G01*
X196106587Y-81855241D01*
G75*
G02*
X196389429Y-81855241I141421J-141421D01*
G01*
G37*
G36*
G01*
X195328769Y-82915901D02*
X195859099Y-83446231D01*
G75*
G02*
X195859099Y-83729073I-141421J-141421D01*
G01*
X195293413Y-84294759D01*
G75*
G02*
X195010571Y-84294759I-141421J141421D01*
G01*
X194480241Y-83764429D01*
G75*
G02*
X194480241Y-83481587I141421J141421D01*
G01*
X195045927Y-82915901D01*
G75*
G02*
X195328769Y-82915901I141421J-141421D01*
G01*
G37*
G36*
G01*
X182894759Y-82839429D02*
X182364429Y-83369759D01*
G75*
G02*
X182081587Y-83369759I-141421J141421D01*
G01*
X181515901Y-82804073D01*
G75*
G02*
X181515901Y-82521231I141421J141421D01*
G01*
X182046231Y-81990901D01*
G75*
G02*
X182329073Y-81990901I141421J-141421D01*
G01*
X182894759Y-82556587D01*
G75*
G02*
X182894759Y-82839429I-141421J-141421D01*
G01*
G37*
G36*
G01*
X181834099Y-81778769D02*
X181303769Y-82309099D01*
G75*
G02*
X181020927Y-82309099I-141421J141421D01*
G01*
X180455241Y-81743413D01*
G75*
G02*
X180455241Y-81460571I141421J141421D01*
G01*
X180985571Y-80930241D01*
G75*
G02*
X181268413Y-80930241I141421J-141421D01*
G01*
X181834099Y-81495927D01*
G75*
G02*
X181834099Y-81778769I-141421J-141421D01*
G01*
G37*
G36*
G01*
X183009099Y-80528769D02*
X182478769Y-81059099D01*
G75*
G02*
X182195927Y-81059099I-141421J141421D01*
G01*
X181630241Y-80493413D01*
G75*
G02*
X181630241Y-80210571I141421J141421D01*
G01*
X182160571Y-79680241D01*
G75*
G02*
X182443413Y-79680241I141421J-141421D01*
G01*
X183009099Y-80245927D01*
G75*
G02*
X183009099Y-80528769I-141421J-141421D01*
G01*
G37*
G36*
G01*
X184069759Y-81589429D02*
X183539429Y-82119759D01*
G75*
G02*
X183256587Y-82119759I-141421J141421D01*
G01*
X182690901Y-81554073D01*
G75*
G02*
X182690901Y-81271231I141421J141421D01*
G01*
X183221231Y-80740901D01*
G75*
G02*
X183504073Y-80740901I141421J-141421D01*
G01*
X184069759Y-81306587D01*
G75*
G02*
X184069759Y-81589429I-141421J-141421D01*
G01*
G37*
G36*
G01*
X208500000Y-90750000D02*
X207750000Y-90750000D01*
G75*
G02*
X207550000Y-90550000I0J200000D01*
G01*
X207550000Y-89750000D01*
G75*
G02*
X207750000Y-89550000I200000J0D01*
G01*
X208500000Y-89550000D01*
G75*
G02*
X208700000Y-89750000I0J-200000D01*
G01*
X208700000Y-90550000D01*
G75*
G02*
X208500000Y-90750000I-200000J0D01*
G01*
G37*
G36*
G01*
X208500000Y-89250000D02*
X207750000Y-89250000D01*
G75*
G02*
X207550000Y-89050000I0J200000D01*
G01*
X207550000Y-88250000D01*
G75*
G02*
X207750000Y-88050000I200000J0D01*
G01*
X208500000Y-88050000D01*
G75*
G02*
X208700000Y-88250000I0J-200000D01*
G01*
X208700000Y-89050000D01*
G75*
G02*
X208500000Y-89250000I-200000J0D01*
G01*
G37*
G36*
G01*
X197400000Y-89250000D02*
X196650000Y-89250000D01*
G75*
G02*
X196450000Y-89050000I0J200000D01*
G01*
X196450000Y-88250000D01*
G75*
G02*
X196650000Y-88050000I200000J0D01*
G01*
X197400000Y-88050000D01*
G75*
G02*
X197600000Y-88250000I0J-200000D01*
G01*
X197600000Y-89050000D01*
G75*
G02*
X197400000Y-89250000I-200000J0D01*
G01*
G37*
G36*
G01*
X197400000Y-90750000D02*
X196650000Y-90750000D01*
G75*
G02*
X196450000Y-90550000I0J200000D01*
G01*
X196450000Y-89750000D01*
G75*
G02*
X196650000Y-89550000I200000J0D01*
G01*
X197400000Y-89550000D01*
G75*
G02*
X197600000Y-89750000I0J-200000D01*
G01*
X197600000Y-90550000D01*
G75*
G02*
X197400000Y-90750000I-200000J0D01*
G01*
G37*
G36*
G01*
X218525000Y-89250000D02*
X217775000Y-89250000D01*
G75*
G02*
X217575000Y-89050000I0J200000D01*
G01*
X217575000Y-88250000D01*
G75*
G02*
X217775000Y-88050000I200000J0D01*
G01*
X218525000Y-88050000D01*
G75*
G02*
X218725000Y-88250000I0J-200000D01*
G01*
X218725000Y-89050000D01*
G75*
G02*
X218525000Y-89250000I-200000J0D01*
G01*
G37*
G36*
G01*
X218525000Y-90750000D02*
X217775000Y-90750000D01*
G75*
G02*
X217575000Y-90550000I0J200000D01*
G01*
X217575000Y-89750000D01*
G75*
G02*
X217775000Y-89550000I200000J0D01*
G01*
X218525000Y-89550000D01*
G75*
G02*
X218725000Y-89750000I0J-200000D01*
G01*
X218725000Y-90550000D01*
G75*
G02*
X218525000Y-90750000I-200000J0D01*
G01*
G37*
G36*
G01*
X199275000Y-87975000D02*
X198825000Y-87975000D01*
G75*
G02*
X198625000Y-87775000I0J200000D01*
G01*
X198625000Y-86325000D01*
G75*
G02*
X198825000Y-86125000I200000J0D01*
G01*
X199275000Y-86125000D01*
G75*
G02*
X199475000Y-86325000I0J-200000D01*
G01*
X199475000Y-87775000D01*
G75*
G02*
X199275000Y-87975000I-200000J0D01*
G01*
G37*
G36*
G01*
X199925000Y-87975000D02*
X199475000Y-87975000D01*
G75*
G02*
X199275000Y-87775000I0J200000D01*
G01*
X199275000Y-86325000D01*
G75*
G02*
X199475000Y-86125000I200000J0D01*
G01*
X199925000Y-86125000D01*
G75*
G02*
X200125000Y-86325000I0J-200000D01*
G01*
X200125000Y-87775000D01*
G75*
G02*
X199925000Y-87975000I-200000J0D01*
G01*
G37*
G36*
G01*
X200575000Y-87975000D02*
X200125000Y-87975000D01*
G75*
G02*
X199925000Y-87775000I0J200000D01*
G01*
X199925000Y-86325000D01*
G75*
G02*
X200125000Y-86125000I200000J0D01*
G01*
X200575000Y-86125000D01*
G75*
G02*
X200775000Y-86325000I0J-200000D01*
G01*
X200775000Y-87775000D01*
G75*
G02*
X200575000Y-87975000I-200000J0D01*
G01*
G37*
G36*
G01*
X201225000Y-87975000D02*
X200775000Y-87975000D01*
G75*
G02*
X200575000Y-87775000I0J200000D01*
G01*
X200575000Y-86325000D01*
G75*
G02*
X200775000Y-86125000I200000J0D01*
G01*
X201225000Y-86125000D01*
G75*
G02*
X201425000Y-86325000I0J-200000D01*
G01*
X201425000Y-87775000D01*
G75*
G02*
X201225000Y-87975000I-200000J0D01*
G01*
G37*
G36*
G01*
X201875000Y-87975000D02*
X201425000Y-87975000D01*
G75*
G02*
X201225000Y-87775000I0J200000D01*
G01*
X201225000Y-86325000D01*
G75*
G02*
X201425000Y-86125000I200000J0D01*
G01*
X201875000Y-86125000D01*
G75*
G02*
X202075000Y-86325000I0J-200000D01*
G01*
X202075000Y-87775000D01*
G75*
G02*
X201875000Y-87975000I-200000J0D01*
G01*
G37*
G36*
G01*
X202525000Y-87975000D02*
X202075000Y-87975000D01*
G75*
G02*
X201875000Y-87775000I0J200000D01*
G01*
X201875000Y-86325000D01*
G75*
G02*
X202075000Y-86125000I200000J0D01*
G01*
X202525000Y-86125000D01*
G75*
G02*
X202725000Y-86325000I0J-200000D01*
G01*
X202725000Y-87775000D01*
G75*
G02*
X202525000Y-87975000I-200000J0D01*
G01*
G37*
G36*
G01*
X203175000Y-87975000D02*
X202725000Y-87975000D01*
G75*
G02*
X202525000Y-87775000I0J200000D01*
G01*
X202525000Y-86325000D01*
G75*
G02*
X202725000Y-86125000I200000J0D01*
G01*
X203175000Y-86125000D01*
G75*
G02*
X203375000Y-86325000I0J-200000D01*
G01*
X203375000Y-87775000D01*
G75*
G02*
X203175000Y-87975000I-200000J0D01*
G01*
G37*
G36*
G01*
X203825000Y-87975000D02*
X203375000Y-87975000D01*
G75*
G02*
X203175000Y-87775000I0J200000D01*
G01*
X203175000Y-86325000D01*
G75*
G02*
X203375000Y-86125000I200000J0D01*
G01*
X203825000Y-86125000D01*
G75*
G02*
X204025000Y-86325000I0J-200000D01*
G01*
X204025000Y-87775000D01*
G75*
G02*
X203825000Y-87975000I-200000J0D01*
G01*
G37*
G36*
G01*
X204475000Y-87975000D02*
X204025000Y-87975000D01*
G75*
G02*
X203825000Y-87775000I0J200000D01*
G01*
X203825000Y-86325000D01*
G75*
G02*
X204025000Y-86125000I200000J0D01*
G01*
X204475000Y-86125000D01*
G75*
G02*
X204675000Y-86325000I0J-200000D01*
G01*
X204675000Y-87775000D01*
G75*
G02*
X204475000Y-87975000I-200000J0D01*
G01*
G37*
G36*
G01*
X205125000Y-87975000D02*
X204675000Y-87975000D01*
G75*
G02*
X204475000Y-87775000I0J200000D01*
G01*
X204475000Y-86325000D01*
G75*
G02*
X204675000Y-86125000I200000J0D01*
G01*
X205125000Y-86125000D01*
G75*
G02*
X205325000Y-86325000I0J-200000D01*
G01*
X205325000Y-87775000D01*
G75*
G02*
X205125000Y-87975000I-200000J0D01*
G01*
G37*
G36*
G01*
X205125000Y-93875000D02*
X204675000Y-93875000D01*
G75*
G02*
X204475000Y-93675000I0J200000D01*
G01*
X204475000Y-92225000D01*
G75*
G02*
X204675000Y-92025000I200000J0D01*
G01*
X205125000Y-92025000D01*
G75*
G02*
X205325000Y-92225000I0J-200000D01*
G01*
X205325000Y-93675000D01*
G75*
G02*
X205125000Y-93875000I-200000J0D01*
G01*
G37*
G36*
G01*
X204475000Y-93875000D02*
X204025000Y-93875000D01*
G75*
G02*
X203825000Y-93675000I0J200000D01*
G01*
X203825000Y-92225000D01*
G75*
G02*
X204025000Y-92025000I200000J0D01*
G01*
X204475000Y-92025000D01*
G75*
G02*
X204675000Y-92225000I0J-200000D01*
G01*
X204675000Y-93675000D01*
G75*
G02*
X204475000Y-93875000I-200000J0D01*
G01*
G37*
G36*
G01*
X203825000Y-93875000D02*
X203375000Y-93875000D01*
G75*
G02*
X203175000Y-93675000I0J200000D01*
G01*
X203175000Y-92225000D01*
G75*
G02*
X203375000Y-92025000I200000J0D01*
G01*
X203825000Y-92025000D01*
G75*
G02*
X204025000Y-92225000I0J-200000D01*
G01*
X204025000Y-93675000D01*
G75*
G02*
X203825000Y-93875000I-200000J0D01*
G01*
G37*
G36*
G01*
X203175000Y-93875000D02*
X202725000Y-93875000D01*
G75*
G02*
X202525000Y-93675000I0J200000D01*
G01*
X202525000Y-92225000D01*
G75*
G02*
X202725000Y-92025000I200000J0D01*
G01*
X203175000Y-92025000D01*
G75*
G02*
X203375000Y-92225000I0J-200000D01*
G01*
X203375000Y-93675000D01*
G75*
G02*
X203175000Y-93875000I-200000J0D01*
G01*
G37*
G36*
G01*
X202525000Y-93875000D02*
X202075000Y-93875000D01*
G75*
G02*
X201875000Y-93675000I0J200000D01*
G01*
X201875000Y-92225000D01*
G75*
G02*
X202075000Y-92025000I200000J0D01*
G01*
X202525000Y-92025000D01*
G75*
G02*
X202725000Y-92225000I0J-200000D01*
G01*
X202725000Y-93675000D01*
G75*
G02*
X202525000Y-93875000I-200000J0D01*
G01*
G37*
G36*
G01*
X201875000Y-93875000D02*
X201425000Y-93875000D01*
G75*
G02*
X201225000Y-93675000I0J200000D01*
G01*
X201225000Y-92225000D01*
G75*
G02*
X201425000Y-92025000I200000J0D01*
G01*
X201875000Y-92025000D01*
G75*
G02*
X202075000Y-92225000I0J-200000D01*
G01*
X202075000Y-93675000D01*
G75*
G02*
X201875000Y-93875000I-200000J0D01*
G01*
G37*
G36*
G01*
X201225000Y-93875000D02*
X200775000Y-93875000D01*
G75*
G02*
X200575000Y-93675000I0J200000D01*
G01*
X200575000Y-92225000D01*
G75*
G02*
X200775000Y-92025000I200000J0D01*
G01*
X201225000Y-92025000D01*
G75*
G02*
X201425000Y-92225000I0J-200000D01*
G01*
X201425000Y-93675000D01*
G75*
G02*
X201225000Y-93875000I-200000J0D01*
G01*
G37*
G36*
G01*
X200575000Y-93875000D02*
X200125000Y-93875000D01*
G75*
G02*
X199925000Y-93675000I0J200000D01*
G01*
X199925000Y-92225000D01*
G75*
G02*
X200125000Y-92025000I200000J0D01*
G01*
X200575000Y-92025000D01*
G75*
G02*
X200775000Y-92225000I0J-200000D01*
G01*
X200775000Y-93675000D01*
G75*
G02*
X200575000Y-93875000I-200000J0D01*
G01*
G37*
G36*
G01*
X199925000Y-93875000D02*
X199475000Y-93875000D01*
G75*
G02*
X199275000Y-93675000I0J200000D01*
G01*
X199275000Y-92225000D01*
G75*
G02*
X199475000Y-92025000I200000J0D01*
G01*
X199925000Y-92025000D01*
G75*
G02*
X200125000Y-92225000I0J-200000D01*
G01*
X200125000Y-93675000D01*
G75*
G02*
X199925000Y-93875000I-200000J0D01*
G01*
G37*
G36*
G01*
X199275000Y-93875000D02*
X198825000Y-93875000D01*
G75*
G02*
X198625000Y-93675000I0J200000D01*
G01*
X198625000Y-92225000D01*
G75*
G02*
X198825000Y-92025000I200000J0D01*
G01*
X199275000Y-92025000D01*
G75*
G02*
X199475000Y-92225000I0J-200000D01*
G01*
X199475000Y-93675000D01*
G75*
G02*
X199275000Y-93875000I-200000J0D01*
G01*
G37*
G36*
G01*
X209975000Y-87975000D02*
X209525000Y-87975000D01*
G75*
G02*
X209325000Y-87775000I0J200000D01*
G01*
X209325000Y-86325000D01*
G75*
G02*
X209525000Y-86125000I200000J0D01*
G01*
X209975000Y-86125000D01*
G75*
G02*
X210175000Y-86325000I0J-200000D01*
G01*
X210175000Y-87775000D01*
G75*
G02*
X209975000Y-87975000I-200000J0D01*
G01*
G37*
G36*
G01*
X210625000Y-87975000D02*
X210175000Y-87975000D01*
G75*
G02*
X209975000Y-87775000I0J200000D01*
G01*
X209975000Y-86325000D01*
G75*
G02*
X210175000Y-86125000I200000J0D01*
G01*
X210625000Y-86125000D01*
G75*
G02*
X210825000Y-86325000I0J-200000D01*
G01*
X210825000Y-87775000D01*
G75*
G02*
X210625000Y-87975000I-200000J0D01*
G01*
G37*
G36*
G01*
X211275000Y-87975000D02*
X210825000Y-87975000D01*
G75*
G02*
X210625000Y-87775000I0J200000D01*
G01*
X210625000Y-86325000D01*
G75*
G02*
X210825000Y-86125000I200000J0D01*
G01*
X211275000Y-86125000D01*
G75*
G02*
X211475000Y-86325000I0J-200000D01*
G01*
X211475000Y-87775000D01*
G75*
G02*
X211275000Y-87975000I-200000J0D01*
G01*
G37*
G36*
G01*
X211925000Y-87975000D02*
X211475000Y-87975000D01*
G75*
G02*
X211275000Y-87775000I0J200000D01*
G01*
X211275000Y-86325000D01*
G75*
G02*
X211475000Y-86125000I200000J0D01*
G01*
X211925000Y-86125000D01*
G75*
G02*
X212125000Y-86325000I0J-200000D01*
G01*
X212125000Y-87775000D01*
G75*
G02*
X211925000Y-87975000I-200000J0D01*
G01*
G37*
G36*
G01*
X212575000Y-87975000D02*
X212125000Y-87975000D01*
G75*
G02*
X211925000Y-87775000I0J200000D01*
G01*
X211925000Y-86325000D01*
G75*
G02*
X212125000Y-86125000I200000J0D01*
G01*
X212575000Y-86125000D01*
G75*
G02*
X212775000Y-86325000I0J-200000D01*
G01*
X212775000Y-87775000D01*
G75*
G02*
X212575000Y-87975000I-200000J0D01*
G01*
G37*
G36*
G01*
X213225000Y-87975000D02*
X212775000Y-87975000D01*
G75*
G02*
X212575000Y-87775000I0J200000D01*
G01*
X212575000Y-86325000D01*
G75*
G02*
X212775000Y-86125000I200000J0D01*
G01*
X213225000Y-86125000D01*
G75*
G02*
X213425000Y-86325000I0J-200000D01*
G01*
X213425000Y-87775000D01*
G75*
G02*
X213225000Y-87975000I-200000J0D01*
G01*
G37*
G36*
G01*
X213875000Y-87975000D02*
X213425000Y-87975000D01*
G75*
G02*
X213225000Y-87775000I0J200000D01*
G01*
X213225000Y-86325000D01*
G75*
G02*
X213425000Y-86125000I200000J0D01*
G01*
X213875000Y-86125000D01*
G75*
G02*
X214075000Y-86325000I0J-200000D01*
G01*
X214075000Y-87775000D01*
G75*
G02*
X213875000Y-87975000I-200000J0D01*
G01*
G37*
G36*
G01*
X214525000Y-87975000D02*
X214075000Y-87975000D01*
G75*
G02*
X213875000Y-87775000I0J200000D01*
G01*
X213875000Y-86325000D01*
G75*
G02*
X214075000Y-86125000I200000J0D01*
G01*
X214525000Y-86125000D01*
G75*
G02*
X214725000Y-86325000I0J-200000D01*
G01*
X214725000Y-87775000D01*
G75*
G02*
X214525000Y-87975000I-200000J0D01*
G01*
G37*
G36*
G01*
X215175000Y-87975000D02*
X214725000Y-87975000D01*
G75*
G02*
X214525000Y-87775000I0J200000D01*
G01*
X214525000Y-86325000D01*
G75*
G02*
X214725000Y-86125000I200000J0D01*
G01*
X215175000Y-86125000D01*
G75*
G02*
X215375000Y-86325000I0J-200000D01*
G01*
X215375000Y-87775000D01*
G75*
G02*
X215175000Y-87975000I-200000J0D01*
G01*
G37*
G36*
G01*
X215825000Y-87975000D02*
X215375000Y-87975000D01*
G75*
G02*
X215175000Y-87775000I0J200000D01*
G01*
X215175000Y-86325000D01*
G75*
G02*
X215375000Y-86125000I200000J0D01*
G01*
X215825000Y-86125000D01*
G75*
G02*
X216025000Y-86325000I0J-200000D01*
G01*
X216025000Y-87775000D01*
G75*
G02*
X215825000Y-87975000I-200000J0D01*
G01*
G37*
G36*
G01*
X215825000Y-93875000D02*
X215375000Y-93875000D01*
G75*
G02*
X215175000Y-93675000I0J200000D01*
G01*
X215175000Y-92225000D01*
G75*
G02*
X215375000Y-92025000I200000J0D01*
G01*
X215825000Y-92025000D01*
G75*
G02*
X216025000Y-92225000I0J-200000D01*
G01*
X216025000Y-93675000D01*
G75*
G02*
X215825000Y-93875000I-200000J0D01*
G01*
G37*
G36*
G01*
X215175000Y-93875000D02*
X214725000Y-93875000D01*
G75*
G02*
X214525000Y-93675000I0J200000D01*
G01*
X214525000Y-92225000D01*
G75*
G02*
X214725000Y-92025000I200000J0D01*
G01*
X215175000Y-92025000D01*
G75*
G02*
X215375000Y-92225000I0J-200000D01*
G01*
X215375000Y-93675000D01*
G75*
G02*
X215175000Y-93875000I-200000J0D01*
G01*
G37*
G36*
G01*
X214525000Y-93875000D02*
X214075000Y-93875000D01*
G75*
G02*
X213875000Y-93675000I0J200000D01*
G01*
X213875000Y-92225000D01*
G75*
G02*
X214075000Y-92025000I200000J0D01*
G01*
X214525000Y-92025000D01*
G75*
G02*
X214725000Y-92225000I0J-200000D01*
G01*
X214725000Y-93675000D01*
G75*
G02*
X214525000Y-93875000I-200000J0D01*
G01*
G37*
G36*
G01*
X213875000Y-93875000D02*
X213425000Y-93875000D01*
G75*
G02*
X213225000Y-93675000I0J200000D01*
G01*
X213225000Y-92225000D01*
G75*
G02*
X213425000Y-92025000I200000J0D01*
G01*
X213875000Y-92025000D01*
G75*
G02*
X214075000Y-92225000I0J-200000D01*
G01*
X214075000Y-93675000D01*
G75*
G02*
X213875000Y-93875000I-200000J0D01*
G01*
G37*
G36*
G01*
X213225000Y-93875000D02*
X212775000Y-93875000D01*
G75*
G02*
X212575000Y-93675000I0J200000D01*
G01*
X212575000Y-92225000D01*
G75*
G02*
X212775000Y-92025000I200000J0D01*
G01*
X213225000Y-92025000D01*
G75*
G02*
X213425000Y-92225000I0J-200000D01*
G01*
X213425000Y-93675000D01*
G75*
G02*
X213225000Y-93875000I-200000J0D01*
G01*
G37*
G36*
G01*
X212575000Y-93875000D02*
X212125000Y-93875000D01*
G75*
G02*
X211925000Y-93675000I0J200000D01*
G01*
X211925000Y-92225000D01*
G75*
G02*
X212125000Y-92025000I200000J0D01*
G01*
X212575000Y-92025000D01*
G75*
G02*
X212775000Y-92225000I0J-200000D01*
G01*
X212775000Y-93675000D01*
G75*
G02*
X212575000Y-93875000I-200000J0D01*
G01*
G37*
G36*
G01*
X211925000Y-93875000D02*
X211475000Y-93875000D01*
G75*
G02*
X211275000Y-93675000I0J200000D01*
G01*
X211275000Y-92225000D01*
G75*
G02*
X211475000Y-92025000I200000J0D01*
G01*
X211925000Y-92025000D01*
G75*
G02*
X212125000Y-92225000I0J-200000D01*
G01*
X212125000Y-93675000D01*
G75*
G02*
X211925000Y-93875000I-200000J0D01*
G01*
G37*
G36*
G01*
X211275000Y-93875000D02*
X210825000Y-93875000D01*
G75*
G02*
X210625000Y-93675000I0J200000D01*
G01*
X210625000Y-92225000D01*
G75*
G02*
X210825000Y-92025000I200000J0D01*
G01*
X211275000Y-92025000D01*
G75*
G02*
X211475000Y-92225000I0J-200000D01*
G01*
X211475000Y-93675000D01*
G75*
G02*
X211275000Y-93875000I-200000J0D01*
G01*
G37*
G36*
G01*
X210625000Y-93875000D02*
X210175000Y-93875000D01*
G75*
G02*
X209975000Y-93675000I0J200000D01*
G01*
X209975000Y-92225000D01*
G75*
G02*
X210175000Y-92025000I200000J0D01*
G01*
X210625000Y-92025000D01*
G75*
G02*
X210825000Y-92225000I0J-200000D01*
G01*
X210825000Y-93675000D01*
G75*
G02*
X210625000Y-93875000I-200000J0D01*
G01*
G37*
G36*
G01*
X209975000Y-93875000D02*
X209525000Y-93875000D01*
G75*
G02*
X209325000Y-93675000I0J200000D01*
G01*
X209325000Y-92225000D01*
G75*
G02*
X209525000Y-92025000I200000J0D01*
G01*
X209975000Y-92025000D01*
G75*
G02*
X210175000Y-92225000I0J-200000D01*
G01*
X210175000Y-93675000D01*
G75*
G02*
X209975000Y-93875000I-200000J0D01*
G01*
G37*
G36*
G01*
X220250000Y-87975000D02*
X219800000Y-87975000D01*
G75*
G02*
X219600000Y-87775000I0J200000D01*
G01*
X219600000Y-86325000D01*
G75*
G02*
X219800000Y-86125000I200000J0D01*
G01*
X220250000Y-86125000D01*
G75*
G02*
X220450000Y-86325000I0J-200000D01*
G01*
X220450000Y-87775000D01*
G75*
G02*
X220250000Y-87975000I-200000J0D01*
G01*
G37*
G36*
G01*
X220900000Y-87975000D02*
X220450000Y-87975000D01*
G75*
G02*
X220250000Y-87775000I0J200000D01*
G01*
X220250000Y-86325000D01*
G75*
G02*
X220450000Y-86125000I200000J0D01*
G01*
X220900000Y-86125000D01*
G75*
G02*
X221100000Y-86325000I0J-200000D01*
G01*
X221100000Y-87775000D01*
G75*
G02*
X220900000Y-87975000I-200000J0D01*
G01*
G37*
G36*
G01*
X221550000Y-87975000D02*
X221100000Y-87975000D01*
G75*
G02*
X220900000Y-87775000I0J200000D01*
G01*
X220900000Y-86325000D01*
G75*
G02*
X221100000Y-86125000I200000J0D01*
G01*
X221550000Y-86125000D01*
G75*
G02*
X221750000Y-86325000I0J-200000D01*
G01*
X221750000Y-87775000D01*
G75*
G02*
X221550000Y-87975000I-200000J0D01*
G01*
G37*
G36*
G01*
X222200000Y-87975000D02*
X221750000Y-87975000D01*
G75*
G02*
X221550000Y-87775000I0J200000D01*
G01*
X221550000Y-86325000D01*
G75*
G02*
X221750000Y-86125000I200000J0D01*
G01*
X222200000Y-86125000D01*
G75*
G02*
X222400000Y-86325000I0J-200000D01*
G01*
X222400000Y-87775000D01*
G75*
G02*
X222200000Y-87975000I-200000J0D01*
G01*
G37*
G36*
G01*
X222850000Y-87975000D02*
X222400000Y-87975000D01*
G75*
G02*
X222200000Y-87775000I0J200000D01*
G01*
X222200000Y-86325000D01*
G75*
G02*
X222400000Y-86125000I200000J0D01*
G01*
X222850000Y-86125000D01*
G75*
G02*
X223050000Y-86325000I0J-200000D01*
G01*
X223050000Y-87775000D01*
G75*
G02*
X222850000Y-87975000I-200000J0D01*
G01*
G37*
G36*
G01*
X223500000Y-87975000D02*
X223050000Y-87975000D01*
G75*
G02*
X222850000Y-87775000I0J200000D01*
G01*
X222850000Y-86325000D01*
G75*
G02*
X223050000Y-86125000I200000J0D01*
G01*
X223500000Y-86125000D01*
G75*
G02*
X223700000Y-86325000I0J-200000D01*
G01*
X223700000Y-87775000D01*
G75*
G02*
X223500000Y-87975000I-200000J0D01*
G01*
G37*
G36*
G01*
X224150000Y-87975000D02*
X223700000Y-87975000D01*
G75*
G02*
X223500000Y-87775000I0J200000D01*
G01*
X223500000Y-86325000D01*
G75*
G02*
X223700000Y-86125000I200000J0D01*
G01*
X224150000Y-86125000D01*
G75*
G02*
X224350000Y-86325000I0J-200000D01*
G01*
X224350000Y-87775000D01*
G75*
G02*
X224150000Y-87975000I-200000J0D01*
G01*
G37*
G36*
G01*
X224800000Y-87975000D02*
X224350000Y-87975000D01*
G75*
G02*
X224150000Y-87775000I0J200000D01*
G01*
X224150000Y-86325000D01*
G75*
G02*
X224350000Y-86125000I200000J0D01*
G01*
X224800000Y-86125000D01*
G75*
G02*
X225000000Y-86325000I0J-200000D01*
G01*
X225000000Y-87775000D01*
G75*
G02*
X224800000Y-87975000I-200000J0D01*
G01*
G37*
G36*
G01*
X225450000Y-87975000D02*
X225000000Y-87975000D01*
G75*
G02*
X224800000Y-87775000I0J200000D01*
G01*
X224800000Y-86325000D01*
G75*
G02*
X225000000Y-86125000I200000J0D01*
G01*
X225450000Y-86125000D01*
G75*
G02*
X225650000Y-86325000I0J-200000D01*
G01*
X225650000Y-87775000D01*
G75*
G02*
X225450000Y-87975000I-200000J0D01*
G01*
G37*
G36*
G01*
X226100000Y-87975000D02*
X225650000Y-87975000D01*
G75*
G02*
X225450000Y-87775000I0J200000D01*
G01*
X225450000Y-86325000D01*
G75*
G02*
X225650000Y-86125000I200000J0D01*
G01*
X226100000Y-86125000D01*
G75*
G02*
X226300000Y-86325000I0J-200000D01*
G01*
X226300000Y-87775000D01*
G75*
G02*
X226100000Y-87975000I-200000J0D01*
G01*
G37*
G36*
G01*
X226100000Y-93875000D02*
X225650000Y-93875000D01*
G75*
G02*
X225450000Y-93675000I0J200000D01*
G01*
X225450000Y-92225000D01*
G75*
G02*
X225650000Y-92025000I200000J0D01*
G01*
X226100000Y-92025000D01*
G75*
G02*
X226300000Y-92225000I0J-200000D01*
G01*
X226300000Y-93675000D01*
G75*
G02*
X226100000Y-93875000I-200000J0D01*
G01*
G37*
G36*
G01*
X225450000Y-93875000D02*
X225000000Y-93875000D01*
G75*
G02*
X224800000Y-93675000I0J200000D01*
G01*
X224800000Y-92225000D01*
G75*
G02*
X225000000Y-92025000I200000J0D01*
G01*
X225450000Y-92025000D01*
G75*
G02*
X225650000Y-92225000I0J-200000D01*
G01*
X225650000Y-93675000D01*
G75*
G02*
X225450000Y-93875000I-200000J0D01*
G01*
G37*
G36*
G01*
X224800000Y-93875000D02*
X224350000Y-93875000D01*
G75*
G02*
X224150000Y-93675000I0J200000D01*
G01*
X224150000Y-92225000D01*
G75*
G02*
X224350000Y-92025000I200000J0D01*
G01*
X224800000Y-92025000D01*
G75*
G02*
X225000000Y-92225000I0J-200000D01*
G01*
X225000000Y-93675000D01*
G75*
G02*
X224800000Y-93875000I-200000J0D01*
G01*
G37*
G36*
G01*
X224150000Y-93875000D02*
X223700000Y-93875000D01*
G75*
G02*
X223500000Y-93675000I0J200000D01*
G01*
X223500000Y-92225000D01*
G75*
G02*
X223700000Y-92025000I200000J0D01*
G01*
X224150000Y-92025000D01*
G75*
G02*
X224350000Y-92225000I0J-200000D01*
G01*
X224350000Y-93675000D01*
G75*
G02*
X224150000Y-93875000I-200000J0D01*
G01*
G37*
G36*
G01*
X223500000Y-93875000D02*
X223050000Y-93875000D01*
G75*
G02*
X222850000Y-93675000I0J200000D01*
G01*
X222850000Y-92225000D01*
G75*
G02*
X223050000Y-92025000I200000J0D01*
G01*
X223500000Y-92025000D01*
G75*
G02*
X223700000Y-92225000I0J-200000D01*
G01*
X223700000Y-93675000D01*
G75*
G02*
X223500000Y-93875000I-200000J0D01*
G01*
G37*
G36*
G01*
X222850000Y-93875000D02*
X222400000Y-93875000D01*
G75*
G02*
X222200000Y-93675000I0J200000D01*
G01*
X222200000Y-92225000D01*
G75*
G02*
X222400000Y-92025000I200000J0D01*
G01*
X222850000Y-92025000D01*
G75*
G02*
X223050000Y-92225000I0J-200000D01*
G01*
X223050000Y-93675000D01*
G75*
G02*
X222850000Y-93875000I-200000J0D01*
G01*
G37*
G36*
G01*
X222200000Y-93875000D02*
X221750000Y-93875000D01*
G75*
G02*
X221550000Y-93675000I0J200000D01*
G01*
X221550000Y-92225000D01*
G75*
G02*
X221750000Y-92025000I200000J0D01*
G01*
X222200000Y-92025000D01*
G75*
G02*
X222400000Y-92225000I0J-200000D01*
G01*
X222400000Y-93675000D01*
G75*
G02*
X222200000Y-93875000I-200000J0D01*
G01*
G37*
G36*
G01*
X221550000Y-93875000D02*
X221100000Y-93875000D01*
G75*
G02*
X220900000Y-93675000I0J200000D01*
G01*
X220900000Y-92225000D01*
G75*
G02*
X221100000Y-92025000I200000J0D01*
G01*
X221550000Y-92025000D01*
G75*
G02*
X221750000Y-92225000I0J-200000D01*
G01*
X221750000Y-93675000D01*
G75*
G02*
X221550000Y-93875000I-200000J0D01*
G01*
G37*
G36*
G01*
X220900000Y-93875000D02*
X220450000Y-93875000D01*
G75*
G02*
X220250000Y-93675000I0J200000D01*
G01*
X220250000Y-92225000D01*
G75*
G02*
X220450000Y-92025000I200000J0D01*
G01*
X220900000Y-92025000D01*
G75*
G02*
X221100000Y-92225000I0J-200000D01*
G01*
X221100000Y-93675000D01*
G75*
G02*
X220900000Y-93875000I-200000J0D01*
G01*
G37*
G36*
G01*
X220250000Y-93875000D02*
X219800000Y-93875000D01*
G75*
G02*
X219600000Y-93675000I0J200000D01*
G01*
X219600000Y-92225000D01*
G75*
G02*
X219800000Y-92025000I200000J0D01*
G01*
X220250000Y-92025000D01*
G75*
G02*
X220450000Y-92225000I0J-200000D01*
G01*
X220450000Y-93675000D01*
G75*
G02*
X220250000Y-93875000I-200000J0D01*
G01*
G37*
G36*
G01*
X150260000Y-91730000D02*
X151860000Y-91730000D01*
G75*
G02*
X152060000Y-91930000I0J-200000D01*
G01*
X152060000Y-92930000D01*
G75*
G02*
X151860000Y-93130000I-200000J0D01*
G01*
X150260000Y-93130000D01*
G75*
G02*
X150060000Y-92930000I0J200000D01*
G01*
X150060000Y-91930000D01*
G75*
G02*
X150260000Y-91730000I200000J0D01*
G01*
G37*
G36*
G01*
X150260000Y-94730000D02*
X151860000Y-94730000D01*
G75*
G02*
X152060000Y-94930000I0J-200000D01*
G01*
X152060000Y-95930000D01*
G75*
G02*
X151860000Y-96130000I-200000J0D01*
G01*
X150260000Y-96130000D01*
G75*
G02*
X150060000Y-95930000I0J200000D01*
G01*
X150060000Y-94930000D01*
G75*
G02*
X150260000Y-94730000I200000J0D01*
G01*
G37*
G36*
G01*
X180125000Y-90775000D02*
X179375000Y-90775000D01*
G75*
G02*
X179175000Y-90575000I0J200000D01*
G01*
X179175000Y-89775000D01*
G75*
G02*
X179375000Y-89575000I200000J0D01*
G01*
X180125000Y-89575000D01*
G75*
G02*
X180325000Y-89775000I0J-200000D01*
G01*
X180325000Y-90575000D01*
G75*
G02*
X180125000Y-90775000I-200000J0D01*
G01*
G37*
G36*
G01*
X180125000Y-89275000D02*
X179375000Y-89275000D01*
G75*
G02*
X179175000Y-89075000I0J200000D01*
G01*
X179175000Y-88275000D01*
G75*
G02*
X179375000Y-88075000I200000J0D01*
G01*
X180125000Y-88075000D01*
G75*
G02*
X180325000Y-88275000I0J-200000D01*
G01*
X180325000Y-89075000D01*
G75*
G02*
X180125000Y-89275000I-200000J0D01*
G01*
G37*
G36*
G01*
X154125000Y-90200000D02*
X154875000Y-90200000D01*
G75*
G02*
X155075000Y-90400000I0J-200000D01*
G01*
X155075000Y-91200000D01*
G75*
G02*
X154875000Y-91400000I-200000J0D01*
G01*
X154125000Y-91400000D01*
G75*
G02*
X153925000Y-91200000I0J200000D01*
G01*
X153925000Y-90400000D01*
G75*
G02*
X154125000Y-90200000I200000J0D01*
G01*
G37*
G36*
G01*
X154125000Y-91700000D02*
X154875000Y-91700000D01*
G75*
G02*
X155075000Y-91900000I0J-200000D01*
G01*
X155075000Y-92700000D01*
G75*
G02*
X154875000Y-92900000I-200000J0D01*
G01*
X154125000Y-92900000D01*
G75*
G02*
X153925000Y-92700000I0J200000D01*
G01*
X153925000Y-91900000D01*
G75*
G02*
X154125000Y-91700000I200000J0D01*
G01*
G37*
G36*
G01*
X167250000Y-89300000D02*
X166500000Y-89300000D01*
G75*
G02*
X166300000Y-89100000I0J200000D01*
G01*
X166300000Y-88300000D01*
G75*
G02*
X166500000Y-88100000I200000J0D01*
G01*
X167250000Y-88100000D01*
G75*
G02*
X167450000Y-88300000I0J-200000D01*
G01*
X167450000Y-89100000D01*
G75*
G02*
X167250000Y-89300000I-200000J0D01*
G01*
G37*
G36*
G01*
X167250000Y-90800000D02*
X166500000Y-90800000D01*
G75*
G02*
X166300000Y-90600000I0J200000D01*
G01*
X166300000Y-89800000D01*
G75*
G02*
X166500000Y-89600000I200000J0D01*
G01*
X167250000Y-89600000D01*
G75*
G02*
X167450000Y-89800000I0J-200000D01*
G01*
X167450000Y-90600000D01*
G75*
G02*
X167250000Y-90800000I-200000J0D01*
G01*
G37*
G36*
G01*
X191245000Y-93450000D02*
X190645000Y-93450000D01*
G75*
G02*
X190445000Y-93250000I0J200000D01*
G01*
X190445000Y-91700000D01*
G75*
G02*
X190645000Y-91500000I200000J0D01*
G01*
X191245000Y-91500000D01*
G75*
G02*
X191445000Y-91700000I0J-200000D01*
G01*
X191445000Y-93250000D01*
G75*
G02*
X191245000Y-93450000I-200000J0D01*
G01*
G37*
G36*
G01*
X192515000Y-93450000D02*
X191915000Y-93450000D01*
G75*
G02*
X191715000Y-93250000I0J200000D01*
G01*
X191715000Y-91700000D01*
G75*
G02*
X191915000Y-91500000I200000J0D01*
G01*
X192515000Y-91500000D01*
G75*
G02*
X192715000Y-91700000I0J-200000D01*
G01*
X192715000Y-93250000D01*
G75*
G02*
X192515000Y-93450000I-200000J0D01*
G01*
G37*
G36*
G01*
X193785000Y-93450000D02*
X193185000Y-93450000D01*
G75*
G02*
X192985000Y-93250000I0J200000D01*
G01*
X192985000Y-91700000D01*
G75*
G02*
X193185000Y-91500000I200000J0D01*
G01*
X193785000Y-91500000D01*
G75*
G02*
X193985000Y-91700000I0J-200000D01*
G01*
X193985000Y-93250000D01*
G75*
G02*
X193785000Y-93450000I-200000J0D01*
G01*
G37*
G36*
G01*
X195055000Y-93450000D02*
X194455000Y-93450000D01*
G75*
G02*
X194255000Y-93250000I0J200000D01*
G01*
X194255000Y-91700000D01*
G75*
G02*
X194455000Y-91500000I200000J0D01*
G01*
X195055000Y-91500000D01*
G75*
G02*
X195255000Y-91700000I0J-200000D01*
G01*
X195255000Y-93250000D01*
G75*
G02*
X195055000Y-93450000I-200000J0D01*
G01*
G37*
G36*
G01*
X195055000Y-88050000D02*
X194455000Y-88050000D01*
G75*
G02*
X194255000Y-87850000I0J200000D01*
G01*
X194255000Y-86300000D01*
G75*
G02*
X194455000Y-86100000I200000J0D01*
G01*
X195055000Y-86100000D01*
G75*
G02*
X195255000Y-86300000I0J-200000D01*
G01*
X195255000Y-87850000D01*
G75*
G02*
X195055000Y-88050000I-200000J0D01*
G01*
G37*
G36*
G01*
X193785000Y-88050000D02*
X193185000Y-88050000D01*
G75*
G02*
X192985000Y-87850000I0J200000D01*
G01*
X192985000Y-86300000D01*
G75*
G02*
X193185000Y-86100000I200000J0D01*
G01*
X193785000Y-86100000D01*
G75*
G02*
X193985000Y-86300000I0J-200000D01*
G01*
X193985000Y-87850000D01*
G75*
G02*
X193785000Y-88050000I-200000J0D01*
G01*
G37*
G36*
G01*
X192515000Y-88050000D02*
X191915000Y-88050000D01*
G75*
G02*
X191715000Y-87850000I0J200000D01*
G01*
X191715000Y-86300000D01*
G75*
G02*
X191915000Y-86100000I200000J0D01*
G01*
X192515000Y-86100000D01*
G75*
G02*
X192715000Y-86300000I0J-200000D01*
G01*
X192715000Y-87850000D01*
G75*
G02*
X192515000Y-88050000I-200000J0D01*
G01*
G37*
G36*
G01*
X191245000Y-88050000D02*
X190645000Y-88050000D01*
G75*
G02*
X190445000Y-87850000I0J200000D01*
G01*
X190445000Y-86300000D01*
G75*
G02*
X190645000Y-86100000I200000J0D01*
G01*
X191245000Y-86100000D01*
G75*
G02*
X191445000Y-86300000I0J-200000D01*
G01*
X191445000Y-87850000D01*
G75*
G02*
X191245000Y-88050000I-200000J0D01*
G01*
G37*
G36*
G01*
X163280240Y-78091270D02*
X163280240Y-79892130D01*
G75*
G02*
X163080240Y-80092130I-200000J0D01*
G01*
X162780520Y-80092130D01*
G75*
G02*
X162580520Y-79892130I0J200000D01*
G01*
X162580520Y-78091270D01*
G75*
G02*
X162780520Y-77891270I200000J0D01*
G01*
X163080240Y-77891270D01*
G75*
G02*
X163280240Y-78091270I0J-200000D01*
G01*
G37*
G36*
G01*
X163780620Y-78086190D02*
X163780620Y-79887050D01*
G75*
G02*
X163580620Y-80087050I-200000J0D01*
G01*
X163280900Y-80087050D01*
G75*
G02*
X163080900Y-79887050I0J200000D01*
G01*
X163080900Y-78086190D01*
G75*
G02*
X163280900Y-77886190I200000J0D01*
G01*
X163580620Y-77886190D01*
G75*
G02*
X163780620Y-78086190I0J-200000D01*
G01*
G37*
G36*
G01*
X164281000Y-78086190D02*
X164281000Y-79887050D01*
G75*
G02*
X164081000Y-80087050I-200000J0D01*
G01*
X163781280Y-80087050D01*
G75*
G02*
X163581280Y-79887050I0J200000D01*
G01*
X163581280Y-78086190D01*
G75*
G02*
X163781280Y-77886190I200000J0D01*
G01*
X164081000Y-77886190D01*
G75*
G02*
X164281000Y-78086190I0J-200000D01*
G01*
G37*
G36*
G01*
X164778840Y-78086190D02*
X164778840Y-79887050D01*
G75*
G02*
X164578840Y-80087050I-200000J0D01*
G01*
X164279120Y-80087050D01*
G75*
G02*
X164079120Y-79887050I0J200000D01*
G01*
X164079120Y-78086190D01*
G75*
G02*
X164279120Y-77886190I200000J0D01*
G01*
X164578840Y-77886190D01*
G75*
G02*
X164778840Y-78086190I0J-200000D01*
G01*
G37*
G36*
G01*
X165229690Y-78086190D02*
X165229690Y-79887050D01*
G75*
G02*
X165029690Y-80087050I-200000J0D01*
G01*
X164829030Y-80087050D01*
G75*
G02*
X164629030Y-79887050I0J200000D01*
G01*
X164629030Y-78086190D01*
G75*
G02*
X164829030Y-77886190I200000J0D01*
G01*
X165029690Y-77886190D01*
G75*
G02*
X165229690Y-78086190I0J-200000D01*
G01*
G37*
G36*
G01*
X165779600Y-78086190D02*
X165779600Y-79887050D01*
G75*
G02*
X165579600Y-80087050I-200000J0D01*
G01*
X165279880Y-80087050D01*
G75*
G02*
X165079880Y-79887050I0J200000D01*
G01*
X165079880Y-78086190D01*
G75*
G02*
X165279880Y-77886190I200000J0D01*
G01*
X165579600Y-77886190D01*
G75*
G02*
X165779600Y-78086190I0J-200000D01*
G01*
G37*
G36*
G01*
X166279980Y-78086190D02*
X166279980Y-79887050D01*
G75*
G02*
X166079980Y-80087050I-200000J0D01*
G01*
X165780260Y-80087050D01*
G75*
G02*
X165580260Y-79887050I0J200000D01*
G01*
X165580260Y-78086190D01*
G75*
G02*
X165780260Y-77886190I200000J0D01*
G01*
X166079980Y-77886190D01*
G75*
G02*
X166279980Y-78086190I0J-200000D01*
G01*
G37*
G36*
G01*
X166780360Y-78086190D02*
X166780360Y-79887050D01*
G75*
G02*
X166580360Y-80087050I-200000J0D01*
G01*
X166280640Y-80087050D01*
G75*
G02*
X166080640Y-79887050I0J200000D01*
G01*
X166080640Y-78086190D01*
G75*
G02*
X166280640Y-77886190I200000J0D01*
G01*
X166580360Y-77886190D01*
G75*
G02*
X166780360Y-78086190I0J-200000D01*
G01*
G37*
G36*
G01*
X167280740Y-78086190D02*
X167280740Y-79887050D01*
G75*
G02*
X167080740Y-80087050I-200000J0D01*
G01*
X166781020Y-80087050D01*
G75*
G02*
X166581020Y-79887050I0J200000D01*
G01*
X166581020Y-78086190D01*
G75*
G02*
X166781020Y-77886190I200000J0D01*
G01*
X167080740Y-77886190D01*
G75*
G02*
X167280740Y-78086190I0J-200000D01*
G01*
G37*
G36*
G01*
X167781120Y-78086190D02*
X167781120Y-79887050D01*
G75*
G02*
X167581120Y-80087050I-200000J0D01*
G01*
X167281400Y-80087050D01*
G75*
G02*
X167081400Y-79887050I0J200000D01*
G01*
X167081400Y-78086190D01*
G75*
G02*
X167281400Y-77886190I200000J0D01*
G01*
X167581120Y-77886190D01*
G75*
G02*
X167781120Y-78086190I0J-200000D01*
G01*
G37*
G36*
G01*
X168278960Y-78086190D02*
X168278960Y-79887050D01*
G75*
G02*
X168078960Y-80087050I-200000J0D01*
G01*
X167779240Y-80087050D01*
G75*
G02*
X167579240Y-79887050I0J200000D01*
G01*
X167579240Y-78086190D01*
G75*
G02*
X167779240Y-77886190I200000J0D01*
G01*
X168078960Y-77886190D01*
G75*
G02*
X168278960Y-78086190I0J-200000D01*
G01*
G37*
G36*
G01*
X168779340Y-78086190D02*
X168779340Y-79887050D01*
G75*
G02*
X168579340Y-80087050I-200000J0D01*
G01*
X168279620Y-80087050D01*
G75*
G02*
X168079620Y-79887050I0J200000D01*
G01*
X168079620Y-78086190D01*
G75*
G02*
X168279620Y-77886190I200000J0D01*
G01*
X168579340Y-77886190D01*
G75*
G02*
X168779340Y-78086190I0J-200000D01*
G01*
G37*
G36*
G01*
X169279720Y-78086190D02*
X169279720Y-79887050D01*
G75*
G02*
X169079720Y-80087050I-200000J0D01*
G01*
X168780000Y-80087050D01*
G75*
G02*
X168580000Y-79887050I0J200000D01*
G01*
X168580000Y-78086190D01*
G75*
G02*
X168780000Y-77886190I200000J0D01*
G01*
X169079720Y-77886190D01*
G75*
G02*
X169279720Y-78086190I0J-200000D01*
G01*
G37*
G36*
G01*
X169780100Y-78086190D02*
X169780100Y-79887050D01*
G75*
G02*
X169580100Y-80087050I-200000J0D01*
G01*
X169280380Y-80087050D01*
G75*
G02*
X169080380Y-79887050I0J200000D01*
G01*
X169080380Y-78086190D01*
G75*
G02*
X169280380Y-77886190I200000J0D01*
G01*
X169580100Y-77886190D01*
G75*
G02*
X169780100Y-78086190I0J-200000D01*
G01*
G37*
G36*
G01*
X170280480Y-78086190D02*
X170280480Y-79887050D01*
G75*
G02*
X170080480Y-80087050I-200000J0D01*
G01*
X169780760Y-80087050D01*
G75*
G02*
X169580760Y-79887050I0J200000D01*
G01*
X169580760Y-78086190D01*
G75*
G02*
X169780760Y-77886190I200000J0D01*
G01*
X170080480Y-77886190D01*
G75*
G02*
X170280480Y-78086190I0J-200000D01*
G01*
G37*
G36*
G01*
X170780860Y-78086190D02*
X170780860Y-79887050D01*
G75*
G02*
X170580860Y-80087050I-200000J0D01*
G01*
X170281140Y-80087050D01*
G75*
G02*
X170081140Y-79887050I0J200000D01*
G01*
X170081140Y-78086190D01*
G75*
G02*
X170281140Y-77886190I200000J0D01*
G01*
X170580860Y-77886190D01*
G75*
G02*
X170780860Y-78086190I0J-200000D01*
G01*
G37*
G36*
G01*
X171278700Y-78086190D02*
X171278700Y-79887050D01*
G75*
G02*
X171078700Y-80087050I-200000J0D01*
G01*
X170778980Y-80087050D01*
G75*
G02*
X170578980Y-79887050I0J200000D01*
G01*
X170578980Y-78086190D01*
G75*
G02*
X170778980Y-77886190I200000J0D01*
G01*
X171078700Y-77886190D01*
G75*
G02*
X171278700Y-78086190I0J-200000D01*
G01*
G37*
G36*
G01*
X171779080Y-78086190D02*
X171779080Y-79887050D01*
G75*
G02*
X171579080Y-80087050I-200000J0D01*
G01*
X171279360Y-80087050D01*
G75*
G02*
X171079360Y-79887050I0J200000D01*
G01*
X171079360Y-78086190D01*
G75*
G02*
X171279360Y-77886190I200000J0D01*
G01*
X171579080Y-77886190D01*
G75*
G02*
X171779080Y-78086190I0J-200000D01*
G01*
G37*
G36*
G01*
X172279460Y-78086190D02*
X172279460Y-79887050D01*
G75*
G02*
X172079460Y-80087050I-200000J0D01*
G01*
X171779740Y-80087050D01*
G75*
G02*
X171579740Y-79887050I0J200000D01*
G01*
X171579740Y-78086190D01*
G75*
G02*
X171779740Y-77886190I200000J0D01*
G01*
X172079460Y-77886190D01*
G75*
G02*
X172279460Y-78086190I0J-200000D01*
G01*
G37*
G36*
G01*
X172779840Y-78086190D02*
X172779840Y-79887050D01*
G75*
G02*
X172579840Y-80087050I-200000J0D01*
G01*
X172280120Y-80087050D01*
G75*
G02*
X172080120Y-79887050I0J200000D01*
G01*
X172080120Y-78086190D01*
G75*
G02*
X172280120Y-77886190I200000J0D01*
G01*
X172579840Y-77886190D01*
G75*
G02*
X172779840Y-78086190I0J-200000D01*
G01*
G37*
G36*
G01*
X173280220Y-78086190D02*
X173280220Y-79887050D01*
G75*
G02*
X173080220Y-80087050I-200000J0D01*
G01*
X172780500Y-80087050D01*
G75*
G02*
X172580500Y-79887050I0J200000D01*
G01*
X172580500Y-78086190D01*
G75*
G02*
X172780500Y-77886190I200000J0D01*
G01*
X173080220Y-77886190D01*
G75*
G02*
X173280220Y-78086190I0J-200000D01*
G01*
G37*
G36*
G01*
X173780600Y-78086190D02*
X173780600Y-79887050D01*
G75*
G02*
X173580600Y-80087050I-200000J0D01*
G01*
X173280880Y-80087050D01*
G75*
G02*
X173080880Y-79887050I0J200000D01*
G01*
X173080880Y-78086190D01*
G75*
G02*
X173280880Y-77886190I200000J0D01*
G01*
X173580600Y-77886190D01*
G75*
G02*
X173780600Y-78086190I0J-200000D01*
G01*
G37*
G36*
G01*
X174280980Y-78086190D02*
X174280980Y-79887050D01*
G75*
G02*
X174080980Y-80087050I-200000J0D01*
G01*
X173781260Y-80087050D01*
G75*
G02*
X173581260Y-79887050I0J200000D01*
G01*
X173581260Y-78086190D01*
G75*
G02*
X173781260Y-77886190I200000J0D01*
G01*
X174080980Y-77886190D01*
G75*
G02*
X174280980Y-78086190I0J-200000D01*
G01*
G37*
G36*
G01*
X174778820Y-78086190D02*
X174778820Y-79887050D01*
G75*
G02*
X174578820Y-80087050I-200000J0D01*
G01*
X174279100Y-80087050D01*
G75*
G02*
X174079100Y-79887050I0J200000D01*
G01*
X174079100Y-78086190D01*
G75*
G02*
X174279100Y-77886190I200000J0D01*
G01*
X174578820Y-77886190D01*
G75*
G02*
X174778820Y-78086190I0J-200000D01*
G01*
G37*
G36*
G01*
X174778820Y-57888110D02*
X174778820Y-59688970D01*
G75*
G02*
X174578820Y-59888970I-200000J0D01*
G01*
X174279100Y-59888970D01*
G75*
G02*
X174079100Y-59688970I0J200000D01*
G01*
X174079100Y-57888110D01*
G75*
G02*
X174279100Y-57688110I200000J0D01*
G01*
X174578820Y-57688110D01*
G75*
G02*
X174778820Y-57888110I0J-200000D01*
G01*
G37*
G36*
G01*
X174280980Y-57888110D02*
X174280980Y-59688970D01*
G75*
G02*
X174080980Y-59888970I-200000J0D01*
G01*
X173781260Y-59888970D01*
G75*
G02*
X173581260Y-59688970I0J200000D01*
G01*
X173581260Y-57888110D01*
G75*
G02*
X173781260Y-57688110I200000J0D01*
G01*
X174080980Y-57688110D01*
G75*
G02*
X174280980Y-57888110I0J-200000D01*
G01*
G37*
G36*
G01*
X173780600Y-57888110D02*
X173780600Y-59688970D01*
G75*
G02*
X173580600Y-59888970I-200000J0D01*
G01*
X173280880Y-59888970D01*
G75*
G02*
X173080880Y-59688970I0J200000D01*
G01*
X173080880Y-57888110D01*
G75*
G02*
X173280880Y-57688110I200000J0D01*
G01*
X173580600Y-57688110D01*
G75*
G02*
X173780600Y-57888110I0J-200000D01*
G01*
G37*
G36*
G01*
X173280220Y-57888110D02*
X173280220Y-59688970D01*
G75*
G02*
X173080220Y-59888970I-200000J0D01*
G01*
X172780500Y-59888970D01*
G75*
G02*
X172580500Y-59688970I0J200000D01*
G01*
X172580500Y-57888110D01*
G75*
G02*
X172780500Y-57688110I200000J0D01*
G01*
X173080220Y-57688110D01*
G75*
G02*
X173280220Y-57888110I0J-200000D01*
G01*
G37*
G36*
G01*
X172779840Y-57888110D02*
X172779840Y-59688970D01*
G75*
G02*
X172579840Y-59888970I-200000J0D01*
G01*
X172280120Y-59888970D01*
G75*
G02*
X172080120Y-59688970I0J200000D01*
G01*
X172080120Y-57888110D01*
G75*
G02*
X172280120Y-57688110I200000J0D01*
G01*
X172579840Y-57688110D01*
G75*
G02*
X172779840Y-57888110I0J-200000D01*
G01*
G37*
G36*
G01*
X172279460Y-57888110D02*
X172279460Y-59688970D01*
G75*
G02*
X172079460Y-59888970I-200000J0D01*
G01*
X171779740Y-59888970D01*
G75*
G02*
X171579740Y-59688970I0J200000D01*
G01*
X171579740Y-57888110D01*
G75*
G02*
X171779740Y-57688110I200000J0D01*
G01*
X172079460Y-57688110D01*
G75*
G02*
X172279460Y-57888110I0J-200000D01*
G01*
G37*
G36*
G01*
X171779080Y-57888110D02*
X171779080Y-59688970D01*
G75*
G02*
X171579080Y-59888970I-200000J0D01*
G01*
X171279360Y-59888970D01*
G75*
G02*
X171079360Y-59688970I0J200000D01*
G01*
X171079360Y-57888110D01*
G75*
G02*
X171279360Y-57688110I200000J0D01*
G01*
X171579080Y-57688110D01*
G75*
G02*
X171779080Y-57888110I0J-200000D01*
G01*
G37*
G36*
G01*
X171278700Y-57888110D02*
X171278700Y-59688970D01*
G75*
G02*
X171078700Y-59888970I-200000J0D01*
G01*
X170778980Y-59888970D01*
G75*
G02*
X170578980Y-59688970I0J200000D01*
G01*
X170578980Y-57888110D01*
G75*
G02*
X170778980Y-57688110I200000J0D01*
G01*
X171078700Y-57688110D01*
G75*
G02*
X171278700Y-57888110I0J-200000D01*
G01*
G37*
G36*
G01*
X170780860Y-57888110D02*
X170780860Y-59688970D01*
G75*
G02*
X170580860Y-59888970I-200000J0D01*
G01*
X170281140Y-59888970D01*
G75*
G02*
X170081140Y-59688970I0J200000D01*
G01*
X170081140Y-57888110D01*
G75*
G02*
X170281140Y-57688110I200000J0D01*
G01*
X170580860Y-57688110D01*
G75*
G02*
X170780860Y-57888110I0J-200000D01*
G01*
G37*
G36*
G01*
X170280480Y-57888110D02*
X170280480Y-59688970D01*
G75*
G02*
X170080480Y-59888970I-200000J0D01*
G01*
X169780760Y-59888970D01*
G75*
G02*
X169580760Y-59688970I0J200000D01*
G01*
X169580760Y-57888110D01*
G75*
G02*
X169780760Y-57688110I200000J0D01*
G01*
X170080480Y-57688110D01*
G75*
G02*
X170280480Y-57888110I0J-200000D01*
G01*
G37*
G36*
G01*
X169780100Y-57888110D02*
X169780100Y-59688970D01*
G75*
G02*
X169580100Y-59888970I-200000J0D01*
G01*
X169280380Y-59888970D01*
G75*
G02*
X169080380Y-59688970I0J200000D01*
G01*
X169080380Y-57888110D01*
G75*
G02*
X169280380Y-57688110I200000J0D01*
G01*
X169580100Y-57688110D01*
G75*
G02*
X169780100Y-57888110I0J-200000D01*
G01*
G37*
G36*
G01*
X169279720Y-57888110D02*
X169279720Y-59688970D01*
G75*
G02*
X169079720Y-59888970I-200000J0D01*
G01*
X168780000Y-59888970D01*
G75*
G02*
X168580000Y-59688970I0J200000D01*
G01*
X168580000Y-57888110D01*
G75*
G02*
X168780000Y-57688110I200000J0D01*
G01*
X169079720Y-57688110D01*
G75*
G02*
X169279720Y-57888110I0J-200000D01*
G01*
G37*
G36*
G01*
X168779340Y-57888110D02*
X168779340Y-59688970D01*
G75*
G02*
X168579340Y-59888970I-200000J0D01*
G01*
X168279620Y-59888970D01*
G75*
G02*
X168079620Y-59688970I0J200000D01*
G01*
X168079620Y-57888110D01*
G75*
G02*
X168279620Y-57688110I200000J0D01*
G01*
X168579340Y-57688110D01*
G75*
G02*
X168779340Y-57888110I0J-200000D01*
G01*
G37*
G36*
G01*
X168278960Y-57888110D02*
X168278960Y-59688970D01*
G75*
G02*
X168078960Y-59888970I-200000J0D01*
G01*
X167779240Y-59888970D01*
G75*
G02*
X167579240Y-59688970I0J200000D01*
G01*
X167579240Y-57888110D01*
G75*
G02*
X167779240Y-57688110I200000J0D01*
G01*
X168078960Y-57688110D01*
G75*
G02*
X168278960Y-57888110I0J-200000D01*
G01*
G37*
G36*
G01*
X167781120Y-57888110D02*
X167781120Y-59688970D01*
G75*
G02*
X167581120Y-59888970I-200000J0D01*
G01*
X167281400Y-59888970D01*
G75*
G02*
X167081400Y-59688970I0J200000D01*
G01*
X167081400Y-57888110D01*
G75*
G02*
X167281400Y-57688110I200000J0D01*
G01*
X167581120Y-57688110D01*
G75*
G02*
X167781120Y-57888110I0J-200000D01*
G01*
G37*
G36*
G01*
X167280740Y-57888110D02*
X167280740Y-59688970D01*
G75*
G02*
X167080740Y-59888970I-200000J0D01*
G01*
X166781020Y-59888970D01*
G75*
G02*
X166581020Y-59688970I0J200000D01*
G01*
X166581020Y-57888110D01*
G75*
G02*
X166781020Y-57688110I200000J0D01*
G01*
X167080740Y-57688110D01*
G75*
G02*
X167280740Y-57888110I0J-200000D01*
G01*
G37*
G36*
G01*
X166780360Y-57888110D02*
X166780360Y-59688970D01*
G75*
G02*
X166580360Y-59888970I-200000J0D01*
G01*
X166280640Y-59888970D01*
G75*
G02*
X166080640Y-59688970I0J200000D01*
G01*
X166080640Y-57888110D01*
G75*
G02*
X166280640Y-57688110I200000J0D01*
G01*
X166580360Y-57688110D01*
G75*
G02*
X166780360Y-57888110I0J-200000D01*
G01*
G37*
G36*
G01*
X166279980Y-57888110D02*
X166279980Y-59688970D01*
G75*
G02*
X166079980Y-59888970I-200000J0D01*
G01*
X165780260Y-59888970D01*
G75*
G02*
X165580260Y-59688970I0J200000D01*
G01*
X165580260Y-57888110D01*
G75*
G02*
X165780260Y-57688110I200000J0D01*
G01*
X166079980Y-57688110D01*
G75*
G02*
X166279980Y-57888110I0J-200000D01*
G01*
G37*
G36*
G01*
X165779600Y-57888110D02*
X165779600Y-59688970D01*
G75*
G02*
X165579600Y-59888970I-200000J0D01*
G01*
X165279880Y-59888970D01*
G75*
G02*
X165079880Y-59688970I0J200000D01*
G01*
X165079880Y-57888110D01*
G75*
G02*
X165279880Y-57688110I200000J0D01*
G01*
X165579600Y-57688110D01*
G75*
G02*
X165779600Y-57888110I0J-200000D01*
G01*
G37*
G36*
G01*
X165279220Y-57888110D02*
X165279220Y-59688970D01*
G75*
G02*
X165079220Y-59888970I-200000J0D01*
G01*
X164779500Y-59888970D01*
G75*
G02*
X164579500Y-59688970I0J200000D01*
G01*
X164579500Y-57888110D01*
G75*
G02*
X164779500Y-57688110I200000J0D01*
G01*
X165079220Y-57688110D01*
G75*
G02*
X165279220Y-57888110I0J-200000D01*
G01*
G37*
G36*
G01*
X164778840Y-57888110D02*
X164778840Y-59688970D01*
G75*
G02*
X164578840Y-59888970I-200000J0D01*
G01*
X164279120Y-59888970D01*
G75*
G02*
X164079120Y-59688970I0J200000D01*
G01*
X164079120Y-57888110D01*
G75*
G02*
X164279120Y-57688110I200000J0D01*
G01*
X164578840Y-57688110D01*
G75*
G02*
X164778840Y-57888110I0J-200000D01*
G01*
G37*
G36*
G01*
X164281000Y-57888110D02*
X164281000Y-59688970D01*
G75*
G02*
X164081000Y-59888970I-200000J0D01*
G01*
X163781280Y-59888970D01*
G75*
G02*
X163581280Y-59688970I0J200000D01*
G01*
X163581280Y-57888110D01*
G75*
G02*
X163781280Y-57688110I200000J0D01*
G01*
X164081000Y-57688110D01*
G75*
G02*
X164281000Y-57888110I0J-200000D01*
G01*
G37*
G36*
G01*
X163780620Y-57888110D02*
X163780620Y-59688970D01*
G75*
G02*
X163580620Y-59888970I-200000J0D01*
G01*
X163280900Y-59888970D01*
G75*
G02*
X163080900Y-59688970I0J200000D01*
G01*
X163080900Y-57888110D01*
G75*
G02*
X163280900Y-57688110I200000J0D01*
G01*
X163580620Y-57688110D01*
G75*
G02*
X163780620Y-57888110I0J-200000D01*
G01*
G37*
G36*
G01*
X163280240Y-57888110D02*
X163280240Y-59688970D01*
G75*
G02*
X163080240Y-59888970I-200000J0D01*
G01*
X162780520Y-59888970D01*
G75*
G02*
X162580520Y-59688970I0J200000D01*
G01*
X162580520Y-57888110D01*
G75*
G02*
X162780520Y-57688110I200000J0D01*
G01*
X163080240Y-57688110D01*
G75*
G02*
X163280240Y-57888110I0J-200000D01*
G01*
G37*
G36*
G01*
X182050000Y-93875000D02*
X181600000Y-93875000D01*
G75*
G02*
X181400000Y-93675000I0J200000D01*
G01*
X181400000Y-92225000D01*
G75*
G02*
X181600000Y-92025000I200000J0D01*
G01*
X182050000Y-92025000D01*
G75*
G02*
X182250000Y-92225000I0J-200000D01*
G01*
X182250000Y-93675000D01*
G75*
G02*
X182050000Y-93875000I-200000J0D01*
G01*
G37*
G36*
G01*
X182700000Y-93875000D02*
X182250000Y-93875000D01*
G75*
G02*
X182050000Y-93675000I0J200000D01*
G01*
X182050000Y-92225000D01*
G75*
G02*
X182250000Y-92025000I200000J0D01*
G01*
X182700000Y-92025000D01*
G75*
G02*
X182900000Y-92225000I0J-200000D01*
G01*
X182900000Y-93675000D01*
G75*
G02*
X182700000Y-93875000I-200000J0D01*
G01*
G37*
G36*
G01*
X183350000Y-93875000D02*
X182900000Y-93875000D01*
G75*
G02*
X182700000Y-93675000I0J200000D01*
G01*
X182700000Y-92225000D01*
G75*
G02*
X182900000Y-92025000I200000J0D01*
G01*
X183350000Y-92025000D01*
G75*
G02*
X183550000Y-92225000I0J-200000D01*
G01*
X183550000Y-93675000D01*
G75*
G02*
X183350000Y-93875000I-200000J0D01*
G01*
G37*
G36*
G01*
X184000000Y-93875000D02*
X183550000Y-93875000D01*
G75*
G02*
X183350000Y-93675000I0J200000D01*
G01*
X183350000Y-92225000D01*
G75*
G02*
X183550000Y-92025000I200000J0D01*
G01*
X184000000Y-92025000D01*
G75*
G02*
X184200000Y-92225000I0J-200000D01*
G01*
X184200000Y-93675000D01*
G75*
G02*
X184000000Y-93875000I-200000J0D01*
G01*
G37*
G36*
G01*
X184650000Y-93875000D02*
X184200000Y-93875000D01*
G75*
G02*
X184000000Y-93675000I0J200000D01*
G01*
X184000000Y-92225000D01*
G75*
G02*
X184200000Y-92025000I200000J0D01*
G01*
X184650000Y-92025000D01*
G75*
G02*
X184850000Y-92225000I0J-200000D01*
G01*
X184850000Y-93675000D01*
G75*
G02*
X184650000Y-93875000I-200000J0D01*
G01*
G37*
G36*
G01*
X185300000Y-93875000D02*
X184850000Y-93875000D01*
G75*
G02*
X184650000Y-93675000I0J200000D01*
G01*
X184650000Y-92225000D01*
G75*
G02*
X184850000Y-92025000I200000J0D01*
G01*
X185300000Y-92025000D01*
G75*
G02*
X185500000Y-92225000I0J-200000D01*
G01*
X185500000Y-93675000D01*
G75*
G02*
X185300000Y-93875000I-200000J0D01*
G01*
G37*
G36*
G01*
X185950000Y-93875000D02*
X185500000Y-93875000D01*
G75*
G02*
X185300000Y-93675000I0J200000D01*
G01*
X185300000Y-92225000D01*
G75*
G02*
X185500000Y-92025000I200000J0D01*
G01*
X185950000Y-92025000D01*
G75*
G02*
X186150000Y-92225000I0J-200000D01*
G01*
X186150000Y-93675000D01*
G75*
G02*
X185950000Y-93875000I-200000J0D01*
G01*
G37*
G36*
G01*
X186600000Y-93875000D02*
X186150000Y-93875000D01*
G75*
G02*
X185950000Y-93675000I0J200000D01*
G01*
X185950000Y-92225000D01*
G75*
G02*
X186150000Y-92025000I200000J0D01*
G01*
X186600000Y-92025000D01*
G75*
G02*
X186800000Y-92225000I0J-200000D01*
G01*
X186800000Y-93675000D01*
G75*
G02*
X186600000Y-93875000I-200000J0D01*
G01*
G37*
G36*
G01*
X187250000Y-93875000D02*
X186800000Y-93875000D01*
G75*
G02*
X186600000Y-93675000I0J200000D01*
G01*
X186600000Y-92225000D01*
G75*
G02*
X186800000Y-92025000I200000J0D01*
G01*
X187250000Y-92025000D01*
G75*
G02*
X187450000Y-92225000I0J-200000D01*
G01*
X187450000Y-93675000D01*
G75*
G02*
X187250000Y-93875000I-200000J0D01*
G01*
G37*
G36*
G01*
X187900000Y-93875000D02*
X187450000Y-93875000D01*
G75*
G02*
X187250000Y-93675000I0J200000D01*
G01*
X187250000Y-92225000D01*
G75*
G02*
X187450000Y-92025000I200000J0D01*
G01*
X187900000Y-92025000D01*
G75*
G02*
X188100000Y-92225000I0J-200000D01*
G01*
X188100000Y-93675000D01*
G75*
G02*
X187900000Y-93875000I-200000J0D01*
G01*
G37*
G36*
G01*
X187900000Y-87975000D02*
X187450000Y-87975000D01*
G75*
G02*
X187250000Y-87775000I0J200000D01*
G01*
X187250000Y-86325000D01*
G75*
G02*
X187450000Y-86125000I200000J0D01*
G01*
X187900000Y-86125000D01*
G75*
G02*
X188100000Y-86325000I0J-200000D01*
G01*
X188100000Y-87775000D01*
G75*
G02*
X187900000Y-87975000I-200000J0D01*
G01*
G37*
G36*
G01*
X187250000Y-87975000D02*
X186800000Y-87975000D01*
G75*
G02*
X186600000Y-87775000I0J200000D01*
G01*
X186600000Y-86325000D01*
G75*
G02*
X186800000Y-86125000I200000J0D01*
G01*
X187250000Y-86125000D01*
G75*
G02*
X187450000Y-86325000I0J-200000D01*
G01*
X187450000Y-87775000D01*
G75*
G02*
X187250000Y-87975000I-200000J0D01*
G01*
G37*
G36*
G01*
X186600000Y-87975000D02*
X186150000Y-87975000D01*
G75*
G02*
X185950000Y-87775000I0J200000D01*
G01*
X185950000Y-86325000D01*
G75*
G02*
X186150000Y-86125000I200000J0D01*
G01*
X186600000Y-86125000D01*
G75*
G02*
X186800000Y-86325000I0J-200000D01*
G01*
X186800000Y-87775000D01*
G75*
G02*
X186600000Y-87975000I-200000J0D01*
G01*
G37*
G36*
G01*
X185950000Y-87975000D02*
X185500000Y-87975000D01*
G75*
G02*
X185300000Y-87775000I0J200000D01*
G01*
X185300000Y-86325000D01*
G75*
G02*
X185500000Y-86125000I200000J0D01*
G01*
X185950000Y-86125000D01*
G75*
G02*
X186150000Y-86325000I0J-200000D01*
G01*
X186150000Y-87775000D01*
G75*
G02*
X185950000Y-87975000I-200000J0D01*
G01*
G37*
G36*
G01*
X185300000Y-87975000D02*
X184850000Y-87975000D01*
G75*
G02*
X184650000Y-87775000I0J200000D01*
G01*
X184650000Y-86325000D01*
G75*
G02*
X184850000Y-86125000I200000J0D01*
G01*
X185300000Y-86125000D01*
G75*
G02*
X185500000Y-86325000I0J-200000D01*
G01*
X185500000Y-87775000D01*
G75*
G02*
X185300000Y-87975000I-200000J0D01*
G01*
G37*
G36*
G01*
X184650000Y-87975000D02*
X184200000Y-87975000D01*
G75*
G02*
X184000000Y-87775000I0J200000D01*
G01*
X184000000Y-86325000D01*
G75*
G02*
X184200000Y-86125000I200000J0D01*
G01*
X184650000Y-86125000D01*
G75*
G02*
X184850000Y-86325000I0J-200000D01*
G01*
X184850000Y-87775000D01*
G75*
G02*
X184650000Y-87975000I-200000J0D01*
G01*
G37*
G36*
G01*
X184000000Y-87975000D02*
X183550000Y-87975000D01*
G75*
G02*
X183350000Y-87775000I0J200000D01*
G01*
X183350000Y-86325000D01*
G75*
G02*
X183550000Y-86125000I200000J0D01*
G01*
X184000000Y-86125000D01*
G75*
G02*
X184200000Y-86325000I0J-200000D01*
G01*
X184200000Y-87775000D01*
G75*
G02*
X184000000Y-87975000I-200000J0D01*
G01*
G37*
G36*
G01*
X183350000Y-87975000D02*
X182900000Y-87975000D01*
G75*
G02*
X182700000Y-87775000I0J200000D01*
G01*
X182700000Y-86325000D01*
G75*
G02*
X182900000Y-86125000I200000J0D01*
G01*
X183350000Y-86125000D01*
G75*
G02*
X183550000Y-86325000I0J-200000D01*
G01*
X183550000Y-87775000D01*
G75*
G02*
X183350000Y-87975000I-200000J0D01*
G01*
G37*
G36*
G01*
X182700000Y-87975000D02*
X182250000Y-87975000D01*
G75*
G02*
X182050000Y-87775000I0J200000D01*
G01*
X182050000Y-86325000D01*
G75*
G02*
X182250000Y-86125000I200000J0D01*
G01*
X182700000Y-86125000D01*
G75*
G02*
X182900000Y-86325000I0J-200000D01*
G01*
X182900000Y-87775000D01*
G75*
G02*
X182700000Y-87975000I-200000J0D01*
G01*
G37*
G36*
G01*
X182050000Y-87975000D02*
X181600000Y-87975000D01*
G75*
G02*
X181400000Y-87775000I0J200000D01*
G01*
X181400000Y-86325000D01*
G75*
G02*
X181600000Y-86125000I200000J0D01*
G01*
X182050000Y-86125000D01*
G75*
G02*
X182250000Y-86325000I0J-200000D01*
G01*
X182250000Y-87775000D01*
G75*
G02*
X182050000Y-87975000I-200000J0D01*
G01*
G37*
G36*
G01*
X168900000Y-93875000D02*
X168450000Y-93875000D01*
G75*
G02*
X168250000Y-93675000I0J200000D01*
G01*
X168250000Y-92225000D01*
G75*
G02*
X168450000Y-92025000I200000J0D01*
G01*
X168900000Y-92025000D01*
G75*
G02*
X169100000Y-92225000I0J-200000D01*
G01*
X169100000Y-93675000D01*
G75*
G02*
X168900000Y-93875000I-200000J0D01*
G01*
G37*
G36*
G01*
X169550000Y-93875000D02*
X169100000Y-93875000D01*
G75*
G02*
X168900000Y-93675000I0J200000D01*
G01*
X168900000Y-92225000D01*
G75*
G02*
X169100000Y-92025000I200000J0D01*
G01*
X169550000Y-92025000D01*
G75*
G02*
X169750000Y-92225000I0J-200000D01*
G01*
X169750000Y-93675000D01*
G75*
G02*
X169550000Y-93875000I-200000J0D01*
G01*
G37*
G36*
G01*
X170200000Y-93875000D02*
X169750000Y-93875000D01*
G75*
G02*
X169550000Y-93675000I0J200000D01*
G01*
X169550000Y-92225000D01*
G75*
G02*
X169750000Y-92025000I200000J0D01*
G01*
X170200000Y-92025000D01*
G75*
G02*
X170400000Y-92225000I0J-200000D01*
G01*
X170400000Y-93675000D01*
G75*
G02*
X170200000Y-93875000I-200000J0D01*
G01*
G37*
G36*
G01*
X170850000Y-93875000D02*
X170400000Y-93875000D01*
G75*
G02*
X170200000Y-93675000I0J200000D01*
G01*
X170200000Y-92225000D01*
G75*
G02*
X170400000Y-92025000I200000J0D01*
G01*
X170850000Y-92025000D01*
G75*
G02*
X171050000Y-92225000I0J-200000D01*
G01*
X171050000Y-93675000D01*
G75*
G02*
X170850000Y-93875000I-200000J0D01*
G01*
G37*
G36*
G01*
X171500000Y-93875000D02*
X171050000Y-93875000D01*
G75*
G02*
X170850000Y-93675000I0J200000D01*
G01*
X170850000Y-92225000D01*
G75*
G02*
X171050000Y-92025000I200000J0D01*
G01*
X171500000Y-92025000D01*
G75*
G02*
X171700000Y-92225000I0J-200000D01*
G01*
X171700000Y-93675000D01*
G75*
G02*
X171500000Y-93875000I-200000J0D01*
G01*
G37*
G36*
G01*
X172150000Y-93875000D02*
X171700000Y-93875000D01*
G75*
G02*
X171500000Y-93675000I0J200000D01*
G01*
X171500000Y-92225000D01*
G75*
G02*
X171700000Y-92025000I200000J0D01*
G01*
X172150000Y-92025000D01*
G75*
G02*
X172350000Y-92225000I0J-200000D01*
G01*
X172350000Y-93675000D01*
G75*
G02*
X172150000Y-93875000I-200000J0D01*
G01*
G37*
G36*
G01*
X172800000Y-93875000D02*
X172350000Y-93875000D01*
G75*
G02*
X172150000Y-93675000I0J200000D01*
G01*
X172150000Y-92225000D01*
G75*
G02*
X172350000Y-92025000I200000J0D01*
G01*
X172800000Y-92025000D01*
G75*
G02*
X173000000Y-92225000I0J-200000D01*
G01*
X173000000Y-93675000D01*
G75*
G02*
X172800000Y-93875000I-200000J0D01*
G01*
G37*
G36*
G01*
X173450000Y-93875000D02*
X173000000Y-93875000D01*
G75*
G02*
X172800000Y-93675000I0J200000D01*
G01*
X172800000Y-92225000D01*
G75*
G02*
X173000000Y-92025000I200000J0D01*
G01*
X173450000Y-92025000D01*
G75*
G02*
X173650000Y-92225000I0J-200000D01*
G01*
X173650000Y-93675000D01*
G75*
G02*
X173450000Y-93875000I-200000J0D01*
G01*
G37*
G36*
G01*
X174100000Y-93875000D02*
X173650000Y-93875000D01*
G75*
G02*
X173450000Y-93675000I0J200000D01*
G01*
X173450000Y-92225000D01*
G75*
G02*
X173650000Y-92025000I200000J0D01*
G01*
X174100000Y-92025000D01*
G75*
G02*
X174300000Y-92225000I0J-200000D01*
G01*
X174300000Y-93675000D01*
G75*
G02*
X174100000Y-93875000I-200000J0D01*
G01*
G37*
G36*
G01*
X174750000Y-93875000D02*
X174300000Y-93875000D01*
G75*
G02*
X174100000Y-93675000I0J200000D01*
G01*
X174100000Y-92225000D01*
G75*
G02*
X174300000Y-92025000I200000J0D01*
G01*
X174750000Y-92025000D01*
G75*
G02*
X174950000Y-92225000I0J-200000D01*
G01*
X174950000Y-93675000D01*
G75*
G02*
X174750000Y-93875000I-200000J0D01*
G01*
G37*
G36*
G01*
X174750000Y-87975000D02*
X174300000Y-87975000D01*
G75*
G02*
X174100000Y-87775000I0J200000D01*
G01*
X174100000Y-86325000D01*
G75*
G02*
X174300000Y-86125000I200000J0D01*
G01*
X174750000Y-86125000D01*
G75*
G02*
X174950000Y-86325000I0J-200000D01*
G01*
X174950000Y-87775000D01*
G75*
G02*
X174750000Y-87975000I-200000J0D01*
G01*
G37*
G36*
G01*
X174100000Y-87975000D02*
X173650000Y-87975000D01*
G75*
G02*
X173450000Y-87775000I0J200000D01*
G01*
X173450000Y-86325000D01*
G75*
G02*
X173650000Y-86125000I200000J0D01*
G01*
X174100000Y-86125000D01*
G75*
G02*
X174300000Y-86325000I0J-200000D01*
G01*
X174300000Y-87775000D01*
G75*
G02*
X174100000Y-87975000I-200000J0D01*
G01*
G37*
G36*
G01*
X173450000Y-87975000D02*
X173000000Y-87975000D01*
G75*
G02*
X172800000Y-87775000I0J200000D01*
G01*
X172800000Y-86325000D01*
G75*
G02*
X173000000Y-86125000I200000J0D01*
G01*
X173450000Y-86125000D01*
G75*
G02*
X173650000Y-86325000I0J-200000D01*
G01*
X173650000Y-87775000D01*
G75*
G02*
X173450000Y-87975000I-200000J0D01*
G01*
G37*
G36*
G01*
X172800000Y-87975000D02*
X172350000Y-87975000D01*
G75*
G02*
X172150000Y-87775000I0J200000D01*
G01*
X172150000Y-86325000D01*
G75*
G02*
X172350000Y-86125000I200000J0D01*
G01*
X172800000Y-86125000D01*
G75*
G02*
X173000000Y-86325000I0J-200000D01*
G01*
X173000000Y-87775000D01*
G75*
G02*
X172800000Y-87975000I-200000J0D01*
G01*
G37*
G36*
G01*
X172150000Y-87975000D02*
X171700000Y-87975000D01*
G75*
G02*
X171500000Y-87775000I0J200000D01*
G01*
X171500000Y-86325000D01*
G75*
G02*
X171700000Y-86125000I200000J0D01*
G01*
X172150000Y-86125000D01*
G75*
G02*
X172350000Y-86325000I0J-200000D01*
G01*
X172350000Y-87775000D01*
G75*
G02*
X172150000Y-87975000I-200000J0D01*
G01*
G37*
G36*
G01*
X171500000Y-87975000D02*
X171050000Y-87975000D01*
G75*
G02*
X170850000Y-87775000I0J200000D01*
G01*
X170850000Y-86325000D01*
G75*
G02*
X171050000Y-86125000I200000J0D01*
G01*
X171500000Y-86125000D01*
G75*
G02*
X171700000Y-86325000I0J-200000D01*
G01*
X171700000Y-87775000D01*
G75*
G02*
X171500000Y-87975000I-200000J0D01*
G01*
G37*
G36*
G01*
X170850000Y-87975000D02*
X170400000Y-87975000D01*
G75*
G02*
X170200000Y-87775000I0J200000D01*
G01*
X170200000Y-86325000D01*
G75*
G02*
X170400000Y-86125000I200000J0D01*
G01*
X170850000Y-86125000D01*
G75*
G02*
X171050000Y-86325000I0J-200000D01*
G01*
X171050000Y-87775000D01*
G75*
G02*
X170850000Y-87975000I-200000J0D01*
G01*
G37*
G36*
G01*
X170200000Y-87975000D02*
X169750000Y-87975000D01*
G75*
G02*
X169550000Y-87775000I0J200000D01*
G01*
X169550000Y-86325000D01*
G75*
G02*
X169750000Y-86125000I200000J0D01*
G01*
X170200000Y-86125000D01*
G75*
G02*
X170400000Y-86325000I0J-200000D01*
G01*
X170400000Y-87775000D01*
G75*
G02*
X170200000Y-87975000I-200000J0D01*
G01*
G37*
G36*
G01*
X169550000Y-87975000D02*
X169100000Y-87975000D01*
G75*
G02*
X168900000Y-87775000I0J200000D01*
G01*
X168900000Y-86325000D01*
G75*
G02*
X169100000Y-86125000I200000J0D01*
G01*
X169550000Y-86125000D01*
G75*
G02*
X169750000Y-86325000I0J-200000D01*
G01*
X169750000Y-87775000D01*
G75*
G02*
X169550000Y-87975000I-200000J0D01*
G01*
G37*
G36*
G01*
X168900000Y-87975000D02*
X168450000Y-87975000D01*
G75*
G02*
X168250000Y-87775000I0J200000D01*
G01*
X168250000Y-86325000D01*
G75*
G02*
X168450000Y-86125000I200000J0D01*
G01*
X168900000Y-86125000D01*
G75*
G02*
X169100000Y-86325000I0J-200000D01*
G01*
X169100000Y-87775000D01*
G75*
G02*
X168900000Y-87975000I-200000J0D01*
G01*
G37*
G36*
G01*
X156750000Y-93875000D02*
X156300000Y-93875000D01*
G75*
G02*
X156100000Y-93675000I0J200000D01*
G01*
X156100000Y-92225000D01*
G75*
G02*
X156300000Y-92025000I200000J0D01*
G01*
X156750000Y-92025000D01*
G75*
G02*
X156950000Y-92225000I0J-200000D01*
G01*
X156950000Y-93675000D01*
G75*
G02*
X156750000Y-93875000I-200000J0D01*
G01*
G37*
G36*
G01*
X157400000Y-93875000D02*
X156950000Y-93875000D01*
G75*
G02*
X156750000Y-93675000I0J200000D01*
G01*
X156750000Y-92225000D01*
G75*
G02*
X156950000Y-92025000I200000J0D01*
G01*
X157400000Y-92025000D01*
G75*
G02*
X157600000Y-92225000I0J-200000D01*
G01*
X157600000Y-93675000D01*
G75*
G02*
X157400000Y-93875000I-200000J0D01*
G01*
G37*
G36*
G01*
X158050000Y-93875000D02*
X157600000Y-93875000D01*
G75*
G02*
X157400000Y-93675000I0J200000D01*
G01*
X157400000Y-92225000D01*
G75*
G02*
X157600000Y-92025000I200000J0D01*
G01*
X158050000Y-92025000D01*
G75*
G02*
X158250000Y-92225000I0J-200000D01*
G01*
X158250000Y-93675000D01*
G75*
G02*
X158050000Y-93875000I-200000J0D01*
G01*
G37*
G36*
G01*
X158700000Y-93875000D02*
X158250000Y-93875000D01*
G75*
G02*
X158050000Y-93675000I0J200000D01*
G01*
X158050000Y-92225000D01*
G75*
G02*
X158250000Y-92025000I200000J0D01*
G01*
X158700000Y-92025000D01*
G75*
G02*
X158900000Y-92225000I0J-200000D01*
G01*
X158900000Y-93675000D01*
G75*
G02*
X158700000Y-93875000I-200000J0D01*
G01*
G37*
G36*
G01*
X159350000Y-93875000D02*
X158900000Y-93875000D01*
G75*
G02*
X158700000Y-93675000I0J200000D01*
G01*
X158700000Y-92225000D01*
G75*
G02*
X158900000Y-92025000I200000J0D01*
G01*
X159350000Y-92025000D01*
G75*
G02*
X159550000Y-92225000I0J-200000D01*
G01*
X159550000Y-93675000D01*
G75*
G02*
X159350000Y-93875000I-200000J0D01*
G01*
G37*
G36*
G01*
X160000000Y-93875000D02*
X159550000Y-93875000D01*
G75*
G02*
X159350000Y-93675000I0J200000D01*
G01*
X159350000Y-92225000D01*
G75*
G02*
X159550000Y-92025000I200000J0D01*
G01*
X160000000Y-92025000D01*
G75*
G02*
X160200000Y-92225000I0J-200000D01*
G01*
X160200000Y-93675000D01*
G75*
G02*
X160000000Y-93875000I-200000J0D01*
G01*
G37*
G36*
G01*
X160650000Y-93875000D02*
X160200000Y-93875000D01*
G75*
G02*
X160000000Y-93675000I0J200000D01*
G01*
X160000000Y-92225000D01*
G75*
G02*
X160200000Y-92025000I200000J0D01*
G01*
X160650000Y-92025000D01*
G75*
G02*
X160850000Y-92225000I0J-200000D01*
G01*
X160850000Y-93675000D01*
G75*
G02*
X160650000Y-93875000I-200000J0D01*
G01*
G37*
G36*
G01*
X161300000Y-93875000D02*
X160850000Y-93875000D01*
G75*
G02*
X160650000Y-93675000I0J200000D01*
G01*
X160650000Y-92225000D01*
G75*
G02*
X160850000Y-92025000I200000J0D01*
G01*
X161300000Y-92025000D01*
G75*
G02*
X161500000Y-92225000I0J-200000D01*
G01*
X161500000Y-93675000D01*
G75*
G02*
X161300000Y-93875000I-200000J0D01*
G01*
G37*
G36*
G01*
X161950000Y-93875000D02*
X161500000Y-93875000D01*
G75*
G02*
X161300000Y-93675000I0J200000D01*
G01*
X161300000Y-92225000D01*
G75*
G02*
X161500000Y-92025000I200000J0D01*
G01*
X161950000Y-92025000D01*
G75*
G02*
X162150000Y-92225000I0J-200000D01*
G01*
X162150000Y-93675000D01*
G75*
G02*
X161950000Y-93875000I-200000J0D01*
G01*
G37*
G36*
G01*
X162600000Y-93875000D02*
X162150000Y-93875000D01*
G75*
G02*
X161950000Y-93675000I0J200000D01*
G01*
X161950000Y-92225000D01*
G75*
G02*
X162150000Y-92025000I200000J0D01*
G01*
X162600000Y-92025000D01*
G75*
G02*
X162800000Y-92225000I0J-200000D01*
G01*
X162800000Y-93675000D01*
G75*
G02*
X162600000Y-93875000I-200000J0D01*
G01*
G37*
G36*
G01*
X162600000Y-87975000D02*
X162150000Y-87975000D01*
G75*
G02*
X161950000Y-87775000I0J200000D01*
G01*
X161950000Y-86325000D01*
G75*
G02*
X162150000Y-86125000I200000J0D01*
G01*
X162600000Y-86125000D01*
G75*
G02*
X162800000Y-86325000I0J-200000D01*
G01*
X162800000Y-87775000D01*
G75*
G02*
X162600000Y-87975000I-200000J0D01*
G01*
G37*
G36*
G01*
X161950000Y-87975000D02*
X161500000Y-87975000D01*
G75*
G02*
X161300000Y-87775000I0J200000D01*
G01*
X161300000Y-86325000D01*
G75*
G02*
X161500000Y-86125000I200000J0D01*
G01*
X161950000Y-86125000D01*
G75*
G02*
X162150000Y-86325000I0J-200000D01*
G01*
X162150000Y-87775000D01*
G75*
G02*
X161950000Y-87975000I-200000J0D01*
G01*
G37*
G36*
G01*
X161300000Y-87975000D02*
X160850000Y-87975000D01*
G75*
G02*
X160650000Y-87775000I0J200000D01*
G01*
X160650000Y-86325000D01*
G75*
G02*
X160850000Y-86125000I200000J0D01*
G01*
X161300000Y-86125000D01*
G75*
G02*
X161500000Y-86325000I0J-200000D01*
G01*
X161500000Y-87775000D01*
G75*
G02*
X161300000Y-87975000I-200000J0D01*
G01*
G37*
G36*
G01*
X160650000Y-87975000D02*
X160200000Y-87975000D01*
G75*
G02*
X160000000Y-87775000I0J200000D01*
G01*
X160000000Y-86325000D01*
G75*
G02*
X160200000Y-86125000I200000J0D01*
G01*
X160650000Y-86125000D01*
G75*
G02*
X160850000Y-86325000I0J-200000D01*
G01*
X160850000Y-87775000D01*
G75*
G02*
X160650000Y-87975000I-200000J0D01*
G01*
G37*
G36*
G01*
X160000000Y-87975000D02*
X159550000Y-87975000D01*
G75*
G02*
X159350000Y-87775000I0J200000D01*
G01*
X159350000Y-86325000D01*
G75*
G02*
X159550000Y-86125000I200000J0D01*
G01*
X160000000Y-86125000D01*
G75*
G02*
X160200000Y-86325000I0J-200000D01*
G01*
X160200000Y-87775000D01*
G75*
G02*
X160000000Y-87975000I-200000J0D01*
G01*
G37*
G36*
G01*
X159350000Y-87975000D02*
X158900000Y-87975000D01*
G75*
G02*
X158700000Y-87775000I0J200000D01*
G01*
X158700000Y-86325000D01*
G75*
G02*
X158900000Y-86125000I200000J0D01*
G01*
X159350000Y-86125000D01*
G75*
G02*
X159550000Y-86325000I0J-200000D01*
G01*
X159550000Y-87775000D01*
G75*
G02*
X159350000Y-87975000I-200000J0D01*
G01*
G37*
G36*
G01*
X158700000Y-87975000D02*
X158250000Y-87975000D01*
G75*
G02*
X158050000Y-87775000I0J200000D01*
G01*
X158050000Y-86325000D01*
G75*
G02*
X158250000Y-86125000I200000J0D01*
G01*
X158700000Y-86125000D01*
G75*
G02*
X158900000Y-86325000I0J-200000D01*
G01*
X158900000Y-87775000D01*
G75*
G02*
X158700000Y-87975000I-200000J0D01*
G01*
G37*
G36*
G01*
X158050000Y-87975000D02*
X157600000Y-87975000D01*
G75*
G02*
X157400000Y-87775000I0J200000D01*
G01*
X157400000Y-86325000D01*
G75*
G02*
X157600000Y-86125000I200000J0D01*
G01*
X158050000Y-86125000D01*
G75*
G02*
X158250000Y-86325000I0J-200000D01*
G01*
X158250000Y-87775000D01*
G75*
G02*
X158050000Y-87975000I-200000J0D01*
G01*
G37*
G36*
G01*
X157400000Y-87975000D02*
X156950000Y-87975000D01*
G75*
G02*
X156750000Y-87775000I0J200000D01*
G01*
X156750000Y-86325000D01*
G75*
G02*
X156950000Y-86125000I200000J0D01*
G01*
X157400000Y-86125000D01*
G75*
G02*
X157600000Y-86325000I0J-200000D01*
G01*
X157600000Y-87775000D01*
G75*
G02*
X157400000Y-87975000I-200000J0D01*
G01*
G37*
G36*
G01*
X156750000Y-87975000D02*
X156300000Y-87975000D01*
G75*
G02*
X156100000Y-87775000I0J200000D01*
G01*
X156100000Y-86325000D01*
G75*
G02*
X156300000Y-86125000I200000J0D01*
G01*
X156750000Y-86125000D01*
G75*
G02*
X156950000Y-86325000I0J-200000D01*
G01*
X156950000Y-87775000D01*
G75*
G02*
X156750000Y-87975000I-200000J0D01*
G01*
G37*
G36*
G01*
X199856203Y-73668446D02*
X200035808Y-73488841D01*
G75*
G02*
X200318650Y-73488841I141421J-141421D01*
G01*
X201037071Y-74207262D01*
G75*
G02*
X201037071Y-74490104I-141421J-141421D01*
G01*
X200857466Y-74669709D01*
G75*
G02*
X200574624Y-74669709I-141421J141421D01*
G01*
X199856203Y-73951288D01*
G75*
G02*
X199856203Y-73668446I141421J141421D01*
G01*
G37*
G36*
G01*
X191378841Y-82145808D02*
X191558446Y-81966203D01*
G75*
G02*
X191841288Y-81966203I141421J-141421D01*
G01*
X192559709Y-82684624D01*
G75*
G02*
X192559709Y-82967466I-141421J-141421D01*
G01*
X192380104Y-83147071D01*
G75*
G02*
X192097262Y-83147071I-141421J141421D01*
G01*
X191378841Y-82428650D01*
G75*
G02*
X191378841Y-82145808I141421J141421D01*
G01*
G37*
G36*
G01*
X191738052Y-81786598D02*
X191917657Y-81606993D01*
G75*
G02*
X192200499Y-81606993I141421J-141421D01*
G01*
X192918920Y-82325414D01*
G75*
G02*
X192918920Y-82608256I-141421J-141421D01*
G01*
X192739315Y-82787861D01*
G75*
G02*
X192456473Y-82787861I-141421J141421D01*
G01*
X191738052Y-82069440D01*
G75*
G02*
X191738052Y-81786598I141421J141421D01*
G01*
G37*
G36*
G01*
X192079301Y-81445348D02*
X192258906Y-81265743D01*
G75*
G02*
X192541748Y-81265743I141421J-141421D01*
G01*
X193260169Y-81984164D01*
G75*
G02*
X193260169Y-82267006I-141421J-141421D01*
G01*
X193080564Y-82446611D01*
G75*
G02*
X192797722Y-82446611I-141421J141421D01*
G01*
X192079301Y-81728190D01*
G75*
G02*
X192079301Y-81445348I141421J141421D01*
G01*
G37*
G36*
G01*
X192438512Y-81086138D02*
X192618117Y-80906533D01*
G75*
G02*
X192900959Y-80906533I141421J-141421D01*
G01*
X193619380Y-81624954D01*
G75*
G02*
X193619380Y-81907796I-141421J-141421D01*
G01*
X193439775Y-82087401D01*
G75*
G02*
X193156933Y-82087401I-141421J141421D01*
G01*
X192438512Y-81368980D01*
G75*
G02*
X192438512Y-81086138I141421J141421D01*
G01*
G37*
G36*
G01*
X192797722Y-80726928D02*
X192977327Y-80547323D01*
G75*
G02*
X193260169Y-80547323I141421J-141421D01*
G01*
X193978590Y-81265744D01*
G75*
G02*
X193978590Y-81548586I-141421J-141421D01*
G01*
X193798985Y-81728191D01*
G75*
G02*
X193516143Y-81728191I-141421J141421D01*
G01*
X192797722Y-81009770D01*
G75*
G02*
X192797722Y-80726928I141421J141421D01*
G01*
G37*
G36*
G01*
X193138972Y-80385678D02*
X193318577Y-80206073D01*
G75*
G02*
X193601419Y-80206073I141421J-141421D01*
G01*
X194319840Y-80924494D01*
G75*
G02*
X194319840Y-81207336I-141421J-141421D01*
G01*
X194140235Y-81386941D01*
G75*
G02*
X193857393Y-81386941I-141421J141421D01*
G01*
X193138972Y-80668520D01*
G75*
G02*
X193138972Y-80385678I141421J141421D01*
G01*
G37*
G36*
G01*
X193498182Y-80026468D02*
X193677787Y-79846863D01*
G75*
G02*
X193960629Y-79846863I141421J-141421D01*
G01*
X194679050Y-80565284D01*
G75*
G02*
X194679050Y-80848126I-141421J-141421D01*
G01*
X194499445Y-81027731D01*
G75*
G02*
X194216603Y-81027731I-141421J141421D01*
G01*
X193498182Y-80309310D01*
G75*
G02*
X193498182Y-80026468I141421J141421D01*
G01*
G37*
G36*
G01*
X193857392Y-79667257D02*
X194036997Y-79487652D01*
G75*
G02*
X194319839Y-79487652I141421J-141421D01*
G01*
X195038260Y-80206073D01*
G75*
G02*
X195038260Y-80488915I-141421J-141421D01*
G01*
X194858655Y-80668520D01*
G75*
G02*
X194575813Y-80668520I-141421J141421D01*
G01*
X193857392Y-79950099D01*
G75*
G02*
X193857392Y-79667257I141421J141421D01*
G01*
G37*
G36*
G01*
X194198642Y-79326008D02*
X194378247Y-79146403D01*
G75*
G02*
X194661089Y-79146403I141421J-141421D01*
G01*
X195379510Y-79864824D01*
G75*
G02*
X195379510Y-80147666I-141421J-141421D01*
G01*
X195199905Y-80327271D01*
G75*
G02*
X194917063Y-80327271I-141421J141421D01*
G01*
X194198642Y-79608850D01*
G75*
G02*
X194198642Y-79326008I141421J141421D01*
G01*
G37*
G36*
G01*
X194557852Y-78966797D02*
X194737457Y-78787192D01*
G75*
G02*
X195020299Y-78787192I141421J-141421D01*
G01*
X195738720Y-79505613D01*
G75*
G02*
X195738720Y-79788455I-141421J-141421D01*
G01*
X195559115Y-79968060D01*
G75*
G02*
X195276273Y-79968060I-141421J141421D01*
G01*
X194557852Y-79249639D01*
G75*
G02*
X194557852Y-78966797I141421J141421D01*
G01*
G37*
G36*
G01*
X194917062Y-78607587D02*
X195096667Y-78427982D01*
G75*
G02*
X195379509Y-78427982I141421J-141421D01*
G01*
X196097930Y-79146403D01*
G75*
G02*
X196097930Y-79429245I-141421J-141421D01*
G01*
X195918325Y-79608850D01*
G75*
G02*
X195635483Y-79608850I-141421J141421D01*
G01*
X194917062Y-78890429D01*
G75*
G02*
X194917062Y-78607587I141421J141421D01*
G01*
G37*
G36*
G01*
X195276273Y-78248377D02*
X195455878Y-78068772D01*
G75*
G02*
X195738720Y-78068772I141421J-141421D01*
G01*
X196457141Y-78787193D01*
G75*
G02*
X196457141Y-79070035I-141421J-141421D01*
G01*
X196277536Y-79249640D01*
G75*
G02*
X195994694Y-79249640I-141421J141421D01*
G01*
X195276273Y-78531219D01*
G75*
G02*
X195276273Y-78248377I141421J141421D01*
G01*
G37*
G36*
G01*
X195617522Y-77907127D02*
X195797127Y-77727522D01*
G75*
G02*
X196079969Y-77727522I141421J-141421D01*
G01*
X196798390Y-78445943D01*
G75*
G02*
X196798390Y-78728785I-141421J-141421D01*
G01*
X196618785Y-78908390D01*
G75*
G02*
X196335943Y-78908390I-141421J141421D01*
G01*
X195617522Y-78189969D01*
G75*
G02*
X195617522Y-77907127I141421J141421D01*
G01*
G37*
G36*
G01*
X195976732Y-77547917D02*
X196156337Y-77368312D01*
G75*
G02*
X196439179Y-77368312I141421J-141421D01*
G01*
X197157600Y-78086733D01*
G75*
G02*
X197157600Y-78369575I-141421J-141421D01*
G01*
X196977995Y-78549180D01*
G75*
G02*
X196695153Y-78549180I-141421J141421D01*
G01*
X195976732Y-77830759D01*
G75*
G02*
X195976732Y-77547917I141421J141421D01*
G01*
G37*
G36*
G01*
X196335943Y-77188707D02*
X196515548Y-77009102D01*
G75*
G02*
X196798390Y-77009102I141421J-141421D01*
G01*
X197516811Y-77727523D01*
G75*
G02*
X197516811Y-78010365I-141421J-141421D01*
G01*
X197337206Y-78189970D01*
G75*
G02*
X197054364Y-78189970I-141421J141421D01*
G01*
X196335943Y-77471549D01*
G75*
G02*
X196335943Y-77188707I141421J141421D01*
G01*
G37*
G36*
G01*
X196677192Y-76847457D02*
X196856797Y-76667852D01*
G75*
G02*
X197139639Y-76667852I141421J-141421D01*
G01*
X197858060Y-77386273D01*
G75*
G02*
X197858060Y-77669115I-141421J-141421D01*
G01*
X197678455Y-77848720D01*
G75*
G02*
X197395613Y-77848720I-141421J141421D01*
G01*
X196677192Y-77130299D01*
G75*
G02*
X196677192Y-76847457I141421J141421D01*
G01*
G37*
G36*
G01*
X197036403Y-76488247D02*
X197216008Y-76308642D01*
G75*
G02*
X197498850Y-76308642I141421J-141421D01*
G01*
X198217271Y-77027063D01*
G75*
G02*
X198217271Y-77309905I-141421J-141421D01*
G01*
X198037666Y-77489510D01*
G75*
G02*
X197754824Y-77489510I-141421J141421D01*
G01*
X197036403Y-76771089D01*
G75*
G02*
X197036403Y-76488247I141421J141421D01*
G01*
G37*
G36*
G01*
X197395613Y-76129037D02*
X197575218Y-75949432D01*
G75*
G02*
X197858060Y-75949432I141421J-141421D01*
G01*
X198576481Y-76667853D01*
G75*
G02*
X198576481Y-76950695I-141421J-141421D01*
G01*
X198396876Y-77130300D01*
G75*
G02*
X198114034Y-77130300I-141421J141421D01*
G01*
X197395613Y-76411879D01*
G75*
G02*
X197395613Y-76129037I141421J141421D01*
G01*
G37*
G36*
G01*
X197736863Y-75787787D02*
X197916468Y-75608182D01*
G75*
G02*
X198199310Y-75608182I141421J-141421D01*
G01*
X198917731Y-76326603D01*
G75*
G02*
X198917731Y-76609445I-141421J-141421D01*
G01*
X198738126Y-76789050D01*
G75*
G02*
X198455284Y-76789050I-141421J141421D01*
G01*
X197736863Y-76070629D01*
G75*
G02*
X197736863Y-75787787I141421J141421D01*
G01*
G37*
G36*
G01*
X198096073Y-75428577D02*
X198275678Y-75248972D01*
G75*
G02*
X198558520Y-75248972I141421J-141421D01*
G01*
X199276941Y-75967393D01*
G75*
G02*
X199276941Y-76250235I-141421J-141421D01*
G01*
X199097336Y-76429840D01*
G75*
G02*
X198814494Y-76429840I-141421J141421D01*
G01*
X198096073Y-75711419D01*
G75*
G02*
X198096073Y-75428577I141421J141421D01*
G01*
G37*
G36*
G01*
X198455283Y-75069366D02*
X198634888Y-74889761D01*
G75*
G02*
X198917730Y-74889761I141421J-141421D01*
G01*
X199636151Y-75608182D01*
G75*
G02*
X199636151Y-75891024I-141421J-141421D01*
G01*
X199456546Y-76070629D01*
G75*
G02*
X199173704Y-76070629I-141421J141421D01*
G01*
X198455283Y-75352208D01*
G75*
G02*
X198455283Y-75069366I141421J141421D01*
G01*
G37*
G36*
G01*
X198796533Y-74728117D02*
X198976138Y-74548512D01*
G75*
G02*
X199258980Y-74548512I141421J-141421D01*
G01*
X199977401Y-75266933D01*
G75*
G02*
X199977401Y-75549775I-141421J-141421D01*
G01*
X199797796Y-75729380D01*
G75*
G02*
X199514954Y-75729380I-141421J141421D01*
G01*
X198796533Y-75010959D01*
G75*
G02*
X198796533Y-74728117I141421J141421D01*
G01*
G37*
G36*
G01*
X199155743Y-74368906D02*
X199335348Y-74189301D01*
G75*
G02*
X199618190Y-74189301I141421J-141421D01*
G01*
X200336611Y-74907722D01*
G75*
G02*
X200336611Y-75190564I-141421J-141421D01*
G01*
X200157006Y-75370169D01*
G75*
G02*
X199874164Y-75370169I-141421J141421D01*
G01*
X199155743Y-74651748D01*
G75*
G02*
X199155743Y-74368906I141421J141421D01*
G01*
G37*
G36*
G01*
X199514953Y-74009696D02*
X199694558Y-73830091D01*
G75*
G02*
X199977400Y-73830091I141421J-141421D01*
G01*
X200695821Y-74548512D01*
G75*
G02*
X200695821Y-74831354I-141421J-141421D01*
G01*
X200516216Y-75010959D01*
G75*
G02*
X200233374Y-75010959I-141421J141421D01*
G01*
X199514953Y-74292538D01*
G75*
G02*
X199514953Y-74009696I141421J141421D01*
G01*
G37*
G36*
G01*
X188900291Y-82684623D02*
X189618712Y-81966203D01*
G75*
G02*
X189901554Y-81966203I141421J-141421D01*
G01*
X190081159Y-82145808D01*
G75*
G02*
X190081159Y-82428650I-141421J-141421D01*
G01*
X189362738Y-83147071D01*
G75*
G02*
X189079896Y-83147071I-141421J141421D01*
G01*
X188900291Y-82967466D01*
G75*
G02*
X188900291Y-82684624I141421J141421D01*
G01*
G37*
G36*
G01*
X180422929Y-74207261D02*
X181141350Y-73488841D01*
G75*
G02*
X181424192Y-73488841I141421J-141421D01*
G01*
X181603797Y-73668446D01*
G75*
G02*
X181603797Y-73951288I-141421J-141421D01*
G01*
X180885376Y-74669709D01*
G75*
G02*
X180602534Y-74669709I-141421J141421D01*
G01*
X180422929Y-74490104D01*
G75*
G02*
X180422929Y-74207262I141421J141421D01*
G01*
G37*
G36*
G01*
X180782139Y-74566472D02*
X181500560Y-73848052D01*
G75*
G02*
X181783402Y-73848052I141421J-141421D01*
G01*
X181963007Y-74027657D01*
G75*
G02*
X181963007Y-74310499I-141421J-141421D01*
G01*
X181244586Y-75028920D01*
G75*
G02*
X180961744Y-75028920I-141421J141421D01*
G01*
X180782139Y-74849315D01*
G75*
G02*
X180782139Y-74566473I141421J141421D01*
G01*
G37*
G36*
G01*
X181123389Y-74907721D02*
X181841810Y-74189301D01*
G75*
G02*
X182124652Y-74189301I141421J-141421D01*
G01*
X182304257Y-74368906D01*
G75*
G02*
X182304257Y-74651748I-141421J-141421D01*
G01*
X181585836Y-75370169D01*
G75*
G02*
X181302994Y-75370169I-141421J141421D01*
G01*
X181123389Y-75190564D01*
G75*
G02*
X181123389Y-74907722I141421J141421D01*
G01*
G37*
G36*
G01*
X181482599Y-75266932D02*
X182201020Y-74548512D01*
G75*
G02*
X182483862Y-74548512I141421J-141421D01*
G01*
X182663467Y-74728117D01*
G75*
G02*
X182663467Y-75010959I-141421J-141421D01*
G01*
X181945046Y-75729380D01*
G75*
G02*
X181662204Y-75729380I-141421J141421D01*
G01*
X181482599Y-75549775D01*
G75*
G02*
X181482599Y-75266933I141421J141421D01*
G01*
G37*
G36*
G01*
X181841809Y-75626142D02*
X182560230Y-74907722D01*
G75*
G02*
X182843072Y-74907722I141421J-141421D01*
G01*
X183022677Y-75087327D01*
G75*
G02*
X183022677Y-75370169I-141421J-141421D01*
G01*
X182304256Y-76088590D01*
G75*
G02*
X182021414Y-76088590I-141421J141421D01*
G01*
X181841809Y-75908985D01*
G75*
G02*
X181841809Y-75626143I141421J141421D01*
G01*
G37*
G36*
G01*
X182183059Y-75967392D02*
X182901480Y-75248972D01*
G75*
G02*
X183184322Y-75248972I141421J-141421D01*
G01*
X183363927Y-75428577D01*
G75*
G02*
X183363927Y-75711419I-141421J-141421D01*
G01*
X182645506Y-76429840D01*
G75*
G02*
X182362664Y-76429840I-141421J141421D01*
G01*
X182183059Y-76250235D01*
G75*
G02*
X182183059Y-75967393I141421J141421D01*
G01*
G37*
G36*
G01*
X182542269Y-76326602D02*
X183260690Y-75608182D01*
G75*
G02*
X183543532Y-75608182I141421J-141421D01*
G01*
X183723137Y-75787787D01*
G75*
G02*
X183723137Y-76070629I-141421J-141421D01*
G01*
X183004716Y-76789050D01*
G75*
G02*
X182721874Y-76789050I-141421J141421D01*
G01*
X182542269Y-76609445D01*
G75*
G02*
X182542269Y-76326603I141421J141421D01*
G01*
G37*
G36*
G01*
X182901480Y-76685812D02*
X183619901Y-75967392D01*
G75*
G02*
X183902743Y-75967392I141421J-141421D01*
G01*
X184082348Y-76146997D01*
G75*
G02*
X184082348Y-76429839I-141421J-141421D01*
G01*
X183363927Y-77148260D01*
G75*
G02*
X183081085Y-77148260I-141421J141421D01*
G01*
X182901480Y-76968655D01*
G75*
G02*
X182901480Y-76685813I141421J141421D01*
G01*
G37*
G36*
G01*
X183242729Y-77027062D02*
X183961150Y-76308642D01*
G75*
G02*
X184243992Y-76308642I141421J-141421D01*
G01*
X184423597Y-76488247D01*
G75*
G02*
X184423597Y-76771089I-141421J-141421D01*
G01*
X183705176Y-77489510D01*
G75*
G02*
X183422334Y-77489510I-141421J141421D01*
G01*
X183242729Y-77309905D01*
G75*
G02*
X183242729Y-77027063I141421J141421D01*
G01*
G37*
G36*
G01*
X183601940Y-77386272D02*
X184320361Y-76667852D01*
G75*
G02*
X184603203Y-76667852I141421J-141421D01*
G01*
X184782808Y-76847457D01*
G75*
G02*
X184782808Y-77130299I-141421J-141421D01*
G01*
X184064387Y-77848720D01*
G75*
G02*
X183781545Y-77848720I-141421J141421D01*
G01*
X183601940Y-77669115D01*
G75*
G02*
X183601940Y-77386273I141421J141421D01*
G01*
G37*
G36*
G01*
X183961150Y-77745482D02*
X184679571Y-77027062D01*
G75*
G02*
X184962413Y-77027062I141421J-141421D01*
G01*
X185142018Y-77206667D01*
G75*
G02*
X185142018Y-77489509I-141421J-141421D01*
G01*
X184423597Y-78207930D01*
G75*
G02*
X184140755Y-78207930I-141421J141421D01*
G01*
X183961150Y-78028325D01*
G75*
G02*
X183961150Y-77745483I141421J141421D01*
G01*
G37*
G36*
G01*
X184320360Y-78104693D02*
X185038781Y-77386273D01*
G75*
G02*
X185321623Y-77386273I141421J-141421D01*
G01*
X185501228Y-77565878D01*
G75*
G02*
X185501228Y-77848720I-141421J-141421D01*
G01*
X184782807Y-78567141D01*
G75*
G02*
X184499965Y-78567141I-141421J141421D01*
G01*
X184320360Y-78387536D01*
G75*
G02*
X184320360Y-78104694I141421J141421D01*
G01*
G37*
G36*
G01*
X184661610Y-78445942D02*
X185380031Y-77727522D01*
G75*
G02*
X185662873Y-77727522I141421J-141421D01*
G01*
X185842478Y-77907127D01*
G75*
G02*
X185842478Y-78189969I-141421J-141421D01*
G01*
X185124057Y-78908390D01*
G75*
G02*
X184841215Y-78908390I-141421J141421D01*
G01*
X184661610Y-78728785D01*
G75*
G02*
X184661610Y-78445943I141421J141421D01*
G01*
G37*
G36*
G01*
X185020820Y-78805152D02*
X185739241Y-78086732D01*
G75*
G02*
X186022083Y-78086732I141421J-141421D01*
G01*
X186201688Y-78266337D01*
G75*
G02*
X186201688Y-78549179I-141421J-141421D01*
G01*
X185483267Y-79267600D01*
G75*
G02*
X185200425Y-79267600I-141421J141421D01*
G01*
X185020820Y-79087995D01*
G75*
G02*
X185020820Y-78805153I141421J141421D01*
G01*
G37*
G36*
G01*
X185380030Y-79164363D02*
X186098451Y-78445943D01*
G75*
G02*
X186381293Y-78445943I141421J-141421D01*
G01*
X186560898Y-78625548D01*
G75*
G02*
X186560898Y-78908390I-141421J-141421D01*
G01*
X185842477Y-79626811D01*
G75*
G02*
X185559635Y-79626811I-141421J141421D01*
G01*
X185380030Y-79447206D01*
G75*
G02*
X185380030Y-79164364I141421J141421D01*
G01*
G37*
G36*
G01*
X185721280Y-79505612D02*
X186439701Y-78787192D01*
G75*
G02*
X186722543Y-78787192I141421J-141421D01*
G01*
X186902148Y-78966797D01*
G75*
G02*
X186902148Y-79249639I-141421J-141421D01*
G01*
X186183727Y-79968060D01*
G75*
G02*
X185900885Y-79968060I-141421J141421D01*
G01*
X185721280Y-79788455D01*
G75*
G02*
X185721280Y-79505613I141421J141421D01*
G01*
G37*
G36*
G01*
X186080490Y-79864823D02*
X186798911Y-79146403D01*
G75*
G02*
X187081753Y-79146403I141421J-141421D01*
G01*
X187261358Y-79326008D01*
G75*
G02*
X187261358Y-79608850I-141421J-141421D01*
G01*
X186542937Y-80327271D01*
G75*
G02*
X186260095Y-80327271I-141421J141421D01*
G01*
X186080490Y-80147666D01*
G75*
G02*
X186080490Y-79864824I141421J141421D01*
G01*
G37*
G36*
G01*
X186439700Y-80224033D02*
X187158121Y-79505613D01*
G75*
G02*
X187440963Y-79505613I141421J-141421D01*
G01*
X187620568Y-79685218D01*
G75*
G02*
X187620568Y-79968060I-141421J-141421D01*
G01*
X186902147Y-80686481D01*
G75*
G02*
X186619305Y-80686481I-141421J141421D01*
G01*
X186439700Y-80506876D01*
G75*
G02*
X186439700Y-80224034I141421J141421D01*
G01*
G37*
G36*
G01*
X186780950Y-80565283D02*
X187499371Y-79846863D01*
G75*
G02*
X187782213Y-79846863I141421J-141421D01*
G01*
X187961818Y-80026468D01*
G75*
G02*
X187961818Y-80309310I-141421J-141421D01*
G01*
X187243397Y-81027731D01*
G75*
G02*
X186960555Y-81027731I-141421J141421D01*
G01*
X186780950Y-80848126D01*
G75*
G02*
X186780950Y-80565284I141421J141421D01*
G01*
G37*
G36*
G01*
X187140160Y-80924493D02*
X187858581Y-80206073D01*
G75*
G02*
X188141423Y-80206073I141421J-141421D01*
G01*
X188321028Y-80385678D01*
G75*
G02*
X188321028Y-80668520I-141421J-141421D01*
G01*
X187602607Y-81386941D01*
G75*
G02*
X187319765Y-81386941I-141421J141421D01*
G01*
X187140160Y-81207336D01*
G75*
G02*
X187140160Y-80924494I141421J141421D01*
G01*
G37*
G36*
G01*
X187499371Y-81283703D02*
X188217792Y-80565283D01*
G75*
G02*
X188500634Y-80565283I141421J-141421D01*
G01*
X188680239Y-80744888D01*
G75*
G02*
X188680239Y-81027730I-141421J-141421D01*
G01*
X187961818Y-81746151D01*
G75*
G02*
X187678976Y-81746151I-141421J141421D01*
G01*
X187499371Y-81566546D01*
G75*
G02*
X187499371Y-81283704I141421J141421D01*
G01*
G37*
G36*
G01*
X187840620Y-81624953D02*
X188559041Y-80906533D01*
G75*
G02*
X188841883Y-80906533I141421J-141421D01*
G01*
X189021488Y-81086138D01*
G75*
G02*
X189021488Y-81368980I-141421J-141421D01*
G01*
X188303067Y-82087401D01*
G75*
G02*
X188020225Y-82087401I-141421J141421D01*
G01*
X187840620Y-81907796D01*
G75*
G02*
X187840620Y-81624954I141421J141421D01*
G01*
G37*
G36*
G01*
X188199831Y-81984163D02*
X188918252Y-81265743D01*
G75*
G02*
X189201094Y-81265743I141421J-141421D01*
G01*
X189380699Y-81445348D01*
G75*
G02*
X189380699Y-81728190I-141421J-141421D01*
G01*
X188662278Y-82446611D01*
G75*
G02*
X188379436Y-82446611I-141421J141421D01*
G01*
X188199831Y-82267006D01*
G75*
G02*
X188199831Y-81984164I141421J141421D01*
G01*
G37*
G36*
G01*
X188559041Y-82343373D02*
X189277462Y-81624953D01*
G75*
G02*
X189560304Y-81624953I141421J-141421D01*
G01*
X189739909Y-81804558D01*
G75*
G02*
X189739909Y-82087400I-141421J-141421D01*
G01*
X189021488Y-82805821D01*
G75*
G02*
X188738646Y-82805821I-141421J141421D01*
G01*
X188559041Y-82626216D01*
G75*
G02*
X188559041Y-82343374I141421J141421D01*
G01*
G37*
G36*
G01*
X199856203Y-71728711D02*
X200574624Y-71010291D01*
G75*
G02*
X200857466Y-71010291I141421J-141421D01*
G01*
X201037071Y-71189896D01*
G75*
G02*
X201037071Y-71472738I-141421J-141421D01*
G01*
X200318650Y-72191159D01*
G75*
G02*
X200035808Y-72191159I-141421J141421D01*
G01*
X199856203Y-72011554D01*
G75*
G02*
X199856203Y-71728712I141421J141421D01*
G01*
G37*
G36*
G01*
X199496993Y-71369500D02*
X200215414Y-70651080D01*
G75*
G02*
X200498256Y-70651080I141421J-141421D01*
G01*
X200677861Y-70830685D01*
G75*
G02*
X200677861Y-71113527I-141421J-141421D01*
G01*
X199959440Y-71831948D01*
G75*
G02*
X199676598Y-71831948I-141421J141421D01*
G01*
X199496993Y-71652343D01*
G75*
G02*
X199496993Y-71369501I141421J141421D01*
G01*
G37*
G36*
G01*
X199155743Y-71028251D02*
X199874164Y-70309831D01*
G75*
G02*
X200157006Y-70309831I141421J-141421D01*
G01*
X200336611Y-70489436D01*
G75*
G02*
X200336611Y-70772278I-141421J-141421D01*
G01*
X199618190Y-71490699D01*
G75*
G02*
X199335348Y-71490699I-141421J141421D01*
G01*
X199155743Y-71311094D01*
G75*
G02*
X199155743Y-71028252I141421J141421D01*
G01*
G37*
G36*
G01*
X198796533Y-70669040D02*
X199514954Y-69950620D01*
G75*
G02*
X199797796Y-69950620I141421J-141421D01*
G01*
X199977401Y-70130225D01*
G75*
G02*
X199977401Y-70413067I-141421J-141421D01*
G01*
X199258980Y-71131488D01*
G75*
G02*
X198976138Y-71131488I-141421J141421D01*
G01*
X198796533Y-70951883D01*
G75*
G02*
X198796533Y-70669041I141421J141421D01*
G01*
G37*
G36*
G01*
X198437323Y-70309830D02*
X199155744Y-69591410D01*
G75*
G02*
X199438586Y-69591410I141421J-141421D01*
G01*
X199618191Y-69771015D01*
G75*
G02*
X199618191Y-70053857I-141421J-141421D01*
G01*
X198899770Y-70772278D01*
G75*
G02*
X198616928Y-70772278I-141421J141421D01*
G01*
X198437323Y-70592673D01*
G75*
G02*
X198437323Y-70309831I141421J141421D01*
G01*
G37*
G36*
G01*
X198096073Y-69968580D02*
X198814494Y-69250160D01*
G75*
G02*
X199097336Y-69250160I141421J-141421D01*
G01*
X199276941Y-69429765D01*
G75*
G02*
X199276941Y-69712607I-141421J-141421D01*
G01*
X198558520Y-70431028D01*
G75*
G02*
X198275678Y-70431028I-141421J141421D01*
G01*
X198096073Y-70251423D01*
G75*
G02*
X198096073Y-69968581I141421J141421D01*
G01*
G37*
G36*
G01*
X197736863Y-69609370D02*
X198455284Y-68890950D01*
G75*
G02*
X198738126Y-68890950I141421J-141421D01*
G01*
X198917731Y-69070555D01*
G75*
G02*
X198917731Y-69353397I-141421J-141421D01*
G01*
X198199310Y-70071818D01*
G75*
G02*
X197916468Y-70071818I-141421J141421D01*
G01*
X197736863Y-69892213D01*
G75*
G02*
X197736863Y-69609371I141421J141421D01*
G01*
G37*
G36*
G01*
X197377652Y-69250160D02*
X198096073Y-68531740D01*
G75*
G02*
X198378915Y-68531740I141421J-141421D01*
G01*
X198558520Y-68711345D01*
G75*
G02*
X198558520Y-68994187I-141421J-141421D01*
G01*
X197840099Y-69712608D01*
G75*
G02*
X197557257Y-69712608I-141421J141421D01*
G01*
X197377652Y-69533003D01*
G75*
G02*
X197377652Y-69250161I141421J141421D01*
G01*
G37*
G36*
G01*
X197036403Y-68908910D02*
X197754824Y-68190490D01*
G75*
G02*
X198037666Y-68190490I141421J-141421D01*
G01*
X198217271Y-68370095D01*
G75*
G02*
X198217271Y-68652937I-141421J-141421D01*
G01*
X197498850Y-69371358D01*
G75*
G02*
X197216008Y-69371358I-141421J141421D01*
G01*
X197036403Y-69191753D01*
G75*
G02*
X197036403Y-68908911I141421J141421D01*
G01*
G37*
G36*
G01*
X196677192Y-68549700D02*
X197395613Y-67831280D01*
G75*
G02*
X197678455Y-67831280I141421J-141421D01*
G01*
X197858060Y-68010885D01*
G75*
G02*
X197858060Y-68293727I-141421J-141421D01*
G01*
X197139639Y-69012148D01*
G75*
G02*
X196856797Y-69012148I-141421J141421D01*
G01*
X196677192Y-68832543D01*
G75*
G02*
X196677192Y-68549701I141421J141421D01*
G01*
G37*
G36*
G01*
X196317982Y-68190490D02*
X197036403Y-67472070D01*
G75*
G02*
X197319245Y-67472070I141421J-141421D01*
G01*
X197498850Y-67651675D01*
G75*
G02*
X197498850Y-67934517I-141421J-141421D01*
G01*
X196780429Y-68652938D01*
G75*
G02*
X196497587Y-68652938I-141421J141421D01*
G01*
X196317982Y-68473333D01*
G75*
G02*
X196317982Y-68190491I141421J141421D01*
G01*
G37*
G36*
G01*
X195958772Y-67831279D02*
X196677193Y-67112859D01*
G75*
G02*
X196960035Y-67112859I141421J-141421D01*
G01*
X197139640Y-67292464D01*
G75*
G02*
X197139640Y-67575306I-141421J-141421D01*
G01*
X196421219Y-68293727D01*
G75*
G02*
X196138377Y-68293727I-141421J141421D01*
G01*
X195958772Y-68114122D01*
G75*
G02*
X195958772Y-67831280I141421J141421D01*
G01*
G37*
G36*
G01*
X195617522Y-67490030D02*
X196335943Y-66771610D01*
G75*
G02*
X196618785Y-66771610I141421J-141421D01*
G01*
X196798390Y-66951215D01*
G75*
G02*
X196798390Y-67234057I-141421J-141421D01*
G01*
X196079969Y-67952478D01*
G75*
G02*
X195797127Y-67952478I-141421J141421D01*
G01*
X195617522Y-67772873D01*
G75*
G02*
X195617522Y-67490031I141421J141421D01*
G01*
G37*
G36*
G01*
X195258312Y-67130820D02*
X195976733Y-66412400D01*
G75*
G02*
X196259575Y-66412400I141421J-141421D01*
G01*
X196439180Y-66592005D01*
G75*
G02*
X196439180Y-66874847I-141421J-141421D01*
G01*
X195720759Y-67593268D01*
G75*
G02*
X195437917Y-67593268I-141421J141421D01*
G01*
X195258312Y-67413663D01*
G75*
G02*
X195258312Y-67130821I141421J141421D01*
G01*
G37*
G36*
G01*
X194899102Y-66771609D02*
X195617523Y-66053189D01*
G75*
G02*
X195900365Y-66053189I141421J-141421D01*
G01*
X196079970Y-66232794D01*
G75*
G02*
X196079970Y-66515636I-141421J-141421D01*
G01*
X195361549Y-67234057D01*
G75*
G02*
X195078707Y-67234057I-141421J141421D01*
G01*
X194899102Y-67054452D01*
G75*
G02*
X194899102Y-66771610I141421J141421D01*
G01*
G37*
G36*
G01*
X194557852Y-66430360D02*
X195276273Y-65711940D01*
G75*
G02*
X195559115Y-65711940I141421J-141421D01*
G01*
X195738720Y-65891545D01*
G75*
G02*
X195738720Y-66174387I-141421J-141421D01*
G01*
X195020299Y-66892808D01*
G75*
G02*
X194737457Y-66892808I-141421J141421D01*
G01*
X194557852Y-66713203D01*
G75*
G02*
X194557852Y-66430361I141421J141421D01*
G01*
G37*
G36*
G01*
X194198642Y-66071149D02*
X194917063Y-65352729D01*
G75*
G02*
X195199905Y-65352729I141421J-141421D01*
G01*
X195379510Y-65532334D01*
G75*
G02*
X195379510Y-65815176I-141421J-141421D01*
G01*
X194661089Y-66533597D01*
G75*
G02*
X194378247Y-66533597I-141421J141421D01*
G01*
X194198642Y-66353992D01*
G75*
G02*
X194198642Y-66071150I141421J141421D01*
G01*
G37*
G36*
G01*
X193839432Y-65711939D02*
X194557853Y-64993519D01*
G75*
G02*
X194840695Y-64993519I141421J-141421D01*
G01*
X195020300Y-65173124D01*
G75*
G02*
X195020300Y-65455966I-141421J-141421D01*
G01*
X194301879Y-66174387D01*
G75*
G02*
X194019037Y-66174387I-141421J141421D01*
G01*
X193839432Y-65994782D01*
G75*
G02*
X193839432Y-65711940I141421J141421D01*
G01*
G37*
G36*
G01*
X193498182Y-65370689D02*
X194216603Y-64652269D01*
G75*
G02*
X194499445Y-64652269I141421J-141421D01*
G01*
X194679050Y-64831874D01*
G75*
G02*
X194679050Y-65114716I-141421J-141421D01*
G01*
X193960629Y-65833137D01*
G75*
G02*
X193677787Y-65833137I-141421J141421D01*
G01*
X193498182Y-65653532D01*
G75*
G02*
X193498182Y-65370690I141421J141421D01*
G01*
G37*
G36*
G01*
X193138972Y-65011479D02*
X193857393Y-64293059D01*
G75*
G02*
X194140235Y-64293059I141421J-141421D01*
G01*
X194319840Y-64472664D01*
G75*
G02*
X194319840Y-64755506I-141421J-141421D01*
G01*
X193601419Y-65473927D01*
G75*
G02*
X193318577Y-65473927I-141421J141421D01*
G01*
X193138972Y-65294322D01*
G75*
G02*
X193138972Y-65011480I141421J141421D01*
G01*
G37*
G36*
G01*
X192779761Y-64652269D02*
X193498182Y-63933849D01*
G75*
G02*
X193781024Y-63933849I141421J-141421D01*
G01*
X193960629Y-64113454D01*
G75*
G02*
X193960629Y-64396296I-141421J-141421D01*
G01*
X193242208Y-65114717D01*
G75*
G02*
X192959366Y-65114717I-141421J141421D01*
G01*
X192779761Y-64935112D01*
G75*
G02*
X192779761Y-64652270I141421J141421D01*
G01*
G37*
G36*
G01*
X192438512Y-64311019D02*
X193156933Y-63592599D01*
G75*
G02*
X193439775Y-63592599I141421J-141421D01*
G01*
X193619380Y-63772204D01*
G75*
G02*
X193619380Y-64055046I-141421J-141421D01*
G01*
X192900959Y-64773467D01*
G75*
G02*
X192618117Y-64773467I-141421J141421D01*
G01*
X192438512Y-64593862D01*
G75*
G02*
X192438512Y-64311020I141421J141421D01*
G01*
G37*
G36*
G01*
X192079301Y-63951809D02*
X192797722Y-63233389D01*
G75*
G02*
X193080564Y-63233389I141421J-141421D01*
G01*
X193260169Y-63412994D01*
G75*
G02*
X193260169Y-63695836I-141421J-141421D01*
G01*
X192541748Y-64414257D01*
G75*
G02*
X192258906Y-64414257I-141421J141421D01*
G01*
X192079301Y-64234652D01*
G75*
G02*
X192079301Y-63951810I141421J141421D01*
G01*
G37*
G36*
G01*
X191720091Y-63592599D02*
X192438512Y-62874179D01*
G75*
G02*
X192721354Y-62874179I141421J-141421D01*
G01*
X192900959Y-63053784D01*
G75*
G02*
X192900959Y-63336626I-141421J-141421D01*
G01*
X192182538Y-64055047D01*
G75*
G02*
X191899696Y-64055047I-141421J141421D01*
G01*
X191720091Y-63875442D01*
G75*
G02*
X191720091Y-63592600I141421J141421D01*
G01*
G37*
G36*
G01*
X191378841Y-63251349D02*
X192097262Y-62532929D01*
G75*
G02*
X192380104Y-62532929I141421J-141421D01*
G01*
X192559709Y-62712534D01*
G75*
G02*
X192559709Y-62995376I-141421J-141421D01*
G01*
X191841288Y-63713797D01*
G75*
G02*
X191558446Y-63713797I-141421J141421D01*
G01*
X191378841Y-63534192D01*
G75*
G02*
X191378841Y-63251350I141421J141421D01*
G01*
G37*
G36*
G01*
X188900291Y-62712534D02*
X189079896Y-62532929D01*
G75*
G02*
X189362738Y-62532929I141421J-141421D01*
G01*
X190081159Y-63251350D01*
G75*
G02*
X190081159Y-63534192I-141421J-141421D01*
G01*
X189901554Y-63713797D01*
G75*
G02*
X189618712Y-63713797I-141421J141421D01*
G01*
X188900291Y-62995376D01*
G75*
G02*
X188900291Y-62712534I141421J141421D01*
G01*
G37*
G36*
G01*
X188541080Y-63071744D02*
X188720685Y-62892139D01*
G75*
G02*
X189003527Y-62892139I141421J-141421D01*
G01*
X189721948Y-63610560D01*
G75*
G02*
X189721948Y-63893402I-141421J-141421D01*
G01*
X189542343Y-64073007D01*
G75*
G02*
X189259501Y-64073007I-141421J141421D01*
G01*
X188541080Y-63354586D01*
G75*
G02*
X188541080Y-63071744I141421J141421D01*
G01*
G37*
G36*
G01*
X188199831Y-63412994D02*
X188379436Y-63233389D01*
G75*
G02*
X188662278Y-63233389I141421J-141421D01*
G01*
X189380699Y-63951810D01*
G75*
G02*
X189380699Y-64234652I-141421J-141421D01*
G01*
X189201094Y-64414257D01*
G75*
G02*
X188918252Y-64414257I-141421J141421D01*
G01*
X188199831Y-63695836D01*
G75*
G02*
X188199831Y-63412994I141421J141421D01*
G01*
G37*
G36*
G01*
X187840620Y-63772204D02*
X188020225Y-63592599D01*
G75*
G02*
X188303067Y-63592599I141421J-141421D01*
G01*
X189021488Y-64311020D01*
G75*
G02*
X189021488Y-64593862I-141421J-141421D01*
G01*
X188841883Y-64773467D01*
G75*
G02*
X188559041Y-64773467I-141421J141421D01*
G01*
X187840620Y-64055046D01*
G75*
G02*
X187840620Y-63772204I141421J141421D01*
G01*
G37*
G36*
G01*
X187481410Y-64131414D02*
X187661015Y-63951809D01*
G75*
G02*
X187943857Y-63951809I141421J-141421D01*
G01*
X188662278Y-64670230D01*
G75*
G02*
X188662278Y-64953072I-141421J-141421D01*
G01*
X188482673Y-65132677D01*
G75*
G02*
X188199831Y-65132677I-141421J141421D01*
G01*
X187481410Y-64414256D01*
G75*
G02*
X187481410Y-64131414I141421J141421D01*
G01*
G37*
G36*
G01*
X187140160Y-64472664D02*
X187319765Y-64293059D01*
G75*
G02*
X187602607Y-64293059I141421J-141421D01*
G01*
X188321028Y-65011480D01*
G75*
G02*
X188321028Y-65294322I-141421J-141421D01*
G01*
X188141423Y-65473927D01*
G75*
G02*
X187858581Y-65473927I-141421J141421D01*
G01*
X187140160Y-64755506D01*
G75*
G02*
X187140160Y-64472664I141421J141421D01*
G01*
G37*
G36*
G01*
X186780950Y-64831874D02*
X186960555Y-64652269D01*
G75*
G02*
X187243397Y-64652269I141421J-141421D01*
G01*
X187961818Y-65370690D01*
G75*
G02*
X187961818Y-65653532I-141421J-141421D01*
G01*
X187782213Y-65833137D01*
G75*
G02*
X187499371Y-65833137I-141421J141421D01*
G01*
X186780950Y-65114716D01*
G75*
G02*
X186780950Y-64831874I141421J141421D01*
G01*
G37*
G36*
G01*
X186421740Y-65191085D02*
X186601345Y-65011480D01*
G75*
G02*
X186884187Y-65011480I141421J-141421D01*
G01*
X187602608Y-65729901D01*
G75*
G02*
X187602608Y-66012743I-141421J-141421D01*
G01*
X187423003Y-66192348D01*
G75*
G02*
X187140161Y-66192348I-141421J141421D01*
G01*
X186421740Y-65473927D01*
G75*
G02*
X186421740Y-65191085I141421J141421D01*
G01*
G37*
G36*
G01*
X186080490Y-65532334D02*
X186260095Y-65352729D01*
G75*
G02*
X186542937Y-65352729I141421J-141421D01*
G01*
X187261358Y-66071150D01*
G75*
G02*
X187261358Y-66353992I-141421J-141421D01*
G01*
X187081753Y-66533597D01*
G75*
G02*
X186798911Y-66533597I-141421J141421D01*
G01*
X186080490Y-65815176D01*
G75*
G02*
X186080490Y-65532334I141421J141421D01*
G01*
G37*
G36*
G01*
X185721280Y-65891545D02*
X185900885Y-65711940D01*
G75*
G02*
X186183727Y-65711940I141421J-141421D01*
G01*
X186902148Y-66430361D01*
G75*
G02*
X186902148Y-66713203I-141421J-141421D01*
G01*
X186722543Y-66892808D01*
G75*
G02*
X186439701Y-66892808I-141421J141421D01*
G01*
X185721280Y-66174387D01*
G75*
G02*
X185721280Y-65891545I141421J141421D01*
G01*
G37*
G36*
G01*
X185362070Y-66250755D02*
X185541675Y-66071150D01*
G75*
G02*
X185824517Y-66071150I141421J-141421D01*
G01*
X186542938Y-66789571D01*
G75*
G02*
X186542938Y-67072413I-141421J-141421D01*
G01*
X186363333Y-67252018D01*
G75*
G02*
X186080491Y-67252018I-141421J141421D01*
G01*
X185362070Y-66533597D01*
G75*
G02*
X185362070Y-66250755I141421J141421D01*
G01*
G37*
G36*
G01*
X185002859Y-66609965D02*
X185182464Y-66430360D01*
G75*
G02*
X185465306Y-66430360I141421J-141421D01*
G01*
X186183727Y-67148781D01*
G75*
G02*
X186183727Y-67431623I-141421J-141421D01*
G01*
X186004122Y-67611228D01*
G75*
G02*
X185721280Y-67611228I-141421J141421D01*
G01*
X185002859Y-66892807D01*
G75*
G02*
X185002859Y-66609965I141421J141421D01*
G01*
G37*
G36*
G01*
X184661610Y-66951215D02*
X184841215Y-66771610D01*
G75*
G02*
X185124057Y-66771610I141421J-141421D01*
G01*
X185842478Y-67490031D01*
G75*
G02*
X185842478Y-67772873I-141421J-141421D01*
G01*
X185662873Y-67952478D01*
G75*
G02*
X185380031Y-67952478I-141421J141421D01*
G01*
X184661610Y-67234057D01*
G75*
G02*
X184661610Y-66951215I141421J141421D01*
G01*
G37*
G36*
G01*
X184302400Y-67310425D02*
X184482005Y-67130820D01*
G75*
G02*
X184764847Y-67130820I141421J-141421D01*
G01*
X185483268Y-67849241D01*
G75*
G02*
X185483268Y-68132083I-141421J-141421D01*
G01*
X185303663Y-68311688D01*
G75*
G02*
X185020821Y-68311688I-141421J141421D01*
G01*
X184302400Y-67593267D01*
G75*
G02*
X184302400Y-67310425I141421J141421D01*
G01*
G37*
G36*
G01*
X183943189Y-67669635D02*
X184122794Y-67490030D01*
G75*
G02*
X184405636Y-67490030I141421J-141421D01*
G01*
X185124057Y-68208451D01*
G75*
G02*
X185124057Y-68491293I-141421J-141421D01*
G01*
X184944452Y-68670898D01*
G75*
G02*
X184661610Y-68670898I-141421J141421D01*
G01*
X183943189Y-67952477D01*
G75*
G02*
X183943189Y-67669635I141421J141421D01*
G01*
G37*
G36*
G01*
X183601940Y-68010885D02*
X183781545Y-67831280D01*
G75*
G02*
X184064387Y-67831280I141421J-141421D01*
G01*
X184782808Y-68549701D01*
G75*
G02*
X184782808Y-68832543I-141421J-141421D01*
G01*
X184603203Y-69012148D01*
G75*
G02*
X184320361Y-69012148I-141421J141421D01*
G01*
X183601940Y-68293727D01*
G75*
G02*
X183601940Y-68010885I141421J141421D01*
G01*
G37*
G36*
G01*
X183242729Y-68370095D02*
X183422334Y-68190490D01*
G75*
G02*
X183705176Y-68190490I141421J-141421D01*
G01*
X184423597Y-68908911D01*
G75*
G02*
X184423597Y-69191753I-141421J-141421D01*
G01*
X184243992Y-69371358D01*
G75*
G02*
X183961150Y-69371358I-141421J141421D01*
G01*
X183242729Y-68652937D01*
G75*
G02*
X183242729Y-68370095I141421J141421D01*
G01*
G37*
G36*
G01*
X182883519Y-68729305D02*
X183063124Y-68549700D01*
G75*
G02*
X183345966Y-68549700I141421J-141421D01*
G01*
X184064387Y-69268121D01*
G75*
G02*
X184064387Y-69550963I-141421J-141421D01*
G01*
X183884782Y-69730568D01*
G75*
G02*
X183601940Y-69730568I-141421J141421D01*
G01*
X182883519Y-69012147D01*
G75*
G02*
X182883519Y-68729305I141421J141421D01*
G01*
G37*
G36*
G01*
X182542269Y-69070555D02*
X182721874Y-68890950D01*
G75*
G02*
X183004716Y-68890950I141421J-141421D01*
G01*
X183723137Y-69609371D01*
G75*
G02*
X183723137Y-69892213I-141421J-141421D01*
G01*
X183543532Y-70071818D01*
G75*
G02*
X183260690Y-70071818I-141421J141421D01*
G01*
X182542269Y-69353397D01*
G75*
G02*
X182542269Y-69070555I141421J141421D01*
G01*
G37*
G36*
G01*
X182183059Y-69429765D02*
X182362664Y-69250160D01*
G75*
G02*
X182645506Y-69250160I141421J-141421D01*
G01*
X183363927Y-69968581D01*
G75*
G02*
X183363927Y-70251423I-141421J-141421D01*
G01*
X183184322Y-70431028D01*
G75*
G02*
X182901480Y-70431028I-141421J141421D01*
G01*
X182183059Y-69712607D01*
G75*
G02*
X182183059Y-69429765I141421J141421D01*
G01*
G37*
G36*
G01*
X181823849Y-69788976D02*
X182003454Y-69609371D01*
G75*
G02*
X182286296Y-69609371I141421J-141421D01*
G01*
X183004717Y-70327792D01*
G75*
G02*
X183004717Y-70610634I-141421J-141421D01*
G01*
X182825112Y-70790239D01*
G75*
G02*
X182542270Y-70790239I-141421J141421D01*
G01*
X181823849Y-70071818D01*
G75*
G02*
X181823849Y-69788976I141421J141421D01*
G01*
G37*
G36*
G01*
X181482599Y-70130225D02*
X181662204Y-69950620D01*
G75*
G02*
X181945046Y-69950620I141421J-141421D01*
G01*
X182663467Y-70669041D01*
G75*
G02*
X182663467Y-70951883I-141421J-141421D01*
G01*
X182483862Y-71131488D01*
G75*
G02*
X182201020Y-71131488I-141421J141421D01*
G01*
X181482599Y-70413067D01*
G75*
G02*
X181482599Y-70130225I141421J141421D01*
G01*
G37*
G36*
G01*
X181123389Y-70489436D02*
X181302994Y-70309831D01*
G75*
G02*
X181585836Y-70309831I141421J-141421D01*
G01*
X182304257Y-71028252D01*
G75*
G02*
X182304257Y-71311094I-141421J-141421D01*
G01*
X182124652Y-71490699D01*
G75*
G02*
X181841810Y-71490699I-141421J141421D01*
G01*
X181123389Y-70772278D01*
G75*
G02*
X181123389Y-70489436I141421J141421D01*
G01*
G37*
G36*
G01*
X180764179Y-70848646D02*
X180943784Y-70669041D01*
G75*
G02*
X181226626Y-70669041I141421J-141421D01*
G01*
X181945047Y-71387462D01*
G75*
G02*
X181945047Y-71670304I-141421J-141421D01*
G01*
X181765442Y-71849909D01*
G75*
G02*
X181482600Y-71849909I-141421J141421D01*
G01*
X180764179Y-71131488D01*
G75*
G02*
X180764179Y-70848646I141421J141421D01*
G01*
G37*
G36*
G01*
X180422929Y-71189896D02*
X180602534Y-71010291D01*
G75*
G02*
X180885376Y-71010291I141421J-141421D01*
G01*
X181603797Y-71728712D01*
G75*
G02*
X181603797Y-72011554I-141421J-141421D01*
G01*
X181424192Y-72191159D01*
G75*
G02*
X181141350Y-72191159I-141421J141421D01*
G01*
X180422929Y-71472738D01*
G75*
G02*
X180422929Y-71189896I141421J141421D01*
G01*
G37*
D11*
X201575000Y-59175000D03*
D13*
X225971100Y-70713600D03*
X156121100Y-70713600D03*
G36*
G01*
X230695500Y-97967800D02*
X230695500Y-104419400D01*
G75*
G02*
X230619300Y-104495600I-76200J0D01*
G01*
X228942900Y-104495600D01*
G75*
G02*
X228866700Y-104419400I0J76200D01*
G01*
X228866700Y-97967800D01*
G75*
G02*
X228942900Y-97891600I76200J0D01*
G01*
X230619300Y-97891600D01*
G75*
G02*
X230695500Y-97967800I0J-76200D01*
G01*
G37*
G36*
G01*
X228155500Y-97967800D02*
X228155500Y-104419400D01*
G75*
G02*
X228079300Y-104495600I-76200J0D01*
G01*
X226402900Y-104495600D01*
G75*
G02*
X226326700Y-104419400I0J76200D01*
G01*
X226326700Y-97967800D01*
G75*
G02*
X226402900Y-97891600I76200J0D01*
G01*
X228079300Y-97891600D01*
G75*
G02*
X228155500Y-97967800I0J-76200D01*
G01*
G37*
G36*
G01*
X225615500Y-97967800D02*
X225615500Y-104419400D01*
G75*
G02*
X225539300Y-104495600I-76200J0D01*
G01*
X223862900Y-104495600D01*
G75*
G02*
X223786700Y-104419400I0J76200D01*
G01*
X223786700Y-97967800D01*
G75*
G02*
X223862900Y-97891600I76200J0D01*
G01*
X225539300Y-97891600D01*
G75*
G02*
X225615500Y-97967800I0J-76200D01*
G01*
G37*
G36*
G01*
X223075500Y-97967800D02*
X223075500Y-104419400D01*
G75*
G02*
X222999300Y-104495600I-76200J0D01*
G01*
X221322900Y-104495600D01*
G75*
G02*
X221246700Y-104419400I0J76200D01*
G01*
X221246700Y-97967800D01*
G75*
G02*
X221322900Y-97891600I76200J0D01*
G01*
X222999300Y-97891600D01*
G75*
G02*
X223075500Y-97967800I0J-76200D01*
G01*
G37*
G36*
G01*
X220535500Y-97967800D02*
X220535500Y-104419400D01*
G75*
G02*
X220459300Y-104495600I-76200J0D01*
G01*
X218782900Y-104495600D01*
G75*
G02*
X218706700Y-104419400I0J76200D01*
G01*
X218706700Y-97967800D01*
G75*
G02*
X218782900Y-97891600I76200J0D01*
G01*
X220459300Y-97891600D01*
G75*
G02*
X220535500Y-97967800I0J-76200D01*
G01*
G37*
G36*
G01*
X217995500Y-97967800D02*
X217995500Y-104419400D01*
G75*
G02*
X217919300Y-104495600I-76200J0D01*
G01*
X216242900Y-104495600D01*
G75*
G02*
X216166700Y-104419400I0J76200D01*
G01*
X216166700Y-97967800D01*
G75*
G02*
X216242900Y-97891600I76200J0D01*
G01*
X217919300Y-97891600D01*
G75*
G02*
X217995500Y-97967800I0J-76200D01*
G01*
G37*
G36*
G01*
X215455500Y-97967800D02*
X215455500Y-104419400D01*
G75*
G02*
X215379300Y-104495600I-76200J0D01*
G01*
X213702900Y-104495600D01*
G75*
G02*
X213626700Y-104419400I0J76200D01*
G01*
X213626700Y-97967800D01*
G75*
G02*
X213702900Y-97891600I76200J0D01*
G01*
X215379300Y-97891600D01*
G75*
G02*
X215455500Y-97967800I0J-76200D01*
G01*
G37*
G36*
G01*
X212915500Y-97967800D02*
X212915500Y-104419400D01*
G75*
G02*
X212839300Y-104495600I-76200J0D01*
G01*
X211162900Y-104495600D01*
G75*
G02*
X211086700Y-104419400I0J76200D01*
G01*
X211086700Y-97967800D01*
G75*
G02*
X211162900Y-97891600I76200J0D01*
G01*
X212839300Y-97891600D01*
G75*
G02*
X212915500Y-97967800I0J-76200D01*
G01*
G37*
G36*
G01*
X210375500Y-97967800D02*
X210375500Y-104419400D01*
G75*
G02*
X210299300Y-104495600I-76200J0D01*
G01*
X208622900Y-104495600D01*
G75*
G02*
X208546700Y-104419400I0J76200D01*
G01*
X208546700Y-97967800D01*
G75*
G02*
X208622900Y-97891600I76200J0D01*
G01*
X210299300Y-97891600D01*
G75*
G02*
X210375500Y-97967800I0J-76200D01*
G01*
G37*
G36*
G01*
X207835500Y-97967800D02*
X207835500Y-104419400D01*
G75*
G02*
X207759300Y-104495600I-76200J0D01*
G01*
X206082900Y-104495600D01*
G75*
G02*
X206006700Y-104419400I0J76200D01*
G01*
X206006700Y-97967800D01*
G75*
G02*
X206082900Y-97891600I76200J0D01*
G01*
X207759300Y-97891600D01*
G75*
G02*
X207835500Y-97967800I0J-76200D01*
G01*
G37*
G36*
G01*
X205295500Y-97967800D02*
X205295500Y-104419400D01*
G75*
G02*
X205219300Y-104495600I-76200J0D01*
G01*
X203542900Y-104495600D01*
G75*
G02*
X203466700Y-104419400I0J76200D01*
G01*
X203466700Y-97967800D01*
G75*
G02*
X203542900Y-97891600I76200J0D01*
G01*
X205219300Y-97891600D01*
G75*
G02*
X205295500Y-97967800I0J-76200D01*
G01*
G37*
G36*
G01*
X202755500Y-97967800D02*
X202755500Y-104419400D01*
G75*
G02*
X202679300Y-104495600I-76200J0D01*
G01*
X201002900Y-104495600D01*
G75*
G02*
X200926700Y-104419400I0J76200D01*
G01*
X200926700Y-97967800D01*
G75*
G02*
X201002900Y-97891600I76200J0D01*
G01*
X202679300Y-97891600D01*
G75*
G02*
X202755500Y-97967800I0J-76200D01*
G01*
G37*
G36*
G01*
X200215500Y-97967800D02*
X200215500Y-104419400D01*
G75*
G02*
X200139300Y-104495600I-76200J0D01*
G01*
X198462900Y-104495600D01*
G75*
G02*
X198386700Y-104419400I0J76200D01*
G01*
X198386700Y-97967800D01*
G75*
G02*
X198462900Y-97891600I76200J0D01*
G01*
X200139300Y-97891600D01*
G75*
G02*
X200215500Y-97967800I0J-76200D01*
G01*
G37*
G36*
G01*
X197675500Y-97967800D02*
X197675500Y-104419400D01*
G75*
G02*
X197599300Y-104495600I-76200J0D01*
G01*
X195922900Y-104495600D01*
G75*
G02*
X195846700Y-104419400I0J76200D01*
G01*
X195846700Y-97967800D01*
G75*
G02*
X195922900Y-97891600I76200J0D01*
G01*
X197599300Y-97891600D01*
G75*
G02*
X197675500Y-97967800I0J-76200D01*
G01*
G37*
G36*
G01*
X195135500Y-97967800D02*
X195135500Y-104419400D01*
G75*
G02*
X195059300Y-104495600I-76200J0D01*
G01*
X193382900Y-104495600D01*
G75*
G02*
X193306700Y-104419400I0J76200D01*
G01*
X193306700Y-97967800D01*
G75*
G02*
X193382900Y-97891600I76200J0D01*
G01*
X195059300Y-97891600D01*
G75*
G02*
X195135500Y-97967800I0J-76200D01*
G01*
G37*
G36*
G01*
X192595500Y-97967800D02*
X192595500Y-104419400D01*
G75*
G02*
X192519300Y-104495600I-76200J0D01*
G01*
X190842900Y-104495600D01*
G75*
G02*
X190766700Y-104419400I0J76200D01*
G01*
X190766700Y-97967800D01*
G75*
G02*
X190842900Y-97891600I76200J0D01*
G01*
X192519300Y-97891600D01*
G75*
G02*
X192595500Y-97967800I0J-76200D01*
G01*
G37*
G36*
G01*
X190055500Y-97967800D02*
X190055500Y-104419400D01*
G75*
G02*
X189979300Y-104495600I-76200J0D01*
G01*
X188302900Y-104495600D01*
G75*
G02*
X188226700Y-104419400I0J76200D01*
G01*
X188226700Y-97967800D01*
G75*
G02*
X188302900Y-97891600I76200J0D01*
G01*
X189979300Y-97891600D01*
G75*
G02*
X190055500Y-97967800I0J-76200D01*
G01*
G37*
G36*
G01*
X187515500Y-97967800D02*
X187515500Y-104419400D01*
G75*
G02*
X187439300Y-104495600I-76200J0D01*
G01*
X185762900Y-104495600D01*
G75*
G02*
X185686700Y-104419400I0J76200D01*
G01*
X185686700Y-97967800D01*
G75*
G02*
X185762900Y-97891600I76200J0D01*
G01*
X187439300Y-97891600D01*
G75*
G02*
X187515500Y-97967800I0J-76200D01*
G01*
G37*
G36*
G01*
X184975500Y-97967800D02*
X184975500Y-104419400D01*
G75*
G02*
X184899300Y-104495600I-76200J0D01*
G01*
X183222900Y-104495600D01*
G75*
G02*
X183146700Y-104419400I0J76200D01*
G01*
X183146700Y-97967800D01*
G75*
G02*
X183222900Y-97891600I76200J0D01*
G01*
X184899300Y-97891600D01*
G75*
G02*
X184975500Y-97967800I0J-76200D01*
G01*
G37*
G36*
G01*
X182435500Y-97967800D02*
X182435500Y-104419400D01*
G75*
G02*
X182359300Y-104495600I-76200J0D01*
G01*
X180682900Y-104495600D01*
G75*
G02*
X180606700Y-104419400I0J76200D01*
G01*
X180606700Y-97967800D01*
G75*
G02*
X180682900Y-97891600I76200J0D01*
G01*
X182359300Y-97891600D01*
G75*
G02*
X182435500Y-97967800I0J-76200D01*
G01*
G37*
G36*
G01*
X179895500Y-97967800D02*
X179895500Y-104419400D01*
G75*
G02*
X179819300Y-104495600I-76200J0D01*
G01*
X178142900Y-104495600D01*
G75*
G02*
X178066700Y-104419400I0J76200D01*
G01*
X178066700Y-97967800D01*
G75*
G02*
X178142900Y-97891600I76200J0D01*
G01*
X179819300Y-97891600D01*
G75*
G02*
X179895500Y-97967800I0J-76200D01*
G01*
G37*
G36*
G01*
X177355500Y-97967800D02*
X177355500Y-104419400D01*
G75*
G02*
X177279300Y-104495600I-76200J0D01*
G01*
X175602900Y-104495600D01*
G75*
G02*
X175526700Y-104419400I0J76200D01*
G01*
X175526700Y-97967800D01*
G75*
G02*
X175602900Y-97891600I76200J0D01*
G01*
X177279300Y-97891600D01*
G75*
G02*
X177355500Y-97967800I0J-76200D01*
G01*
G37*
G36*
G01*
X174815500Y-97967800D02*
X174815500Y-104419400D01*
G75*
G02*
X174739300Y-104495600I-76200J0D01*
G01*
X173062900Y-104495600D01*
G75*
G02*
X172986700Y-104419400I0J76200D01*
G01*
X172986700Y-97967800D01*
G75*
G02*
X173062900Y-97891600I76200J0D01*
G01*
X174739300Y-97891600D01*
G75*
G02*
X174815500Y-97967800I0J-76200D01*
G01*
G37*
G36*
G01*
X172275500Y-97967800D02*
X172275500Y-104419400D01*
G75*
G02*
X172199300Y-104495600I-76200J0D01*
G01*
X170522900Y-104495600D01*
G75*
G02*
X170446700Y-104419400I0J76200D01*
G01*
X170446700Y-97967800D01*
G75*
G02*
X170522900Y-97891600I76200J0D01*
G01*
X172199300Y-97891600D01*
G75*
G02*
X172275500Y-97967800I0J-76200D01*
G01*
G37*
G36*
G01*
X169735500Y-97967800D02*
X169735500Y-104419400D01*
G75*
G02*
X169659300Y-104495600I-76200J0D01*
G01*
X167982900Y-104495600D01*
G75*
G02*
X167906700Y-104419400I0J76200D01*
G01*
X167906700Y-97967800D01*
G75*
G02*
X167982900Y-97891600I76200J0D01*
G01*
X169659300Y-97891600D01*
G75*
G02*
X169735500Y-97967800I0J-76200D01*
G01*
G37*
G36*
G01*
X167195500Y-97967800D02*
X167195500Y-104419400D01*
G75*
G02*
X167119300Y-104495600I-76200J0D01*
G01*
X165442900Y-104495600D01*
G75*
G02*
X165366700Y-104419400I0J76200D01*
G01*
X165366700Y-97967800D01*
G75*
G02*
X165442900Y-97891600I76200J0D01*
G01*
X167119300Y-97891600D01*
G75*
G02*
X167195500Y-97967800I0J-76200D01*
G01*
G37*
G36*
G01*
X164655500Y-97967800D02*
X164655500Y-104419400D01*
G75*
G02*
X164579300Y-104495600I-76200J0D01*
G01*
X162902900Y-104495600D01*
G75*
G02*
X162826700Y-104419400I0J76200D01*
G01*
X162826700Y-97967800D01*
G75*
G02*
X162902900Y-97891600I76200J0D01*
G01*
X164579300Y-97891600D01*
G75*
G02*
X164655500Y-97967800I0J-76200D01*
G01*
G37*
G36*
G01*
X162115500Y-97967800D02*
X162115500Y-104419400D01*
G75*
G02*
X162039300Y-104495600I-76200J0D01*
G01*
X160362900Y-104495600D01*
G75*
G02*
X160286700Y-104419400I0J76200D01*
G01*
X160286700Y-97967800D01*
G75*
G02*
X160362900Y-97891600I76200J0D01*
G01*
X162039300Y-97891600D01*
G75*
G02*
X162115500Y-97967800I0J-76200D01*
G01*
G37*
G36*
G01*
X159575500Y-97967800D02*
X159575500Y-104419400D01*
G75*
G02*
X159499300Y-104495600I-76200J0D01*
G01*
X157822900Y-104495600D01*
G75*
G02*
X157746700Y-104419400I0J76200D01*
G01*
X157746700Y-97967800D01*
G75*
G02*
X157822900Y-97891600I76200J0D01*
G01*
X159499300Y-97891600D01*
G75*
G02*
X159575500Y-97967800I0J-76200D01*
G01*
G37*
G36*
G01*
X157035500Y-97967800D02*
X157035500Y-104419400D01*
G75*
G02*
X156959300Y-104495600I-76200J0D01*
G01*
X155282900Y-104495600D01*
G75*
G02*
X155206700Y-104419400I0J76200D01*
G01*
X155206700Y-97967800D01*
G75*
G02*
X155282900Y-97891600I76200J0D01*
G01*
X156959300Y-97891600D01*
G75*
G02*
X157035500Y-97967800I0J-76200D01*
G01*
G37*
G36*
G01*
X154495500Y-97967800D02*
X154495500Y-104419400D01*
G75*
G02*
X154419300Y-104495600I-76200J0D01*
G01*
X152742900Y-104495600D01*
G75*
G02*
X152666700Y-104419400I0J76200D01*
G01*
X152666700Y-97967800D01*
G75*
G02*
X152742900Y-97891600I76200J0D01*
G01*
X154419300Y-97891600D01*
G75*
G02*
X154495500Y-97967800I0J-76200D01*
G01*
G37*
G36*
G01*
X151955500Y-97967800D02*
X151955500Y-104419400D01*
G75*
G02*
X151879300Y-104495600I-76200J0D01*
G01*
X150202900Y-104495600D01*
G75*
G02*
X150126700Y-104419400I0J76200D01*
G01*
X150126700Y-97967800D01*
G75*
G02*
X150202900Y-97891600I76200J0D01*
G01*
X151879300Y-97891600D01*
G75*
G02*
X151955500Y-97967800I0J-76200D01*
G01*
G37*
G36*
X219983517Y-52244000D02*
G01*
X219983517Y-52246000D01*
X219982303Y-52246932D01*
X219920320Y-52263541D01*
X219875327Y-52308534D01*
X219858857Y-52369999D01*
X219875327Y-52431465D01*
X219920375Y-52476512D01*
X219964004Y-52491706D01*
X219993564Y-52496071D01*
X219995132Y-52497314D01*
X219994839Y-52499292D01*
X219993063Y-52500039D01*
X219870028Y-52487107D01*
X219692178Y-52501104D01*
X219690373Y-52500243D01*
X219690216Y-52498249D01*
X219691605Y-52497154D01*
X219723547Y-52490365D01*
X219780488Y-52461352D01*
X219815144Y-52407987D01*
X219818474Y-52344441D01*
X219789585Y-52287743D01*
X219736127Y-52253027D01*
X219697919Y-52246975D01*
X219696365Y-52245717D01*
X219696678Y-52243741D01*
X219698232Y-52243000D01*
X219981785Y-52243000D01*
X219983517Y-52244000D01*
G37*
M02*
