G04 #@! TF.GenerationSoftware,KiCad,Pcbnew,(5.99.0-1468-g7e1294a4b)*
G04 #@! TF.CreationDate,2020-08-22T19:19:53+02:00*
G04 #@! TF.ProjectId,MD_Flash_8M,4d445f46-6c61-4736-985f-384d2e6b6963,rev?*
G04 #@! TF.SameCoordinates,Original*
G04 #@! TF.FileFunction,Copper,L1,Top*
G04 #@! TF.FilePolarity,Positive*
%FSLAX46Y46*%
G04 Gerber Fmt 4.6, Leading zero omitted, Abs format (unit mm)*
G04 Created by KiCad (PCBNEW (5.99.0-1468-g7e1294a4b)) date 2020-08-22 19:19:53*
%MOMM*%
%LPD*%
G01*
G04 APERTURE LIST*
G04 #@! TA.AperFunction,SMDPad,CuDef*
%ADD10R,1.000000X1.250000*%
G04 #@! TD*
G04 #@! TA.AperFunction,SMDPad,CuDef*
%ADD11R,1.250000X1.000000*%
G04 #@! TD*
G04 #@! TA.AperFunction,SMDPad,CuDef*
%ADD12R,1.000000X1.600000*%
G04 #@! TD*
G04 #@! TA.AperFunction,SMDPad,CuDef*
%ADD13R,1.600000X1.000000*%
G04 #@! TD*
G04 #@! TA.AperFunction,SMDPad,CuDef*
%ADD14R,2.000000X1.500000*%
G04 #@! TD*
G04 #@! TA.AperFunction,SMDPad,CuDef*
%ADD15R,2.000000X3.800000*%
G04 #@! TD*
G04 #@! TA.AperFunction,SMDPad,CuDef*
%ADD16R,3.800000X2.000000*%
G04 #@! TD*
G04 #@! TA.AperFunction,SMDPad,CuDef*
%ADD17R,1.500000X2.000000*%
G04 #@! TD*
G04 #@! TA.AperFunction,SMDPad,CuDef*
%ADD18R,0.800000X0.750000*%
G04 #@! TD*
G04 #@! TA.AperFunction,ComponentPad*
%ADD19R,1.350000X1.350000*%
G04 #@! TD*
G04 #@! TA.AperFunction,ComponentPad*
%ADD20O,1.350000X1.350000*%
G04 #@! TD*
G04 #@! TA.AperFunction,SMDPad,CuDef*
%ADD21C,1.500000*%
G04 #@! TD*
G04 #@! TA.AperFunction,ComponentPad*
%ADD22R,1.900000X1.900000*%
G04 #@! TD*
G04 #@! TA.AperFunction,ComponentPad*
%ADD23C,1.900000*%
G04 #@! TD*
G04 #@! TA.AperFunction,SMDPad,CuDef*
%ADD24R,0.750000X0.800000*%
G04 #@! TD*
G04 #@! TA.AperFunction,SMDPad,CuDef*
%ADD25R,0.450000X1.450000*%
G04 #@! TD*
G04 #@! TA.AperFunction,SMDPad,CuDef*
%ADD26R,0.600000X1.550000*%
G04 #@! TD*
G04 #@! TA.AperFunction,SMDPad,CuDef*
%ADD27R,0.299720X1.800860*%
G04 #@! TD*
G04 #@! TA.AperFunction,SMDPad,CuDef*
%ADD28R,0.200660X1.800860*%
G04 #@! TD*
G04 #@! TA.AperFunction,SMDPad,CuDef*
%ADD29R,1.676400X6.451600*%
G04 #@! TD*
G04 #@! TA.AperFunction,ViaPad*
%ADD30C,0.889000*%
G04 #@! TD*
G04 #@! TA.AperFunction,ViaPad*
%ADD31C,0.600000*%
G04 #@! TD*
G04 #@! TA.AperFunction,Conductor*
%ADD32C,0.400000*%
G04 #@! TD*
G04 #@! TA.AperFunction,Conductor*
%ADD33C,0.410000*%
G04 #@! TD*
G04 #@! TA.AperFunction,Conductor*
%ADD34C,0.200000*%
G04 #@! TD*
G04 APERTURE END LIST*
D10*
X230500000Y-90220000D03*
X228500000Y-90220000D03*
X228500000Y-93140000D03*
X230500000Y-93140000D03*
X220570000Y-72930000D03*
X218570000Y-72930000D03*
D11*
X154170000Y-86540000D03*
X154170000Y-88540000D03*
D12*
X231050000Y-84550000D03*
X228050000Y-84550000D03*
D13*
X151060000Y-86820000D03*
X151060000Y-89820000D03*
D14*
X226700000Y-81575000D03*
X226700000Y-76975000D03*
X226700000Y-79275000D03*
D15*
X220400000Y-79275000D03*
D16*
X153950000Y-77250000D03*
D17*
X153950000Y-83550000D03*
X156250000Y-83550000D03*
X151650000Y-83550000D03*
D18*
X168475000Y-55475000D03*
X169975000Y-55475000D03*
D19*
X198575000Y-47925000D03*
D20*
X200575000Y-47925000D03*
X202575000Y-47925000D03*
X204575000Y-47925000D03*
D18*
X212725000Y-58725000D03*
X214225000Y-58725000D03*
X214225000Y-56000000D03*
X212725000Y-56000000D03*
X212800000Y-53400000D03*
X214300000Y-53400000D03*
X214325000Y-51050000D03*
X212825000Y-51050000D03*
D19*
X183525000Y-47875000D03*
D20*
X185525000Y-47875000D03*
X187525000Y-47875000D03*
X189525000Y-47875000D03*
X191525000Y-47875000D03*
X193525000Y-47875000D03*
D21*
X205850000Y-59300000D03*
D22*
X219855000Y-51095000D03*
D23*
X222395000Y-51095000D03*
X219855000Y-53635000D03*
X222395000Y-53635000D03*
X219855000Y-56175000D03*
X222395000Y-56175000D03*
X219855000Y-58715000D03*
X222395000Y-58715000D03*
X219855000Y-61255000D03*
X222395000Y-61255000D03*
G04 #@! TA.AperFunction,SMDPad,CuDef*
G36*
X179962348Y-68157322D02*
G01*
X180492678Y-68687652D01*
X179926992Y-69253338D01*
X179396662Y-68723008D01*
X179962348Y-68157322D01*
G37*
G04 #@! TD.AperFunction*
G04 #@! TA.AperFunction,SMDPad,CuDef*
G36*
X181023008Y-67096662D02*
G01*
X181553338Y-67626992D01*
X180987652Y-68192678D01*
X180457322Y-67662348D01*
X181023008Y-67096662D01*
G37*
G04 #@! TD.AperFunction*
G04 #@! TA.AperFunction,SMDPad,CuDef*
G36*
X185648008Y-62621662D02*
G01*
X186178338Y-63151992D01*
X185612652Y-63717678D01*
X185082322Y-63187348D01*
X185648008Y-62621662D01*
G37*
G04 #@! TD.AperFunction*
G04 #@! TA.AperFunction,SMDPad,CuDef*
G36*
X184587348Y-63682322D02*
G01*
X185117678Y-64212652D01*
X184551992Y-64778338D01*
X184021662Y-64248008D01*
X184587348Y-63682322D01*
G37*
G04 #@! TD.AperFunction*
G04 #@! TA.AperFunction,SMDPad,CuDef*
G36*
X201528338Y-65823008D02*
G01*
X200998008Y-66353338D01*
X200432322Y-65787652D01*
X200962652Y-65257322D01*
X201528338Y-65823008D01*
G37*
G04 #@! TD.AperFunction*
G04 #@! TA.AperFunction,SMDPad,CuDef*
G36*
X200467678Y-64762348D02*
G01*
X199937348Y-65292678D01*
X199371662Y-64726992D01*
X199901992Y-64196662D01*
X200467678Y-64762348D01*
G37*
G04 #@! TD.AperFunction*
G04 #@! TA.AperFunction,SMDPad,CuDef*
G36*
X199292678Y-66012348D02*
G01*
X198762348Y-66542678D01*
X198196662Y-65976992D01*
X198726992Y-65446662D01*
X199292678Y-66012348D01*
G37*
G04 #@! TD.AperFunction*
G04 #@! TA.AperFunction,SMDPad,CuDef*
G36*
X200353338Y-67073008D02*
G01*
X199823008Y-67603338D01*
X199257322Y-67037652D01*
X199787652Y-66507322D01*
X200353338Y-67073008D01*
G37*
G04 #@! TD.AperFunction*
G04 #@! TA.AperFunction,SMDPad,CuDef*
G36*
X200012348Y-78357322D02*
G01*
X200542678Y-78887652D01*
X199976992Y-79453338D01*
X199446662Y-78923008D01*
X200012348Y-78357322D01*
G37*
G04 #@! TD.AperFunction*
G04 #@! TA.AperFunction,SMDPad,CuDef*
G36*
X201073008Y-77296662D02*
G01*
X201603338Y-77826992D01*
X201037652Y-78392678D01*
X200507322Y-77862348D01*
X201073008Y-77296662D01*
G37*
G04 #@! TD.AperFunction*
G04 #@! TA.AperFunction,SMDPad,CuDef*
G36*
X196248008Y-81996662D02*
G01*
X196778338Y-82526992D01*
X196212652Y-83092678D01*
X195682322Y-82562348D01*
X196248008Y-81996662D01*
G37*
G04 #@! TD.AperFunction*
G04 #@! TA.AperFunction,SMDPad,CuDef*
G36*
X195187348Y-83057322D02*
G01*
X195717678Y-83587652D01*
X195151992Y-84153338D01*
X194621662Y-83623008D01*
X195187348Y-83057322D01*
G37*
G04 #@! TD.AperFunction*
G04 #@! TA.AperFunction,SMDPad,CuDef*
G36*
X182753338Y-82698008D02*
G01*
X182223008Y-83228338D01*
X181657322Y-82662652D01*
X182187652Y-82132322D01*
X182753338Y-82698008D01*
G37*
G04 #@! TD.AperFunction*
G04 #@! TA.AperFunction,SMDPad,CuDef*
G36*
X181692678Y-81637348D02*
G01*
X181162348Y-82167678D01*
X180596662Y-81601992D01*
X181126992Y-81071662D01*
X181692678Y-81637348D01*
G37*
G04 #@! TD.AperFunction*
G04 #@! TA.AperFunction,SMDPad,CuDef*
G36*
X182867678Y-80387348D02*
G01*
X182337348Y-80917678D01*
X181771662Y-80351992D01*
X182301992Y-79821662D01*
X182867678Y-80387348D01*
G37*
G04 #@! TD.AperFunction*
G04 #@! TA.AperFunction,SMDPad,CuDef*
G36*
X183928338Y-81448008D02*
G01*
X183398008Y-81978338D01*
X182832322Y-81412652D01*
X183362652Y-80882322D01*
X183928338Y-81448008D01*
G37*
G04 #@! TD.AperFunction*
D24*
X208125000Y-90150000D03*
X208125000Y-88650000D03*
X197025000Y-88650000D03*
X197025000Y-90150000D03*
X218150000Y-88650000D03*
X218150000Y-90150000D03*
D25*
X199050000Y-87050000D03*
X199700000Y-87050000D03*
X200350000Y-87050000D03*
X201000000Y-87050000D03*
X201650000Y-87050000D03*
X202300000Y-87050000D03*
X202950000Y-87050000D03*
X203600000Y-87050000D03*
X204250000Y-87050000D03*
X204900000Y-87050000D03*
X204900000Y-92950000D03*
X204250000Y-92950000D03*
X203600000Y-92950000D03*
X202950000Y-92950000D03*
X202300000Y-92950000D03*
X201650000Y-92950000D03*
X201000000Y-92950000D03*
X200350000Y-92950000D03*
X199700000Y-92950000D03*
X199050000Y-92950000D03*
X209750000Y-87050000D03*
X210400000Y-87050000D03*
X211050000Y-87050000D03*
X211700000Y-87050000D03*
X212350000Y-87050000D03*
X213000000Y-87050000D03*
X213650000Y-87050000D03*
X214300000Y-87050000D03*
X214950000Y-87050000D03*
X215600000Y-87050000D03*
X215600000Y-92950000D03*
X214950000Y-92950000D03*
X214300000Y-92950000D03*
X213650000Y-92950000D03*
X213000000Y-92950000D03*
X212350000Y-92950000D03*
X211700000Y-92950000D03*
X211050000Y-92950000D03*
X210400000Y-92950000D03*
X209750000Y-92950000D03*
X220025000Y-87050000D03*
X220675000Y-87050000D03*
X221325000Y-87050000D03*
X221975000Y-87050000D03*
X222625000Y-87050000D03*
X223275000Y-87050000D03*
X223925000Y-87050000D03*
X224575000Y-87050000D03*
X225225000Y-87050000D03*
X225875000Y-87050000D03*
X225875000Y-92950000D03*
X225225000Y-92950000D03*
X224575000Y-92950000D03*
X223925000Y-92950000D03*
X223275000Y-92950000D03*
X222625000Y-92950000D03*
X221975000Y-92950000D03*
X221325000Y-92950000D03*
X220675000Y-92950000D03*
X220025000Y-92950000D03*
D13*
X151060000Y-92430000D03*
X151060000Y-95430000D03*
D24*
X179750000Y-90175000D03*
X179750000Y-88675000D03*
X154500000Y-90800000D03*
X154500000Y-92300000D03*
X166875000Y-88700000D03*
X166875000Y-90200000D03*
D26*
X190945000Y-92475000D03*
X192215000Y-92475000D03*
X193485000Y-92475000D03*
X194755000Y-92475000D03*
X194755000Y-87075000D03*
X193485000Y-87075000D03*
X192215000Y-87075000D03*
X190945000Y-87075000D03*
D27*
X162930380Y-78991700D03*
X163430760Y-78986620D03*
X163931140Y-78986620D03*
X164428980Y-78986620D03*
D28*
X164929360Y-78986620D03*
D27*
X165429740Y-78986620D03*
X165930120Y-78986620D03*
X166430500Y-78986620D03*
X166930880Y-78986620D03*
X167431260Y-78986620D03*
X167929100Y-78986620D03*
X168429480Y-78986620D03*
X168929860Y-78986620D03*
X169430240Y-78986620D03*
X169930620Y-78986620D03*
X170431000Y-78986620D03*
X170928840Y-78986620D03*
X171429220Y-78986620D03*
X171929600Y-78986620D03*
X172429980Y-78986620D03*
X172930360Y-78986620D03*
X173430740Y-78986620D03*
X173931120Y-78986620D03*
X174428960Y-78986620D03*
X174428960Y-58788540D03*
X173931120Y-58788540D03*
X173430740Y-58788540D03*
X172930360Y-58788540D03*
X172429980Y-58788540D03*
X171929600Y-58788540D03*
X171429220Y-58788540D03*
X170928840Y-58788540D03*
X170431000Y-58788540D03*
X169930620Y-58788540D03*
X169430240Y-58788540D03*
X168929860Y-58788540D03*
X168429480Y-58788540D03*
X167929100Y-58788540D03*
X167431260Y-58788540D03*
X166930880Y-58788540D03*
X166430500Y-58788540D03*
X165930120Y-58788540D03*
X165429740Y-58788540D03*
X164929360Y-58788540D03*
X164428980Y-58788540D03*
X163931140Y-58788540D03*
X163430760Y-58788540D03*
X162930380Y-58788540D03*
D25*
X181825000Y-92950000D03*
X182475000Y-92950000D03*
X183125000Y-92950000D03*
X183775000Y-92950000D03*
X184425000Y-92950000D03*
X185075000Y-92950000D03*
X185725000Y-92950000D03*
X186375000Y-92950000D03*
X187025000Y-92950000D03*
X187675000Y-92950000D03*
X187675000Y-87050000D03*
X187025000Y-87050000D03*
X186375000Y-87050000D03*
X185725000Y-87050000D03*
X185075000Y-87050000D03*
X184425000Y-87050000D03*
X183775000Y-87050000D03*
X183125000Y-87050000D03*
X182475000Y-87050000D03*
X181825000Y-87050000D03*
X168675000Y-92950000D03*
X169325000Y-92950000D03*
X169975000Y-92950000D03*
X170625000Y-92950000D03*
X171275000Y-92950000D03*
X171925000Y-92950000D03*
X172575000Y-92950000D03*
X173225000Y-92950000D03*
X173875000Y-92950000D03*
X174525000Y-92950000D03*
X174525000Y-87050000D03*
X173875000Y-87050000D03*
X173225000Y-87050000D03*
X172575000Y-87050000D03*
X171925000Y-87050000D03*
X171275000Y-87050000D03*
X170625000Y-87050000D03*
X169975000Y-87050000D03*
X169325000Y-87050000D03*
X168675000Y-87050000D03*
X156525000Y-92950000D03*
X157175000Y-92950000D03*
X157825000Y-92950000D03*
X158475000Y-92950000D03*
X159125000Y-92950000D03*
X159775000Y-92950000D03*
X160425000Y-92950000D03*
X161075000Y-92950000D03*
X161725000Y-92950000D03*
X162375000Y-92950000D03*
X162375000Y-87050000D03*
X161725000Y-87050000D03*
X161075000Y-87050000D03*
X160425000Y-87050000D03*
X159775000Y-87050000D03*
X159125000Y-87050000D03*
X158475000Y-87050000D03*
X157825000Y-87050000D03*
X157175000Y-87050000D03*
X156525000Y-87050000D03*
G04 #@! TA.AperFunction,SMDPad,CuDef*
G36*
X199997624Y-73809867D02*
G01*
X200177229Y-73630262D01*
X200895650Y-74348683D01*
X200716045Y-74528288D01*
X199997624Y-73809867D01*
G37*
G04 #@! TD.AperFunction*
G04 #@! TA.AperFunction,SMDPad,CuDef*
G36*
X191520262Y-82287229D02*
G01*
X191699867Y-82107624D01*
X192418288Y-82826045D01*
X192238683Y-83005650D01*
X191520262Y-82287229D01*
G37*
G04 #@! TD.AperFunction*
G04 #@! TA.AperFunction,SMDPad,CuDef*
G36*
X191879473Y-81928019D02*
G01*
X192059078Y-81748414D01*
X192777499Y-82466835D01*
X192597894Y-82646440D01*
X191879473Y-81928019D01*
G37*
G04 #@! TD.AperFunction*
G04 #@! TA.AperFunction,SMDPad,CuDef*
G36*
X192220722Y-81586769D02*
G01*
X192400327Y-81407164D01*
X193118748Y-82125585D01*
X192939143Y-82305190D01*
X192220722Y-81586769D01*
G37*
G04 #@! TD.AperFunction*
G04 #@! TA.AperFunction,SMDPad,CuDef*
G36*
X192579933Y-81227559D02*
G01*
X192759538Y-81047954D01*
X193477959Y-81766375D01*
X193298354Y-81945980D01*
X192579933Y-81227559D01*
G37*
G04 #@! TD.AperFunction*
G04 #@! TA.AperFunction,SMDPad,CuDef*
G36*
X192939143Y-80868349D02*
G01*
X193118748Y-80688744D01*
X193837169Y-81407165D01*
X193657564Y-81586770D01*
X192939143Y-80868349D01*
G37*
G04 #@! TD.AperFunction*
G04 #@! TA.AperFunction,SMDPad,CuDef*
G36*
X193280393Y-80527099D02*
G01*
X193459998Y-80347494D01*
X194178419Y-81065915D01*
X193998814Y-81245520D01*
X193280393Y-80527099D01*
G37*
G04 #@! TD.AperFunction*
G04 #@! TA.AperFunction,SMDPad,CuDef*
G36*
X193639603Y-80167889D02*
G01*
X193819208Y-79988284D01*
X194537629Y-80706705D01*
X194358024Y-80886310D01*
X193639603Y-80167889D01*
G37*
G04 #@! TD.AperFunction*
G04 #@! TA.AperFunction,SMDPad,CuDef*
G36*
X193998813Y-79808678D02*
G01*
X194178418Y-79629073D01*
X194896839Y-80347494D01*
X194717234Y-80527099D01*
X193998813Y-79808678D01*
G37*
G04 #@! TD.AperFunction*
G04 #@! TA.AperFunction,SMDPad,CuDef*
G36*
X194340063Y-79467429D02*
G01*
X194519668Y-79287824D01*
X195238089Y-80006245D01*
X195058484Y-80185850D01*
X194340063Y-79467429D01*
G37*
G04 #@! TD.AperFunction*
G04 #@! TA.AperFunction,SMDPad,CuDef*
G36*
X194699273Y-79108218D02*
G01*
X194878878Y-78928613D01*
X195597299Y-79647034D01*
X195417694Y-79826639D01*
X194699273Y-79108218D01*
G37*
G04 #@! TD.AperFunction*
G04 #@! TA.AperFunction,SMDPad,CuDef*
G36*
X195058483Y-78749008D02*
G01*
X195238088Y-78569403D01*
X195956509Y-79287824D01*
X195776904Y-79467429D01*
X195058483Y-78749008D01*
G37*
G04 #@! TD.AperFunction*
G04 #@! TA.AperFunction,SMDPad,CuDef*
G36*
X195417694Y-78389798D02*
G01*
X195597299Y-78210193D01*
X196315720Y-78928614D01*
X196136115Y-79108219D01*
X195417694Y-78389798D01*
G37*
G04 #@! TD.AperFunction*
G04 #@! TA.AperFunction,SMDPad,CuDef*
G36*
X195758943Y-78048548D02*
G01*
X195938548Y-77868943D01*
X196656969Y-78587364D01*
X196477364Y-78766969D01*
X195758943Y-78048548D01*
G37*
G04 #@! TD.AperFunction*
G04 #@! TA.AperFunction,SMDPad,CuDef*
G36*
X196118153Y-77689338D02*
G01*
X196297758Y-77509733D01*
X197016179Y-78228154D01*
X196836574Y-78407759D01*
X196118153Y-77689338D01*
G37*
G04 #@! TD.AperFunction*
G04 #@! TA.AperFunction,SMDPad,CuDef*
G36*
X196477364Y-77330128D02*
G01*
X196656969Y-77150523D01*
X197375390Y-77868944D01*
X197195785Y-78048549D01*
X196477364Y-77330128D01*
G37*
G04 #@! TD.AperFunction*
G04 #@! TA.AperFunction,SMDPad,CuDef*
G36*
X196818613Y-76988878D02*
G01*
X196998218Y-76809273D01*
X197716639Y-77527694D01*
X197537034Y-77707299D01*
X196818613Y-76988878D01*
G37*
G04 #@! TD.AperFunction*
G04 #@! TA.AperFunction,SMDPad,CuDef*
G36*
X197177824Y-76629668D02*
G01*
X197357429Y-76450063D01*
X198075850Y-77168484D01*
X197896245Y-77348089D01*
X197177824Y-76629668D01*
G37*
G04 #@! TD.AperFunction*
G04 #@! TA.AperFunction,SMDPad,CuDef*
G36*
X197537034Y-76270458D02*
G01*
X197716639Y-76090853D01*
X198435060Y-76809274D01*
X198255455Y-76988879D01*
X197537034Y-76270458D01*
G37*
G04 #@! TD.AperFunction*
G04 #@! TA.AperFunction,SMDPad,CuDef*
G36*
X197878284Y-75929208D02*
G01*
X198057889Y-75749603D01*
X198776310Y-76468024D01*
X198596705Y-76647629D01*
X197878284Y-75929208D01*
G37*
G04 #@! TD.AperFunction*
G04 #@! TA.AperFunction,SMDPad,CuDef*
G36*
X198237494Y-75569998D02*
G01*
X198417099Y-75390393D01*
X199135520Y-76108814D01*
X198955915Y-76288419D01*
X198237494Y-75569998D01*
G37*
G04 #@! TD.AperFunction*
G04 #@! TA.AperFunction,SMDPad,CuDef*
G36*
X198596704Y-75210787D02*
G01*
X198776309Y-75031182D01*
X199494730Y-75749603D01*
X199315125Y-75929208D01*
X198596704Y-75210787D01*
G37*
G04 #@! TD.AperFunction*
G04 #@! TA.AperFunction,SMDPad,CuDef*
G36*
X198937954Y-74869538D02*
G01*
X199117559Y-74689933D01*
X199835980Y-75408354D01*
X199656375Y-75587959D01*
X198937954Y-74869538D01*
G37*
G04 #@! TD.AperFunction*
G04 #@! TA.AperFunction,SMDPad,CuDef*
G36*
X199297164Y-74510327D02*
G01*
X199476769Y-74330722D01*
X200195190Y-75049143D01*
X200015585Y-75228748D01*
X199297164Y-74510327D01*
G37*
G04 #@! TD.AperFunction*
G04 #@! TA.AperFunction,SMDPad,CuDef*
G36*
X199656374Y-74151117D02*
G01*
X199835979Y-73971512D01*
X200554400Y-74689933D01*
X200374795Y-74869538D01*
X199656374Y-74151117D01*
G37*
G04 #@! TD.AperFunction*
G04 #@! TA.AperFunction,SMDPad,CuDef*
G36*
X189041712Y-82826045D02*
G01*
X189760133Y-82107624D01*
X189939738Y-82287229D01*
X189221317Y-83005650D01*
X189041712Y-82826045D01*
G37*
G04 #@! TD.AperFunction*
G04 #@! TA.AperFunction,SMDPad,CuDef*
G36*
X180564350Y-74348683D02*
G01*
X181282771Y-73630262D01*
X181462376Y-73809867D01*
X180743955Y-74528288D01*
X180564350Y-74348683D01*
G37*
G04 #@! TD.AperFunction*
G04 #@! TA.AperFunction,SMDPad,CuDef*
G36*
X180923560Y-74707894D02*
G01*
X181641981Y-73989473D01*
X181821586Y-74169078D01*
X181103165Y-74887499D01*
X180923560Y-74707894D01*
G37*
G04 #@! TD.AperFunction*
G04 #@! TA.AperFunction,SMDPad,CuDef*
G36*
X181264810Y-75049143D02*
G01*
X181983231Y-74330722D01*
X182162836Y-74510327D01*
X181444415Y-75228748D01*
X181264810Y-75049143D01*
G37*
G04 #@! TD.AperFunction*
G04 #@! TA.AperFunction,SMDPad,CuDef*
G36*
X181624020Y-75408354D02*
G01*
X182342441Y-74689933D01*
X182522046Y-74869538D01*
X181803625Y-75587959D01*
X181624020Y-75408354D01*
G37*
G04 #@! TD.AperFunction*
G04 #@! TA.AperFunction,SMDPad,CuDef*
G36*
X181983230Y-75767564D02*
G01*
X182701651Y-75049143D01*
X182881256Y-75228748D01*
X182162835Y-75947169D01*
X181983230Y-75767564D01*
G37*
G04 #@! TD.AperFunction*
G04 #@! TA.AperFunction,SMDPad,CuDef*
G36*
X182324480Y-76108814D02*
G01*
X183042901Y-75390393D01*
X183222506Y-75569998D01*
X182504085Y-76288419D01*
X182324480Y-76108814D01*
G37*
G04 #@! TD.AperFunction*
G04 #@! TA.AperFunction,SMDPad,CuDef*
G36*
X182683690Y-76468024D02*
G01*
X183402111Y-75749603D01*
X183581716Y-75929208D01*
X182863295Y-76647629D01*
X182683690Y-76468024D01*
G37*
G04 #@! TD.AperFunction*
G04 #@! TA.AperFunction,SMDPad,CuDef*
G36*
X183042901Y-76827234D02*
G01*
X183761322Y-76108813D01*
X183940927Y-76288418D01*
X183222506Y-77006839D01*
X183042901Y-76827234D01*
G37*
G04 #@! TD.AperFunction*
G04 #@! TA.AperFunction,SMDPad,CuDef*
G36*
X183384150Y-77168484D02*
G01*
X184102571Y-76450063D01*
X184282176Y-76629668D01*
X183563755Y-77348089D01*
X183384150Y-77168484D01*
G37*
G04 #@! TD.AperFunction*
G04 #@! TA.AperFunction,SMDPad,CuDef*
G36*
X183743361Y-77527694D02*
G01*
X184461782Y-76809273D01*
X184641387Y-76988878D01*
X183922966Y-77707299D01*
X183743361Y-77527694D01*
G37*
G04 #@! TD.AperFunction*
G04 #@! TA.AperFunction,SMDPad,CuDef*
G36*
X184102571Y-77886904D02*
G01*
X184820992Y-77168483D01*
X185000597Y-77348088D01*
X184282176Y-78066509D01*
X184102571Y-77886904D01*
G37*
G04 #@! TD.AperFunction*
G04 #@! TA.AperFunction,SMDPad,CuDef*
G36*
X184461781Y-78246115D02*
G01*
X185180202Y-77527694D01*
X185359807Y-77707299D01*
X184641386Y-78425720D01*
X184461781Y-78246115D01*
G37*
G04 #@! TD.AperFunction*
G04 #@! TA.AperFunction,SMDPad,CuDef*
G36*
X184803031Y-78587364D02*
G01*
X185521452Y-77868943D01*
X185701057Y-78048548D01*
X184982636Y-78766969D01*
X184803031Y-78587364D01*
G37*
G04 #@! TD.AperFunction*
G04 #@! TA.AperFunction,SMDPad,CuDef*
G36*
X185162241Y-78946574D02*
G01*
X185880662Y-78228153D01*
X186060267Y-78407758D01*
X185341846Y-79126179D01*
X185162241Y-78946574D01*
G37*
G04 #@! TD.AperFunction*
G04 #@! TA.AperFunction,SMDPad,CuDef*
G36*
X185521451Y-79305785D02*
G01*
X186239872Y-78587364D01*
X186419477Y-78766969D01*
X185701056Y-79485390D01*
X185521451Y-79305785D01*
G37*
G04 #@! TD.AperFunction*
G04 #@! TA.AperFunction,SMDPad,CuDef*
G36*
X185862701Y-79647034D02*
G01*
X186581122Y-78928613D01*
X186760727Y-79108218D01*
X186042306Y-79826639D01*
X185862701Y-79647034D01*
G37*
G04 #@! TD.AperFunction*
G04 #@! TA.AperFunction,SMDPad,CuDef*
G36*
X186221911Y-80006245D02*
G01*
X186940332Y-79287824D01*
X187119937Y-79467429D01*
X186401516Y-80185850D01*
X186221911Y-80006245D01*
G37*
G04 #@! TD.AperFunction*
G04 #@! TA.AperFunction,SMDPad,CuDef*
G36*
X186581121Y-80365455D02*
G01*
X187299542Y-79647034D01*
X187479147Y-79826639D01*
X186760726Y-80545060D01*
X186581121Y-80365455D01*
G37*
G04 #@! TD.AperFunction*
G04 #@! TA.AperFunction,SMDPad,CuDef*
G36*
X186922371Y-80706705D02*
G01*
X187640792Y-79988284D01*
X187820397Y-80167889D01*
X187101976Y-80886310D01*
X186922371Y-80706705D01*
G37*
G04 #@! TD.AperFunction*
G04 #@! TA.AperFunction,SMDPad,CuDef*
G36*
X187281581Y-81065915D02*
G01*
X188000002Y-80347494D01*
X188179607Y-80527099D01*
X187461186Y-81245520D01*
X187281581Y-81065915D01*
G37*
G04 #@! TD.AperFunction*
G04 #@! TA.AperFunction,SMDPad,CuDef*
G36*
X187640792Y-81425125D02*
G01*
X188359213Y-80706704D01*
X188538818Y-80886309D01*
X187820397Y-81604730D01*
X187640792Y-81425125D01*
G37*
G04 #@! TD.AperFunction*
G04 #@! TA.AperFunction,SMDPad,CuDef*
G36*
X187982041Y-81766375D02*
G01*
X188700462Y-81047954D01*
X188880067Y-81227559D01*
X188161646Y-81945980D01*
X187982041Y-81766375D01*
G37*
G04 #@! TD.AperFunction*
G04 #@! TA.AperFunction,SMDPad,CuDef*
G36*
X188341252Y-82125585D02*
G01*
X189059673Y-81407164D01*
X189239278Y-81586769D01*
X188520857Y-82305190D01*
X188341252Y-82125585D01*
G37*
G04 #@! TD.AperFunction*
G04 #@! TA.AperFunction,SMDPad,CuDef*
G36*
X188700462Y-82484795D02*
G01*
X189418883Y-81766374D01*
X189598488Y-81945979D01*
X188880067Y-82664400D01*
X188700462Y-82484795D01*
G37*
G04 #@! TD.AperFunction*
G04 #@! TA.AperFunction,SMDPad,CuDef*
G36*
X199997624Y-71870133D02*
G01*
X200716045Y-71151712D01*
X200895650Y-71331317D01*
X200177229Y-72049738D01*
X199997624Y-71870133D01*
G37*
G04 #@! TD.AperFunction*
G04 #@! TA.AperFunction,SMDPad,CuDef*
G36*
X199638414Y-71510922D02*
G01*
X200356835Y-70792501D01*
X200536440Y-70972106D01*
X199818019Y-71690527D01*
X199638414Y-71510922D01*
G37*
G04 #@! TD.AperFunction*
G04 #@! TA.AperFunction,SMDPad,CuDef*
G36*
X199297164Y-71169673D02*
G01*
X200015585Y-70451252D01*
X200195190Y-70630857D01*
X199476769Y-71349278D01*
X199297164Y-71169673D01*
G37*
G04 #@! TD.AperFunction*
G04 #@! TA.AperFunction,SMDPad,CuDef*
G36*
X198937954Y-70810462D02*
G01*
X199656375Y-70092041D01*
X199835980Y-70271646D01*
X199117559Y-70990067D01*
X198937954Y-70810462D01*
G37*
G04 #@! TD.AperFunction*
G04 #@! TA.AperFunction,SMDPad,CuDef*
G36*
X198578744Y-70451252D02*
G01*
X199297165Y-69732831D01*
X199476770Y-69912436D01*
X198758349Y-70630857D01*
X198578744Y-70451252D01*
G37*
G04 #@! TD.AperFunction*
G04 #@! TA.AperFunction,SMDPad,CuDef*
G36*
X198237494Y-70110002D02*
G01*
X198955915Y-69391581D01*
X199135520Y-69571186D01*
X198417099Y-70289607D01*
X198237494Y-70110002D01*
G37*
G04 #@! TD.AperFunction*
G04 #@! TA.AperFunction,SMDPad,CuDef*
G36*
X197878284Y-69750792D02*
G01*
X198596705Y-69032371D01*
X198776310Y-69211976D01*
X198057889Y-69930397D01*
X197878284Y-69750792D01*
G37*
G04 #@! TD.AperFunction*
G04 #@! TA.AperFunction,SMDPad,CuDef*
G36*
X197519073Y-69391582D02*
G01*
X198237494Y-68673161D01*
X198417099Y-68852766D01*
X197698678Y-69571187D01*
X197519073Y-69391582D01*
G37*
G04 #@! TD.AperFunction*
G04 #@! TA.AperFunction,SMDPad,CuDef*
G36*
X197177824Y-69050332D02*
G01*
X197896245Y-68331911D01*
X198075850Y-68511516D01*
X197357429Y-69229937D01*
X197177824Y-69050332D01*
G37*
G04 #@! TD.AperFunction*
G04 #@! TA.AperFunction,SMDPad,CuDef*
G36*
X196818613Y-68691122D02*
G01*
X197537034Y-67972701D01*
X197716639Y-68152306D01*
X196998218Y-68870727D01*
X196818613Y-68691122D01*
G37*
G04 #@! TD.AperFunction*
G04 #@! TA.AperFunction,SMDPad,CuDef*
G36*
X196459403Y-68331912D02*
G01*
X197177824Y-67613491D01*
X197357429Y-67793096D01*
X196639008Y-68511517D01*
X196459403Y-68331912D01*
G37*
G04 #@! TD.AperFunction*
G04 #@! TA.AperFunction,SMDPad,CuDef*
G36*
X196100193Y-67972701D02*
G01*
X196818614Y-67254280D01*
X196998219Y-67433885D01*
X196279798Y-68152306D01*
X196100193Y-67972701D01*
G37*
G04 #@! TD.AperFunction*
G04 #@! TA.AperFunction,SMDPad,CuDef*
G36*
X195758943Y-67631452D02*
G01*
X196477364Y-66913031D01*
X196656969Y-67092636D01*
X195938548Y-67811057D01*
X195758943Y-67631452D01*
G37*
G04 #@! TD.AperFunction*
G04 #@! TA.AperFunction,SMDPad,CuDef*
G36*
X195399733Y-67272242D02*
G01*
X196118154Y-66553821D01*
X196297759Y-66733426D01*
X195579338Y-67451847D01*
X195399733Y-67272242D01*
G37*
G04 #@! TD.AperFunction*
G04 #@! TA.AperFunction,SMDPad,CuDef*
G36*
X195040523Y-66913031D02*
G01*
X195758944Y-66194610D01*
X195938549Y-66374215D01*
X195220128Y-67092636D01*
X195040523Y-66913031D01*
G37*
G04 #@! TD.AperFunction*
G04 #@! TA.AperFunction,SMDPad,CuDef*
G36*
X194699273Y-66571782D02*
G01*
X195417694Y-65853361D01*
X195597299Y-66032966D01*
X194878878Y-66751387D01*
X194699273Y-66571782D01*
G37*
G04 #@! TD.AperFunction*
G04 #@! TA.AperFunction,SMDPad,CuDef*
G36*
X194340063Y-66212571D02*
G01*
X195058484Y-65494150D01*
X195238089Y-65673755D01*
X194519668Y-66392176D01*
X194340063Y-66212571D01*
G37*
G04 #@! TD.AperFunction*
G04 #@! TA.AperFunction,SMDPad,CuDef*
G36*
X193980853Y-65853361D02*
G01*
X194699274Y-65134940D01*
X194878879Y-65314545D01*
X194160458Y-66032966D01*
X193980853Y-65853361D01*
G37*
G04 #@! TD.AperFunction*
G04 #@! TA.AperFunction,SMDPad,CuDef*
G36*
X193639603Y-65512111D02*
G01*
X194358024Y-64793690D01*
X194537629Y-64973295D01*
X193819208Y-65691716D01*
X193639603Y-65512111D01*
G37*
G04 #@! TD.AperFunction*
G04 #@! TA.AperFunction,SMDPad,CuDef*
G36*
X193280393Y-65152901D02*
G01*
X193998814Y-64434480D01*
X194178419Y-64614085D01*
X193459998Y-65332506D01*
X193280393Y-65152901D01*
G37*
G04 #@! TD.AperFunction*
G04 #@! TA.AperFunction,SMDPad,CuDef*
G36*
X192921182Y-64793691D02*
G01*
X193639603Y-64075270D01*
X193819208Y-64254875D01*
X193100787Y-64973296D01*
X192921182Y-64793691D01*
G37*
G04 #@! TD.AperFunction*
G04 #@! TA.AperFunction,SMDPad,CuDef*
G36*
X192579933Y-64452441D02*
G01*
X193298354Y-63734020D01*
X193477959Y-63913625D01*
X192759538Y-64632046D01*
X192579933Y-64452441D01*
G37*
G04 #@! TD.AperFunction*
G04 #@! TA.AperFunction,SMDPad,CuDef*
G36*
X192220722Y-64093231D02*
G01*
X192939143Y-63374810D01*
X193118748Y-63554415D01*
X192400327Y-64272836D01*
X192220722Y-64093231D01*
G37*
G04 #@! TD.AperFunction*
G04 #@! TA.AperFunction,SMDPad,CuDef*
G36*
X191861512Y-63734021D02*
G01*
X192579933Y-63015600D01*
X192759538Y-63195205D01*
X192041117Y-63913626D01*
X191861512Y-63734021D01*
G37*
G04 #@! TD.AperFunction*
G04 #@! TA.AperFunction,SMDPad,CuDef*
G36*
X191520262Y-63392771D02*
G01*
X192238683Y-62674350D01*
X192418288Y-62853955D01*
X191699867Y-63572376D01*
X191520262Y-63392771D01*
G37*
G04 #@! TD.AperFunction*
G04 #@! TA.AperFunction,SMDPad,CuDef*
G36*
X189041712Y-62853955D02*
G01*
X189221317Y-62674350D01*
X189939738Y-63392771D01*
X189760133Y-63572376D01*
X189041712Y-62853955D01*
G37*
G04 #@! TD.AperFunction*
G04 #@! TA.AperFunction,SMDPad,CuDef*
G36*
X188682501Y-63213165D02*
G01*
X188862106Y-63033560D01*
X189580527Y-63751981D01*
X189400922Y-63931586D01*
X188682501Y-63213165D01*
G37*
G04 #@! TD.AperFunction*
G04 #@! TA.AperFunction,SMDPad,CuDef*
G36*
X188341252Y-63554415D02*
G01*
X188520857Y-63374810D01*
X189239278Y-64093231D01*
X189059673Y-64272836D01*
X188341252Y-63554415D01*
G37*
G04 #@! TD.AperFunction*
G04 #@! TA.AperFunction,SMDPad,CuDef*
G36*
X187982041Y-63913625D02*
G01*
X188161646Y-63734020D01*
X188880067Y-64452441D01*
X188700462Y-64632046D01*
X187982041Y-63913625D01*
G37*
G04 #@! TD.AperFunction*
G04 #@! TA.AperFunction,SMDPad,CuDef*
G36*
X187622831Y-64272835D02*
G01*
X187802436Y-64093230D01*
X188520857Y-64811651D01*
X188341252Y-64991256D01*
X187622831Y-64272835D01*
G37*
G04 #@! TD.AperFunction*
G04 #@! TA.AperFunction,SMDPad,CuDef*
G36*
X187281581Y-64614085D02*
G01*
X187461186Y-64434480D01*
X188179607Y-65152901D01*
X188000002Y-65332506D01*
X187281581Y-64614085D01*
G37*
G04 #@! TD.AperFunction*
G04 #@! TA.AperFunction,SMDPad,CuDef*
G36*
X186922371Y-64973295D02*
G01*
X187101976Y-64793690D01*
X187820397Y-65512111D01*
X187640792Y-65691716D01*
X186922371Y-64973295D01*
G37*
G04 #@! TD.AperFunction*
G04 #@! TA.AperFunction,SMDPad,CuDef*
G36*
X186563161Y-65332506D02*
G01*
X186742766Y-65152901D01*
X187461187Y-65871322D01*
X187281582Y-66050927D01*
X186563161Y-65332506D01*
G37*
G04 #@! TD.AperFunction*
G04 #@! TA.AperFunction,SMDPad,CuDef*
G36*
X186221911Y-65673755D02*
G01*
X186401516Y-65494150D01*
X187119937Y-66212571D01*
X186940332Y-66392176D01*
X186221911Y-65673755D01*
G37*
G04 #@! TD.AperFunction*
G04 #@! TA.AperFunction,SMDPad,CuDef*
G36*
X185862701Y-66032966D02*
G01*
X186042306Y-65853361D01*
X186760727Y-66571782D01*
X186581122Y-66751387D01*
X185862701Y-66032966D01*
G37*
G04 #@! TD.AperFunction*
G04 #@! TA.AperFunction,SMDPad,CuDef*
G36*
X185503491Y-66392176D02*
G01*
X185683096Y-66212571D01*
X186401517Y-66930992D01*
X186221912Y-67110597D01*
X185503491Y-66392176D01*
G37*
G04 #@! TD.AperFunction*
G04 #@! TA.AperFunction,SMDPad,CuDef*
G36*
X185144280Y-66751386D02*
G01*
X185323885Y-66571781D01*
X186042306Y-67290202D01*
X185862701Y-67469807D01*
X185144280Y-66751386D01*
G37*
G04 #@! TD.AperFunction*
G04 #@! TA.AperFunction,SMDPad,CuDef*
G36*
X184803031Y-67092636D02*
G01*
X184982636Y-66913031D01*
X185701057Y-67631452D01*
X185521452Y-67811057D01*
X184803031Y-67092636D01*
G37*
G04 #@! TD.AperFunction*
G04 #@! TA.AperFunction,SMDPad,CuDef*
G36*
X184443821Y-67451846D02*
G01*
X184623426Y-67272241D01*
X185341847Y-67990662D01*
X185162242Y-68170267D01*
X184443821Y-67451846D01*
G37*
G04 #@! TD.AperFunction*
G04 #@! TA.AperFunction,SMDPad,CuDef*
G36*
X184084610Y-67811056D02*
G01*
X184264215Y-67631451D01*
X184982636Y-68349872D01*
X184803031Y-68529477D01*
X184084610Y-67811056D01*
G37*
G04 #@! TD.AperFunction*
G04 #@! TA.AperFunction,SMDPad,CuDef*
G36*
X183743361Y-68152306D02*
G01*
X183922966Y-67972701D01*
X184641387Y-68691122D01*
X184461782Y-68870727D01*
X183743361Y-68152306D01*
G37*
G04 #@! TD.AperFunction*
G04 #@! TA.AperFunction,SMDPad,CuDef*
G36*
X183384150Y-68511516D02*
G01*
X183563755Y-68331911D01*
X184282176Y-69050332D01*
X184102571Y-69229937D01*
X183384150Y-68511516D01*
G37*
G04 #@! TD.AperFunction*
G04 #@! TA.AperFunction,SMDPad,CuDef*
G36*
X183024940Y-68870726D02*
G01*
X183204545Y-68691121D01*
X183922966Y-69409542D01*
X183743361Y-69589147D01*
X183024940Y-68870726D01*
G37*
G04 #@! TD.AperFunction*
G04 #@! TA.AperFunction,SMDPad,CuDef*
G36*
X182683690Y-69211976D02*
G01*
X182863295Y-69032371D01*
X183581716Y-69750792D01*
X183402111Y-69930397D01*
X182683690Y-69211976D01*
G37*
G04 #@! TD.AperFunction*
G04 #@! TA.AperFunction,SMDPad,CuDef*
G36*
X182324480Y-69571186D02*
G01*
X182504085Y-69391581D01*
X183222506Y-70110002D01*
X183042901Y-70289607D01*
X182324480Y-69571186D01*
G37*
G04 #@! TD.AperFunction*
G04 #@! TA.AperFunction,SMDPad,CuDef*
G36*
X181965270Y-69930397D02*
G01*
X182144875Y-69750792D01*
X182863296Y-70469213D01*
X182683691Y-70648818D01*
X181965270Y-69930397D01*
G37*
G04 #@! TD.AperFunction*
G04 #@! TA.AperFunction,SMDPad,CuDef*
G36*
X181624020Y-70271646D02*
G01*
X181803625Y-70092041D01*
X182522046Y-70810462D01*
X182342441Y-70990067D01*
X181624020Y-70271646D01*
G37*
G04 #@! TD.AperFunction*
G04 #@! TA.AperFunction,SMDPad,CuDef*
G36*
X181264810Y-70630857D02*
G01*
X181444415Y-70451252D01*
X182162836Y-71169673D01*
X181983231Y-71349278D01*
X181264810Y-70630857D01*
G37*
G04 #@! TD.AperFunction*
G04 #@! TA.AperFunction,SMDPad,CuDef*
G36*
X180905600Y-70990067D02*
G01*
X181085205Y-70810462D01*
X181803626Y-71528883D01*
X181624021Y-71708488D01*
X180905600Y-70990067D01*
G37*
G04 #@! TD.AperFunction*
G04 #@! TA.AperFunction,SMDPad,CuDef*
G36*
X180564350Y-71331317D02*
G01*
X180743955Y-71151712D01*
X181462376Y-71870133D01*
X181282771Y-72049738D01*
X180564350Y-71331317D01*
G37*
G04 #@! TD.AperFunction*
D21*
X201575000Y-59175000D03*
D29*
X229781100Y-101193600D03*
X227241100Y-101193600D03*
X224701100Y-101193600D03*
X222161100Y-101193600D03*
X219621100Y-101193600D03*
X217081100Y-101193600D03*
X214541100Y-101193600D03*
X212001100Y-101193600D03*
X209461100Y-101193600D03*
X206921100Y-101193600D03*
X204381100Y-101193600D03*
X201841100Y-101193600D03*
X199301100Y-101193600D03*
X196761100Y-101193600D03*
X194221100Y-101193600D03*
X191681100Y-101193600D03*
X189141100Y-101193600D03*
X186601100Y-101193600D03*
X184061100Y-101193600D03*
X181521100Y-101193600D03*
X178981100Y-101193600D03*
X176441100Y-101193600D03*
X173901100Y-101193600D03*
X171361100Y-101193600D03*
X168821100Y-101193600D03*
X166281100Y-101193600D03*
X163741100Y-101193600D03*
X161201100Y-101193600D03*
X158661100Y-101193600D03*
X156121100Y-101193600D03*
X153581100Y-101193600D03*
X151041100Y-101193600D03*
D30*
X229810000Y-87790000D03*
D31*
X183110000Y-79550000D03*
X183000000Y-78680000D03*
X175437590Y-79125000D03*
X186780000Y-76840000D03*
X186250000Y-76220000D03*
D30*
X220100000Y-85225000D03*
X153924000Y-96012000D03*
D31*
X225250000Y-94475000D03*
X215025000Y-97275000D03*
X220450000Y-94575000D03*
X217550000Y-96950010D03*
X220750000Y-95425000D03*
X222800000Y-97275000D03*
X222600000Y-96097600D03*
X200450000Y-60475000D03*
X226524998Y-84950000D03*
X225375000Y-97225000D03*
X180200000Y-62475000D03*
X182950000Y-65500000D03*
X183550000Y-64825000D03*
X180850000Y-61975000D03*
X168775000Y-73722412D03*
X175650000Y-59725000D03*
X189650000Y-80525000D03*
X188925000Y-79400000D03*
X173250000Y-76625000D03*
X188199703Y-78227697D03*
X172300000Y-76875000D03*
X172850000Y-82675000D03*
X172775000Y-85400000D03*
X164825000Y-81575000D03*
X163375000Y-82950000D03*
X164483540Y-76975000D03*
X171375000Y-85150000D03*
X177860000Y-85320000D03*
X163983160Y-76200000D03*
X183075000Y-84682410D03*
X163750000Y-75350000D03*
X163381189Y-74694179D03*
X184402400Y-83700000D03*
X178875000Y-63675000D03*
X180850000Y-65775000D03*
X179525000Y-62975000D03*
X181625000Y-65175000D03*
X192921490Y-77443496D03*
X170175000Y-72275000D03*
X192775000Y-76475000D03*
X172700000Y-72200000D03*
X196600000Y-75175000D03*
X173900000Y-71275000D03*
X196672511Y-74070189D03*
X173050000Y-69322600D03*
X173280102Y-68128675D03*
X195200000Y-72550000D03*
X213650000Y-85075000D03*
X201250000Y-81525000D03*
X195475000Y-75800000D03*
X170550000Y-67375000D03*
X171012900Y-65600052D03*
X190867503Y-69429259D03*
X190136425Y-69251355D03*
X171981630Y-63815301D03*
X189354821Y-74634122D03*
X171400000Y-72150000D03*
X207690000Y-54300000D03*
X206122466Y-53715179D03*
X206835545Y-54228583D03*
X214625000Y-59900000D03*
X207375000Y-55125000D03*
X191156636Y-73984420D03*
X172600000Y-71000000D03*
X197425419Y-74259634D03*
X173850000Y-70225000D03*
X195783823Y-73385095D03*
X174075000Y-68625000D03*
X171175000Y-68325000D03*
X195975000Y-72400000D03*
X171047601Y-66352401D03*
X192100000Y-69592787D03*
X190118191Y-70005201D03*
X171620613Y-65022601D03*
X193560758Y-77046684D03*
X192771639Y-78804811D03*
X172482010Y-62800000D03*
X189354821Y-68850009D03*
X222970406Y-85478006D03*
X200371887Y-62928113D03*
X202054274Y-62385500D03*
X224278225Y-85506217D03*
X201789733Y-61570960D03*
X225575000Y-85300000D03*
X187551796Y-84724867D03*
X190725000Y-95100000D03*
X188172590Y-85150000D03*
X192075000Y-94975000D03*
X188797590Y-89450000D03*
X189525000Y-83950000D03*
X205550000Y-57000000D03*
X194250000Y-69700000D03*
X205875000Y-90075000D03*
X209550000Y-94550000D03*
X198900000Y-95000000D03*
X160500000Y-84925000D03*
X170975000Y-82600000D03*
X157850000Y-85550000D03*
X170950000Y-81725000D03*
X170200000Y-84100000D03*
X171975000Y-82575000D03*
X167500000Y-73722410D03*
X185725000Y-84975000D03*
X159192410Y-82700000D03*
X160370000Y-81880000D03*
D30*
X216925000Y-74400000D03*
X155956000Y-89408000D03*
D31*
X171637500Y-54087500D03*
D30*
X194000000Y-94225001D03*
X183287500Y-60937500D03*
X197350000Y-86850000D03*
X208100000Y-85975000D03*
X197575000Y-52350000D03*
X186375000Y-88675000D03*
X217825000Y-82075000D03*
X191275000Y-89025000D03*
X197350000Y-83600000D03*
X218100000Y-87275000D03*
X179750000Y-87400000D03*
X166950000Y-87450000D03*
D31*
X220009389Y-97240615D03*
X221625000Y-95650000D03*
X161175000Y-96975000D03*
X188300006Y-97175000D03*
X166475000Y-97050000D03*
X171600000Y-97050000D03*
X175975000Y-97225000D03*
X181525000Y-97375000D03*
X185675002Y-96275000D03*
X190675002Y-97225000D03*
X199725000Y-97225000D03*
X201775000Y-97100000D03*
X206275000Y-97175000D03*
X208075000Y-96975000D03*
X213900000Y-97325000D03*
X219100000Y-97250000D03*
X211147590Y-97281958D03*
X203746887Y-97278113D03*
X198450000Y-97125000D03*
X184050000Y-97225000D03*
X179850022Y-97050000D03*
X173825000Y-96975000D03*
X169075000Y-97075000D03*
X163775000Y-97050000D03*
X216500000Y-97200000D03*
X221700000Y-97225000D03*
X224200000Y-97275000D03*
X158750000Y-96900000D03*
X156125000Y-97125000D03*
D30*
X229825000Y-51425000D03*
X201275000Y-80025000D03*
X202225000Y-73550000D03*
X221900000Y-72925000D03*
D31*
X150876000Y-97028000D03*
X149606000Y-96647000D03*
D30*
X176025490Y-64725000D03*
X224510000Y-61280000D03*
X168475000Y-54000000D03*
X181450004Y-47875000D03*
X211275000Y-56850000D03*
X176775000Y-62375000D03*
X194290989Y-82759011D03*
D31*
X163925000Y-56400000D03*
X173425000Y-56125000D03*
D30*
X183425000Y-63050000D03*
X178725000Y-67525000D03*
X194725000Y-96550000D03*
D31*
X201950000Y-66550000D03*
X198025000Y-67000000D03*
X184365921Y-80640921D03*
X196700000Y-96400000D03*
X190345179Y-80900000D03*
X200000000Y-56425000D03*
X201450000Y-56750000D03*
X202750000Y-57475000D03*
D30*
X229781100Y-96038900D03*
X163545000Y-90275000D03*
X155740000Y-94830000D03*
X166730000Y-94590000D03*
X179800000Y-94900000D03*
X218680000Y-94040000D03*
D32*
X228500000Y-90220000D02*
X226230000Y-90220000D01*
X226230000Y-90220000D02*
X225500000Y-90950000D01*
X230500000Y-90220000D02*
X230500000Y-93140000D01*
X230650000Y-88630000D02*
X230650000Y-90070000D01*
X229810000Y-87790000D02*
X230650000Y-88630000D01*
X230650000Y-90070000D02*
X230500000Y-90220000D01*
X228500000Y-93140000D02*
X228500000Y-90220000D01*
X229748900Y-96038900D02*
X228500000Y-94790000D01*
X229781100Y-96038900D02*
X229748900Y-96038900D01*
X228500000Y-94790000D02*
X228500000Y-93140000D01*
X225500000Y-89760000D02*
X228050000Y-87210000D01*
X225500000Y-90950000D02*
X225500000Y-89760000D01*
X228050000Y-87210000D02*
X228050000Y-84550000D01*
X218570000Y-72930000D02*
X218570000Y-72170000D01*
X218570000Y-72170000D02*
X211144670Y-64744670D01*
X211144670Y-64744670D02*
X210509670Y-64744670D01*
X218570000Y-72930000D02*
X218570000Y-73950000D01*
X218570000Y-73950000D02*
X220400000Y-75780000D01*
X220400000Y-75780000D02*
X220400000Y-79275000D01*
D33*
X210509670Y-64744670D02*
X199919670Y-64744670D01*
D32*
X228050000Y-84550000D02*
X227770000Y-84830000D01*
X229810000Y-87790000D02*
X229810000Y-86860000D01*
X229810000Y-86860000D02*
X229810000Y-85790000D01*
X228050000Y-84550000D02*
X228050000Y-82925000D01*
X228050000Y-82925000D02*
X226700000Y-81575000D01*
X231050000Y-84550000D02*
X231050000Y-79425000D01*
X231050000Y-79425000D02*
X230125000Y-78500000D01*
X229810000Y-85790000D02*
X231050000Y-84550000D01*
X156055000Y-86580000D02*
X154210000Y-86580000D01*
X156525000Y-87050000D02*
X156055000Y-86580000D01*
X154210000Y-86580000D02*
X154170000Y-86540000D01*
X154170000Y-88540000D02*
X152970000Y-89740000D01*
X152970000Y-89740000D02*
X152980000Y-89750000D01*
X152980000Y-89750000D02*
X152980000Y-91600000D01*
X154170000Y-86540000D02*
X154170000Y-83770000D01*
X154170000Y-83770000D02*
X153950000Y-83550000D01*
X154170000Y-88540000D02*
X152780000Y-88540000D01*
X152780000Y-88540000D02*
X151060000Y-86820000D01*
X153680000Y-92300000D02*
X154500000Y-92300000D01*
X152980000Y-91600000D02*
X153680000Y-92300000D01*
X152950000Y-93770000D02*
X151610000Y-92430000D01*
X152950000Y-95038000D02*
X152950000Y-93770000D01*
X151610000Y-92430000D02*
X151060000Y-92430000D01*
X150876000Y-97028000D02*
X150876000Y-95614000D01*
X150876000Y-95614000D02*
X151060000Y-95430000D01*
X151060000Y-92430000D02*
X151060000Y-89820000D01*
X151060000Y-86820000D02*
X151060000Y-84140000D01*
X151060000Y-84140000D02*
X151650000Y-83550000D01*
X149430000Y-86255000D02*
X149430000Y-85945000D01*
X149430000Y-85945000D02*
X149400000Y-85915000D01*
D33*
X156625000Y-74825000D02*
X159450000Y-77650000D01*
X149875000Y-74825000D02*
X156625000Y-74825000D01*
X149400000Y-75300000D02*
X149875000Y-74825000D01*
X149400000Y-85915000D02*
X149400000Y-75300000D01*
X159450000Y-77650000D02*
X159450000Y-80350000D01*
X159450000Y-80350000D02*
X156250000Y-83550000D01*
D32*
X149430000Y-86255000D02*
X149430000Y-88190000D01*
X149430000Y-88190000D02*
X151060000Y-89820000D01*
X150860000Y-90020000D02*
X151060000Y-89820000D01*
D34*
X150876000Y-95446000D02*
X150860000Y-95430000D01*
D32*
X150962000Y-92328000D02*
X150860000Y-92430000D01*
D34*
X182319670Y-80340330D02*
X183110000Y-79550000D01*
X182319670Y-80369670D02*
X182319670Y-80340330D01*
X184192374Y-77258286D02*
X183000000Y-78450660D01*
X183000000Y-78450660D02*
X183000000Y-78680000D01*
X175299210Y-78986620D02*
X175437590Y-79125000D01*
X174428960Y-78986620D02*
X175299210Y-78986620D01*
X188450000Y-75170000D02*
X186780000Y-76840000D01*
X188450000Y-75120000D02*
X188450000Y-75170000D01*
X183491914Y-76557826D02*
X184129739Y-75920001D01*
X184129739Y-75920001D02*
X185950001Y-75920001D01*
X185950001Y-75920001D02*
X186250000Y-76220000D01*
X183132703Y-76198616D02*
X182702783Y-76628536D01*
X182702783Y-76628536D02*
X182671464Y-76628536D01*
X182671464Y-76628536D02*
X173225000Y-86075000D01*
X173225000Y-86075000D02*
X173225000Y-87000000D01*
D33*
X220675000Y-85800000D02*
X220100000Y-85225000D01*
X220675000Y-87000000D02*
X220675000Y-85800000D01*
X152950000Y-95038000D02*
X153924000Y-96012000D01*
D34*
X225225000Y-94450000D02*
X225250000Y-94475000D01*
X225225000Y-92900000D02*
X225225000Y-94450000D01*
X219754820Y-83679823D02*
X221325000Y-85250003D01*
X221325000Y-85250003D02*
X221325000Y-86075000D01*
X221325000Y-86075000D02*
X221325000Y-87000000D01*
X214658055Y-83679823D02*
X219754820Y-83679823D01*
X205362099Y-74383866D02*
X214658055Y-83679823D01*
X205362099Y-73391947D02*
X205362099Y-74383866D01*
X201722076Y-69751924D02*
X205362099Y-73391947D01*
X199457677Y-69751924D02*
X201722076Y-69751924D01*
X199027757Y-70181844D02*
X199457677Y-69751924D01*
X173939381Y-83272598D02*
X170234846Y-83272598D01*
X182073033Y-75138946D02*
X173939381Y-83272598D01*
X170234846Y-83272598D02*
X170232444Y-83275000D01*
X170232444Y-83275000D02*
X164575000Y-83275000D01*
X164575000Y-83275000D02*
X162375000Y-85475000D01*
X162375000Y-85475000D02*
X162375000Y-87050000D01*
X182002323Y-75928076D02*
X181971924Y-75928076D01*
X182432243Y-75498156D02*
X182002323Y-75928076D01*
X181971924Y-75928076D02*
X174075000Y-83825000D01*
X174075000Y-83825000D02*
X171475000Y-83825000D01*
X171475000Y-83825000D02*
X170625000Y-84675000D01*
X170625000Y-84675000D02*
X170625000Y-87000000D01*
X173937899Y-84675000D02*
X172425000Y-84675000D01*
X182773493Y-75839406D02*
X173937899Y-84675000D01*
X172425000Y-84675000D02*
X171975000Y-85125000D01*
X171975000Y-85125000D02*
X171975000Y-86950000D01*
X171975000Y-86950000D02*
X171925000Y-87000000D01*
X169975000Y-92900000D02*
X169975000Y-95275000D01*
X169975000Y-95275000D02*
X168350000Y-96900000D01*
X168350000Y-96900000D02*
X168350000Y-97650000D01*
X168350000Y-97650000D02*
X168821100Y-98121100D01*
X168821100Y-98121100D02*
X168821100Y-101193600D01*
X164425000Y-96275000D02*
X166281100Y-98131100D01*
X163575000Y-96275000D02*
X164425000Y-96275000D01*
X161849999Y-94549999D02*
X163575000Y-96275000D01*
X161849999Y-93649999D02*
X161849999Y-94549999D01*
X161725000Y-92950000D02*
X161725000Y-93525000D01*
X161725000Y-93525000D02*
X161849999Y-93649999D01*
X166281100Y-98131100D02*
X166281100Y-101193600D01*
X171361100Y-98061100D02*
X170775000Y-97475000D01*
X171361100Y-101193600D02*
X171361100Y-98061100D01*
X170775000Y-97475000D02*
X170775000Y-96775000D01*
X170775000Y-96775000D02*
X171275000Y-96275000D01*
X171275000Y-96275000D02*
X171275000Y-92900000D01*
X171275000Y-101107500D02*
X171361100Y-101193600D01*
X173901100Y-98121950D02*
X172575000Y-96795850D01*
X173901100Y-101193600D02*
X173901100Y-98121950D01*
X172575000Y-96795850D02*
X172575000Y-93725000D01*
X172575000Y-93725000D02*
X172575000Y-92900000D01*
X188600000Y-96450000D02*
X189141100Y-96991100D01*
X189141100Y-96991100D02*
X189141100Y-101193600D01*
X187800000Y-96450000D02*
X188600000Y-96450000D01*
X185775000Y-94425000D02*
X187800000Y-96450000D01*
X185775000Y-93875000D02*
X185775000Y-94425000D01*
X185725000Y-92900000D02*
X185725000Y-93825000D01*
X185725000Y-93825000D02*
X185775000Y-93875000D01*
X187025000Y-93825000D02*
X188500000Y-95300000D01*
X187025000Y-92900000D02*
X187025000Y-93825000D01*
X188500000Y-95300000D02*
X189600000Y-95300000D01*
X189600000Y-95300000D02*
X191681100Y-97381100D01*
X191681100Y-97381100D02*
X191681100Y-101193600D01*
X215025000Y-97275000D02*
X215025000Y-100709700D01*
X215025000Y-100709700D02*
X214541100Y-101193600D01*
X220675000Y-94350000D02*
X220450000Y-94575000D01*
X220675000Y-92900000D02*
X220675000Y-94350000D01*
X217250001Y-97250009D02*
X217550000Y-96950010D01*
X217081100Y-97418910D02*
X217250001Y-97250009D01*
X217081100Y-101193600D02*
X217081100Y-97418910D01*
X221325000Y-94850000D02*
X220750000Y-95425000D01*
X221325000Y-92900000D02*
X221325000Y-94850000D01*
X222800000Y-97275000D02*
X222161100Y-97913900D01*
X222161100Y-97913900D02*
X222161100Y-101193600D01*
X222625000Y-96072600D02*
X222600000Y-96097600D01*
X222625000Y-92900000D02*
X222625000Y-96072600D01*
X199538819Y-60475000D02*
X200450000Y-60475000D01*
X199143639Y-60870180D02*
X199538819Y-60475000D01*
X194429866Y-65583953D02*
X199143639Y-60870180D01*
X224701100Y-97767800D02*
X225243900Y-97225000D01*
X224701100Y-101193600D02*
X224701100Y-97767800D01*
X225243900Y-97225000D02*
X225375000Y-97225000D01*
X227241100Y-97767800D02*
X223925000Y-94451700D01*
X227241100Y-101193600D02*
X227241100Y-97767800D01*
X223925000Y-94451700D02*
X223925000Y-92900000D01*
X179355000Y-61630000D02*
X173560000Y-61630000D01*
X180200000Y-62475000D02*
X179355000Y-61630000D01*
X173560000Y-61630000D02*
X172930360Y-61000360D01*
X172930360Y-61000360D02*
X172930360Y-58788540D01*
X182950000Y-66496841D02*
X182950000Y-65500000D01*
X184533623Y-68080464D02*
X182950000Y-66496841D01*
X173931120Y-60256120D02*
X174497589Y-60822589D01*
X173931120Y-58788540D02*
X173931120Y-60256120D01*
X174497589Y-60822589D02*
X179697589Y-60822589D01*
X179697589Y-60822589D02*
X180550001Y-61675001D01*
X180550001Y-61675001D02*
X180850000Y-61975000D01*
X184892834Y-67721254D02*
X183550000Y-66378420D01*
X183550000Y-66378420D02*
X183550000Y-64825000D01*
X187300674Y-81226427D02*
X187730594Y-80796507D01*
X187007005Y-81520096D02*
X187300674Y-81226427D01*
X187007005Y-83953718D02*
X187007005Y-81520096D01*
X186646983Y-84313740D02*
X187007005Y-83953718D01*
X186646983Y-85696983D02*
X186646983Y-84313740D01*
X187025000Y-86075000D02*
X186646983Y-85696983D01*
X187025000Y-87000000D02*
X187025000Y-86075000D01*
X175650000Y-59725000D02*
X175365420Y-59725000D01*
X175365420Y-59725000D02*
X174428960Y-58788540D01*
X188160514Y-80366587D02*
X189491587Y-80366587D01*
X187730594Y-80796507D02*
X188160514Y-80366587D01*
X189491587Y-80366587D02*
X189650000Y-80525000D01*
X187030134Y-80096047D02*
X187726181Y-79400000D01*
X188500736Y-79400000D02*
X188925000Y-79400000D01*
X187726181Y-79400000D02*
X188500736Y-79400000D01*
X185075000Y-87000000D02*
X185075000Y-82051181D01*
X185075000Y-82051181D02*
X187030134Y-80096047D01*
X173931120Y-77306120D02*
X173549999Y-76924999D01*
X173549999Y-76924999D02*
X173250000Y-76625000D01*
X173931120Y-78986620D02*
X173931120Y-77306120D01*
X188180064Y-78227697D02*
X188199703Y-78227697D01*
X186670924Y-79736837D02*
X188180064Y-78227697D01*
X183850000Y-86000000D02*
X183850000Y-82557761D01*
X183850000Y-82557761D02*
X186670924Y-79736837D01*
X183775000Y-87000000D02*
X183775000Y-86075000D01*
X183775000Y-86075000D02*
X183850000Y-86000000D01*
X172419550Y-76875000D02*
X172300000Y-76875000D01*
X173430740Y-78986620D02*
X173430740Y-77886190D01*
X173430740Y-77886190D02*
X172419550Y-76875000D01*
X183491914Y-76557826D02*
X174525000Y-85524740D01*
X174525000Y-85524740D02*
X174525000Y-87000000D01*
X172850000Y-82675000D02*
X172850000Y-79066980D01*
X172850000Y-79066980D02*
X172930360Y-78986620D01*
X172575000Y-85600000D02*
X172775000Y-85400000D01*
X172575000Y-87000000D02*
X172575000Y-85600000D01*
X164825000Y-81575000D02*
X164825000Y-81150736D01*
X164825000Y-81150736D02*
X164929360Y-81046376D01*
X164929360Y-81046376D02*
X164929360Y-80087050D01*
X164929360Y-80087050D02*
X164929360Y-78986620D01*
X161725000Y-84600000D02*
X163375000Y-82950000D01*
X161725000Y-85075000D02*
X161725000Y-84600000D01*
X161725000Y-87050000D02*
X161725000Y-85075000D01*
X164428980Y-77029560D02*
X164483540Y-76975000D01*
X164428980Y-78986620D02*
X164428980Y-77029560D01*
X171275000Y-85250000D02*
X171375000Y-85150000D01*
X171275000Y-87000000D02*
X171275000Y-85250000D01*
X173875000Y-87925000D02*
X174450000Y-88500000D01*
X173875000Y-87000000D02*
X173875000Y-87925000D01*
X174450000Y-88500000D02*
X176390000Y-88500000D01*
X176390000Y-88500000D02*
X177870000Y-87020000D01*
X177870000Y-87020000D02*
X177870000Y-85330000D01*
X177870000Y-85330000D02*
X177860000Y-85320000D01*
X163931140Y-76252020D02*
X163983160Y-76200000D01*
X163931140Y-78986620D02*
X163931140Y-76252020D01*
X183075000Y-85106674D02*
X183075000Y-84682410D01*
X183075000Y-86950000D02*
X183075000Y-85106674D01*
X183125000Y-87000000D02*
X183075000Y-86950000D01*
X163430760Y-78986620D02*
X163430760Y-75669240D01*
X163430760Y-75669240D02*
X163450001Y-75649999D01*
X163450001Y-75649999D02*
X163750000Y-75350000D01*
X162930380Y-75144988D02*
X163081190Y-74994178D01*
X163081190Y-74994178D02*
X163381189Y-74694179D01*
X162930380Y-78991700D02*
X162930380Y-75144988D01*
X184402400Y-83700000D02*
X184402400Y-86977400D01*
X184402400Y-86977400D02*
X184425000Y-87000000D01*
X181713823Y-74779735D02*
X180504270Y-75989288D01*
X180504270Y-75989288D02*
X172229400Y-75989288D01*
X172229400Y-75989288D02*
X170431000Y-77787688D01*
X170431000Y-77886190D02*
X170431000Y-78986620D01*
X170431000Y-77787688D02*
X170431000Y-77886190D01*
X171207589Y-73522411D02*
X166930880Y-77799120D01*
X173277589Y-73522411D02*
X171207589Y-73522411D01*
X177925000Y-63675000D02*
X177492411Y-64107589D01*
X177492411Y-69307589D02*
X173277589Y-73522411D01*
X166930880Y-77886190D02*
X166930880Y-78986620D01*
X177492411Y-64107589D02*
X177492411Y-69307589D01*
X178875000Y-63675000D02*
X177925000Y-63675000D01*
X166930880Y-77799120D02*
X166930880Y-77886190D01*
X180850000Y-65825000D02*
X180850000Y-65775000D01*
X183375000Y-68350000D02*
X180850000Y-65825000D01*
X183402239Y-68350000D02*
X183375000Y-68350000D01*
X183402239Y-68350000D02*
X183833163Y-68780924D01*
X179020179Y-71626589D02*
X176771946Y-73874822D01*
X182073033Y-70541054D02*
X181643113Y-70111134D01*
X181643113Y-70111134D02*
X179788866Y-70111134D01*
X179788866Y-70111134D02*
X179020180Y-70879820D01*
X179020179Y-70906437D02*
X179020179Y-71626589D01*
X171353562Y-73874822D02*
X167431260Y-77797124D01*
X179020180Y-70879820D02*
X179020179Y-70906437D01*
X176771946Y-73874822D02*
X171353562Y-73874822D01*
X167431260Y-77886190D02*
X167431260Y-78986620D01*
X167431260Y-77797124D02*
X167431260Y-77886190D01*
X181013363Y-71600725D02*
X177682033Y-74932055D01*
X177682033Y-74932055D02*
X171791481Y-74932055D01*
X168929860Y-77793676D02*
X168929860Y-77886190D01*
X168929860Y-77886190D02*
X168929860Y-78986620D01*
X171791481Y-74932055D02*
X168929860Y-77793676D01*
X179954655Y-70470345D02*
X179372590Y-71052410D01*
X179372589Y-71772563D02*
X176917919Y-74227233D01*
X171499535Y-74227233D02*
X167929100Y-77797668D01*
X167929100Y-77886190D02*
X167929100Y-78986620D01*
X181713823Y-70900265D02*
X181283903Y-70470345D01*
X181283903Y-70470345D02*
X179954655Y-70470345D01*
X176917919Y-74227233D02*
X171499535Y-74227233D01*
X167929100Y-77797668D02*
X167929100Y-77886190D01*
X179372590Y-71052410D02*
X179372589Y-71772563D01*
X169430240Y-77791680D02*
X171937454Y-75284466D01*
X179808172Y-75284466D02*
X180583443Y-74509195D01*
X169430240Y-78986620D02*
X169430240Y-77791680D01*
X180583443Y-74509195D02*
X181013363Y-74079275D01*
X171937454Y-75284466D02*
X179808172Y-75284466D01*
X173180000Y-73020000D02*
X166495000Y-73020000D01*
X177140000Y-69060000D02*
X173180000Y-73020000D01*
X177140000Y-63685000D02*
X177140000Y-69060000D01*
X179520000Y-62980000D02*
X177845000Y-62980000D01*
X177845000Y-62980000D02*
X177140000Y-63685000D01*
X179525000Y-62975000D02*
X179520000Y-62980000D01*
X166495000Y-73020000D02*
X163430760Y-69955760D01*
X163430760Y-69955760D02*
X163430760Y-58788540D01*
X182150000Y-66379340D02*
X182150000Y-65700000D01*
X184192374Y-68421714D02*
X182150000Y-66379340D01*
X182150000Y-65700000D02*
X181625000Y-65175000D01*
X172083427Y-75636877D02*
X169930620Y-77789684D01*
X169930620Y-77789684D02*
X169930620Y-77886190D01*
X181372573Y-74438486D02*
X180174182Y-75636877D01*
X169930620Y-77886190D02*
X169930620Y-78986620D01*
X180174182Y-75636877D02*
X172083427Y-75636877D01*
X195148286Y-79377626D02*
X195578206Y-79807546D01*
X200022590Y-84272590D02*
X201147590Y-84272590D01*
X195578206Y-79807546D02*
X195578206Y-79828206D01*
X195578206Y-79828206D02*
X200022590Y-84272590D01*
X201147590Y-84272590D02*
X202950000Y-86075000D01*
X202950000Y-86075000D02*
X202950000Y-87000000D01*
X195148286Y-79377626D02*
X193470660Y-77700000D01*
X193470660Y-77700000D02*
X193177994Y-77700000D01*
X193177994Y-77700000D02*
X192921490Y-77443496D01*
X170152400Y-72297600D02*
X170175000Y-72275000D01*
X166472600Y-72297600D02*
X170152400Y-72297600D01*
X164425000Y-70250000D02*
X166472600Y-72297600D01*
X164425000Y-59892950D02*
X164425000Y-70250000D01*
X164428980Y-58788540D02*
X164428980Y-59888970D01*
X164428980Y-59888970D02*
X164425000Y-59892950D01*
X201600000Y-83425000D02*
X200632501Y-83425000D01*
X204250000Y-87000000D02*
X204250000Y-86075000D01*
X200632501Y-83425000D02*
X195866707Y-78659206D01*
X204250000Y-86075000D02*
X201600000Y-83425000D01*
X193199264Y-76475000D02*
X192775000Y-76475000D01*
X195866707Y-78659206D02*
X195436787Y-78229286D01*
X195436787Y-78119384D02*
X193792403Y-76475000D01*
X195436787Y-78229286D02*
X195436787Y-78119384D01*
X193792403Y-76475000D02*
X193199264Y-76475000D01*
X165429740Y-69704740D02*
X167025000Y-71300000D01*
X165429740Y-58788540D02*
X165429740Y-69704740D01*
X167025000Y-71300000D02*
X171800000Y-71300000D01*
X171800000Y-71300000D02*
X172700000Y-72200000D01*
X199386967Y-75138946D02*
X200873021Y-76625000D01*
X200873021Y-76625000D02*
X203575000Y-76625000D01*
X203575000Y-76625000D02*
X211050000Y-84100000D01*
X211050000Y-84100000D02*
X211050000Y-87000000D01*
X197024264Y-75175000D02*
X196600000Y-75175000D01*
X197795890Y-75175000D02*
X197024264Y-75175000D01*
X198261864Y-74709026D02*
X197795890Y-75175000D01*
X198957047Y-74709026D02*
X198261864Y-74709026D01*
X199386967Y-75138946D02*
X198957047Y-74709026D01*
X166430500Y-69380500D02*
X167500000Y-70450000D01*
X166430500Y-58788540D02*
X166430500Y-69380500D01*
X167500000Y-70450000D02*
X172200000Y-70450000D01*
X172200000Y-70450000D02*
X172202401Y-70447599D01*
X172202401Y-70447599D02*
X173072599Y-70447599D01*
X173072599Y-70447599D02*
X173900000Y-71275000D01*
X172366114Y-69582222D02*
X172625736Y-69322600D01*
X167400000Y-59920230D02*
X167400000Y-68675000D01*
X168307222Y-69582222D02*
X172366114Y-69582222D01*
X167400000Y-68675000D02*
X168307222Y-69582222D01*
X167431260Y-58788540D02*
X167431260Y-59888970D01*
X167431260Y-59888970D02*
X167400000Y-59920230D01*
X172625736Y-69322600D02*
X173050000Y-69322600D01*
X200535307Y-74850445D02*
X200105387Y-74420525D01*
X201605041Y-75920179D02*
X200535307Y-74850445D01*
X203841716Y-75920179D02*
X201605041Y-75920179D01*
X203866946Y-75920180D02*
X203841716Y-75920179D01*
X212350000Y-84403234D02*
X203866946Y-75920180D01*
X212350000Y-87000000D02*
X212350000Y-84403234D01*
X200105387Y-74420525D02*
X199392086Y-73707224D01*
X196972510Y-73770190D02*
X196672511Y-74070189D01*
X197035476Y-73707224D02*
X196972510Y-73770190D01*
X199392086Y-73707224D02*
X197035476Y-73707224D01*
X201582902Y-70111134D02*
X205009688Y-73537920D01*
X199816887Y-70111134D02*
X201582902Y-70111134D01*
X215600000Y-86075000D02*
X215600000Y-87000000D01*
X215600000Y-85137147D02*
X215600000Y-86075000D01*
X199386967Y-70541054D02*
X199816887Y-70111134D01*
X205009688Y-73537920D02*
X205009688Y-74546835D01*
X205009688Y-74546835D02*
X215600000Y-85137147D01*
X168929860Y-67949860D02*
X169857401Y-68877401D01*
X168929860Y-58788540D02*
X168929860Y-67949860D01*
X169857401Y-68877401D02*
X171440153Y-68877401D01*
X171440153Y-68877401D02*
X172188879Y-68128675D01*
X172188879Y-68128675D02*
X172855838Y-68128675D01*
X172855838Y-68128675D02*
X173280102Y-68128675D01*
X199386967Y-70541054D02*
X198957047Y-70970974D01*
X195200000Y-72125736D02*
X195200000Y-72550000D01*
X198957047Y-70970974D02*
X196354762Y-70970974D01*
X196354762Y-70970974D02*
X195200000Y-72125736D01*
X213650000Y-85075000D02*
X213650000Y-86075000D01*
X213650000Y-84706466D02*
X213650000Y-85075000D01*
X200875000Y-81525000D02*
X201250000Y-81525000D01*
X197379456Y-78029456D02*
X200875000Y-81525000D01*
X196926377Y-77599536D02*
X197356297Y-78029456D01*
X197356297Y-78029456D02*
X197379456Y-78029456D01*
X196926377Y-77599536D02*
X195475000Y-76148159D01*
X195475000Y-76148159D02*
X195475000Y-75800000D01*
X213650000Y-86075000D02*
X213650000Y-87000000D01*
X169930620Y-58788540D02*
X169930620Y-66755620D01*
X170250001Y-67075001D02*
X170550000Y-67375000D01*
X169930620Y-66755620D02*
X170250001Y-67075001D01*
X170928840Y-58788540D02*
X170928840Y-65515992D01*
X170928840Y-65515992D02*
X171012900Y-65600052D01*
X196207956Y-78317956D02*
X191709037Y-73819037D01*
X191709037Y-73819037D02*
X191709037Y-70270793D01*
X191167502Y-69729258D02*
X190867503Y-69429259D01*
X191709037Y-70270793D02*
X191167502Y-69729258D01*
X201925000Y-83050000D02*
X204900000Y-86025000D01*
X204900000Y-86025000D02*
X204900000Y-87000000D01*
X200950000Y-83050000D02*
X201925000Y-83050000D01*
X196647876Y-78747876D02*
X200950000Y-83050000D01*
X196207956Y-78317956D02*
X196637876Y-78747876D01*
X196637876Y-78747876D02*
X196647876Y-78747876D01*
X189771031Y-69251355D02*
X190136425Y-69251355D01*
X189507233Y-69515153D02*
X189771031Y-69251355D01*
X192150000Y-78450000D02*
X190259632Y-76559632D01*
X192669735Y-81856177D02*
X192150000Y-81336442D01*
X190259632Y-74222995D02*
X189507233Y-73470596D01*
X189507233Y-73470596D02*
X189507233Y-69515153D01*
X190259632Y-76559632D02*
X190259632Y-74222995D01*
X192150000Y-81336442D02*
X192150000Y-78450000D01*
X171929600Y-58788540D02*
X171929600Y-63763271D01*
X171929600Y-63763271D02*
X171981630Y-63815301D01*
X201650000Y-86075000D02*
X201650000Y-87000000D01*
X200552411Y-84977411D02*
X201650000Y-86075000D01*
X199529027Y-84977411D02*
X200552411Y-84977411D01*
X199526616Y-84975000D02*
X199529027Y-84977411D01*
X193099655Y-82286097D02*
X193136097Y-82286097D01*
X192669735Y-81856177D02*
X193099655Y-82286097D01*
X193136097Y-82286097D02*
X193425000Y-82575000D01*
X193425000Y-82575000D02*
X193425000Y-83475000D01*
X193425000Y-83475000D02*
X194925000Y-84975000D01*
X194925000Y-84975000D02*
X199526616Y-84975000D01*
X189354821Y-75058386D02*
X189354821Y-74634122D01*
X189354821Y-77054085D02*
X189354821Y-75058386D01*
X191250000Y-81837362D02*
X191250000Y-78949264D01*
X191969275Y-82556637D02*
X191250000Y-81837362D01*
X191250000Y-78949264D02*
X189354821Y-77054085D01*
X191969275Y-82556637D02*
X192475000Y-83062362D01*
X200002411Y-85727411D02*
X200350000Y-86075000D01*
X194402411Y-85727411D02*
X200002411Y-85727411D01*
X192475000Y-83062362D02*
X192475000Y-83800000D01*
X200350000Y-86075000D02*
X200350000Y-87000000D01*
X192475000Y-83800000D02*
X194402411Y-85727411D01*
X170925000Y-71675000D02*
X171400000Y-72150000D01*
X166600000Y-71675000D02*
X170925000Y-71675000D01*
X164925000Y-70000000D02*
X166600000Y-71675000D01*
X164925000Y-59893330D02*
X164925000Y-70000000D01*
X164929360Y-58788540D02*
X164929360Y-59888970D01*
X164929360Y-59888970D02*
X164925000Y-59893330D01*
X207690000Y-54300000D02*
X206552778Y-53162778D01*
X206552778Y-53162778D02*
X205462778Y-53162778D01*
X197320000Y-55408234D02*
X197320000Y-57772638D01*
X205462778Y-53162778D02*
X205067966Y-53557590D01*
X205067966Y-53557590D02*
X199170644Y-53557590D01*
X199170644Y-53557590D02*
X197320000Y-55408234D01*
X197320000Y-57772638D02*
X191969275Y-63123363D01*
X214300000Y-53400000D02*
X219620000Y-53400000D01*
X219620000Y-53400000D02*
X219855000Y-53635000D01*
X197672411Y-55554207D02*
X199316618Y-53910000D01*
X192310525Y-63464613D02*
X197672411Y-58102727D01*
X197672411Y-58102727D02*
X197672411Y-55554207D01*
X199316618Y-53910000D02*
X205503381Y-53910000D01*
X205503381Y-53910000D02*
X205698202Y-53715179D01*
X205698202Y-53715179D02*
X206122466Y-53715179D01*
X214325000Y-51050000D02*
X219810000Y-51050000D01*
X219810000Y-51050000D02*
X219855000Y-51095000D01*
X206372275Y-54267589D02*
X206411281Y-54228583D01*
X198024822Y-58468736D02*
X198024822Y-55751794D01*
X192669735Y-63823823D02*
X198024822Y-58468736D01*
X199509027Y-54267589D02*
X206372275Y-54267589D01*
X198024822Y-55751794D02*
X199509027Y-54267589D01*
X206411281Y-54228583D02*
X206835545Y-54228583D01*
X214625000Y-59900000D02*
X215980000Y-61255000D01*
X214450000Y-59725000D02*
X214625000Y-59900000D01*
X215980000Y-61255000D02*
X219855000Y-61255000D01*
X214450000Y-59525000D02*
X214450000Y-59725000D01*
X214225000Y-58725000D02*
X214225000Y-59300000D01*
X214225000Y-59300000D02*
X214450000Y-59525000D01*
X198377233Y-55897767D02*
X199655000Y-54620000D01*
X199655000Y-54620000D02*
X206445736Y-54620000D01*
X198377233Y-58834746D02*
X198377233Y-55897767D01*
X193028946Y-64183033D02*
X198377233Y-58834746D01*
X206950736Y-55125000D02*
X207375000Y-55125000D01*
X206445736Y-54620000D02*
X206950736Y-55125000D01*
X214225000Y-56000000D02*
X219680000Y-56000000D01*
X219680000Y-56000000D02*
X219855000Y-56175000D01*
X202300000Y-86200000D02*
X202300000Y-87000000D01*
X199675000Y-84625000D02*
X200725000Y-84625000D01*
X198502239Y-83450000D02*
X198502239Y-83452239D01*
X198502239Y-83452239D02*
X199675000Y-84625000D01*
X200725000Y-84625000D02*
X202300000Y-86200000D01*
X194789076Y-79736837D02*
X198502239Y-83450000D01*
X191156636Y-74408684D02*
X191156636Y-73984420D01*
X191156636Y-76459868D02*
X191156636Y-74408684D01*
X193160293Y-78108054D02*
X192804822Y-78108054D01*
X194789076Y-79736837D02*
X193160293Y-78108054D01*
X192804822Y-78108054D02*
X191156636Y-76459868D01*
X165930120Y-69530120D02*
X167347590Y-70947590D01*
X165930120Y-58788540D02*
X165930120Y-69530120D01*
X167347590Y-70947590D02*
X172272590Y-70947590D01*
X172272590Y-70947590D02*
X172325000Y-71000000D01*
X172325000Y-71000000D02*
X172600000Y-71000000D01*
X173135369Y-69934633D02*
X173425736Y-70225000D01*
X167909633Y-69934633D02*
X173135369Y-69934633D01*
X166925000Y-68950000D02*
X167909633Y-69934633D01*
X166925000Y-60300000D02*
X166925000Y-68950000D01*
X166930880Y-59888970D02*
X166930880Y-60294120D01*
X166930880Y-60294120D02*
X166925000Y-60300000D01*
X173425736Y-70225000D02*
X173850000Y-70225000D01*
X211700000Y-86075000D02*
X211700000Y-87000000D01*
X211700000Y-84251616D02*
X211700000Y-86075000D01*
X203720974Y-76272590D02*
X211700000Y-84251616D01*
X201239031Y-76272589D02*
X203720974Y-76272590D01*
X199746177Y-74779735D02*
X201239031Y-76272589D01*
X199746177Y-74779735D02*
X199226076Y-74259634D01*
X199226076Y-74259634D02*
X197849683Y-74259634D01*
X197849683Y-74259634D02*
X197425419Y-74259634D01*
X166930880Y-58788540D02*
X166930880Y-59888970D01*
X166930880Y-59888970D02*
X166925000Y-59894850D01*
X200591774Y-70851702D02*
X200544174Y-70899302D01*
X201326702Y-70851702D02*
X200591774Y-70851702D01*
X204304868Y-73829868D02*
X201326702Y-70851702D01*
X204304868Y-74862950D02*
X204304868Y-73829868D01*
X214300000Y-87000000D02*
X214300000Y-84858082D01*
X214300000Y-84858082D02*
X204304868Y-74862950D01*
X200544174Y-70899302D02*
X200429639Y-70899302D01*
X200429639Y-70899302D02*
X200087427Y-71241514D01*
X171611126Y-69229812D02*
X172086126Y-68754812D01*
X167925000Y-68545000D02*
X168609812Y-69229812D01*
X168609812Y-69229812D02*
X171611126Y-69229812D01*
X167925000Y-59893070D02*
X167925000Y-68545000D01*
X172086126Y-68754812D02*
X173520924Y-68754812D01*
X167929100Y-58788540D02*
X167929100Y-59888970D01*
X167929100Y-59888970D02*
X167925000Y-59893070D01*
X173520924Y-68754812D02*
X173650736Y-68625000D01*
X173650736Y-68625000D02*
X174075000Y-68625000D01*
X196749779Y-72942777D02*
X196690154Y-73002402D01*
X196690154Y-73002402D02*
X196166516Y-73002402D01*
X200087427Y-71241514D02*
X198386164Y-72942777D01*
X198386164Y-72942777D02*
X196749779Y-72942777D01*
X196166516Y-73002402D02*
X196083822Y-73085096D01*
X196083822Y-73085096D02*
X195783823Y-73385095D01*
X204657279Y-74692810D02*
X204657278Y-73683894D01*
X214950000Y-84985531D02*
X204657279Y-74692810D01*
X214950000Y-87000000D02*
X214950000Y-84985531D01*
X200176097Y-70470345D02*
X199746177Y-70900265D01*
X204657278Y-73683894D02*
X201443729Y-70470345D01*
X201443729Y-70470345D02*
X200176097Y-70470345D01*
X169430240Y-67610240D02*
X170130000Y-68310000D01*
X169430240Y-58788540D02*
X169430240Y-67610240D01*
X170130000Y-68310000D02*
X171160000Y-68310000D01*
X171160000Y-68310000D02*
X171175000Y-68325000D01*
X198246442Y-72400000D02*
X196399264Y-72400000D01*
X199746177Y-70900265D02*
X198246442Y-72400000D01*
X196399264Y-72400000D02*
X195975000Y-72400000D01*
X201935132Y-75567770D02*
X204012920Y-75567770D01*
X213000000Y-84554850D02*
X213000000Y-86075000D01*
X213000000Y-86075000D02*
X213000000Y-87000000D01*
X204012920Y-75567770D02*
X213000000Y-84554850D01*
X200446637Y-74079275D02*
X201935132Y-75567770D01*
X170431000Y-58788540D02*
X170431000Y-65885064D01*
X170431000Y-65885064D02*
X170898337Y-66352401D01*
X170898337Y-66352401D02*
X171047601Y-66352401D01*
X192100000Y-69592787D02*
X192100000Y-70542554D01*
X192100000Y-70542554D02*
X195609847Y-74052401D01*
X195609847Y-74052401D02*
X195897743Y-74052401D01*
X195897743Y-74052401D02*
X196595331Y-73354813D01*
X196595331Y-73354813D02*
X199722175Y-73354813D01*
X199722175Y-73354813D02*
X200016717Y-73649355D01*
X200016717Y-73649355D02*
X200446637Y-74079275D01*
X190612042Y-76413658D02*
X190612042Y-74077021D01*
X192771639Y-78804811D02*
X192771639Y-78573255D01*
X190118191Y-70429465D02*
X190118191Y-70005201D01*
X190118191Y-73583170D02*
X190118191Y-70429465D01*
X192771639Y-78573255D02*
X190612042Y-76413658D01*
X190612042Y-74077021D02*
X190118191Y-73583170D01*
X171429220Y-58788540D02*
X171429220Y-64831208D01*
X171429220Y-64831208D02*
X171620613Y-65022601D01*
X203600000Y-86075000D02*
X203600000Y-87000000D01*
X201350000Y-83825000D02*
X203600000Y-86075000D01*
X195948336Y-79448336D02*
X200325000Y-83825000D01*
X195507496Y-79018416D02*
X195937416Y-79448336D01*
X195937416Y-79448336D02*
X195948336Y-79448336D01*
X200325000Y-83825000D02*
X201350000Y-83825000D01*
X195507496Y-79018416D02*
X193560758Y-77071678D01*
X193560758Y-77071678D02*
X193560758Y-77046684D01*
X172429980Y-58788540D02*
X172429980Y-62747970D01*
X172429980Y-62747970D02*
X172482010Y-62800000D01*
X191750000Y-81618941D02*
X191750000Y-78548384D01*
X191750000Y-78548384D02*
X189907222Y-76705606D01*
X189907222Y-76705606D02*
X189907222Y-74368969D01*
X189907222Y-74368969D02*
X189154822Y-73616569D01*
X189154822Y-73616569D02*
X189154822Y-69050008D01*
X189154822Y-69050008D02*
X189354821Y-68850009D01*
X192328486Y-82197427D02*
X191750000Y-81618941D01*
X201000000Y-86075000D02*
X201000000Y-87000000D01*
X201000000Y-86001617D02*
X201000000Y-86075000D01*
X194675000Y-85375000D02*
X200373383Y-85375000D01*
X192925000Y-82800000D02*
X192925000Y-83625000D01*
X200373383Y-85375000D02*
X201000000Y-86001617D01*
X192925000Y-83625000D02*
X194675000Y-85375000D01*
X192328486Y-82197427D02*
X192758406Y-82627347D01*
X192758406Y-82627347D02*
X192758406Y-82633406D01*
X192758406Y-82633406D02*
X192925000Y-82800000D01*
X196475000Y-65950736D02*
X198945222Y-63480514D01*
X198945222Y-63480514D02*
X201776814Y-63480514D01*
X202925401Y-62331927D02*
X202925401Y-60525401D01*
X196475000Y-66376580D02*
X196475000Y-65950736D01*
X195848746Y-67002834D02*
X196475000Y-66376580D01*
X201776814Y-63480514D02*
X202925401Y-62331927D01*
X202324999Y-59924999D02*
X201575000Y-59175000D01*
X202925401Y-60525401D02*
X202324999Y-59924999D01*
X186375000Y-86075000D02*
X186294573Y-85994573D01*
X186294573Y-85994573D02*
X186294573Y-84167766D01*
X186294573Y-84167766D02*
X186375000Y-84087339D01*
X186375000Y-84087339D02*
X186375000Y-81433681D01*
X186941464Y-80867217D02*
X187371384Y-80437297D01*
X186375000Y-81433681D02*
X186941464Y-80867217D01*
X186375000Y-87000000D02*
X186375000Y-86075000D01*
X188089805Y-81155717D02*
X187359416Y-81886106D01*
X187359416Y-81886106D02*
X187359416Y-84099691D01*
X187359416Y-84099691D02*
X186999394Y-84459713D01*
X187675000Y-86075000D02*
X187675000Y-87000000D01*
X186999394Y-84459713D02*
X186999394Y-85399394D01*
X186999394Y-85399394D02*
X187675000Y-86075000D01*
X215388212Y-82975000D02*
X220046765Y-82975000D01*
X220046765Y-82975000D02*
X222418005Y-85346240D01*
X222418005Y-85743159D02*
X222625000Y-85950154D01*
X222625000Y-86075000D02*
X222625000Y-87000000D01*
X222625000Y-85950154D02*
X222625000Y-86075000D01*
X222418005Y-85346240D02*
X222418005Y-85743159D01*
X198943758Y-68864923D02*
X201831843Y-68864923D01*
X201831843Y-68864923D02*
X206066921Y-73100001D01*
X206066921Y-73653709D02*
X215388212Y-82975000D01*
X206066921Y-73100001D02*
X206066921Y-73653709D01*
X198327297Y-69481384D02*
X198943758Y-68864923D01*
X198686507Y-69840594D02*
X199309769Y-69217333D01*
X219900794Y-83327413D02*
X221975000Y-85401619D01*
X214804028Y-83327412D02*
X219900794Y-83327413D01*
X199309769Y-69217333D02*
X201685869Y-69217333D01*
X221975000Y-85401619D02*
X221975000Y-86075000D01*
X201685869Y-69217333D02*
X205714510Y-73245974D01*
X205714510Y-74237893D02*
X214804028Y-83327412D01*
X221975000Y-86075000D02*
X221975000Y-87000000D01*
X205714510Y-73245974D02*
X205714510Y-74237893D01*
X195489536Y-66643623D02*
X195919456Y-66213703D01*
X199947623Y-62928113D02*
X200371887Y-62928113D01*
X198996887Y-62928113D02*
X199947623Y-62928113D01*
X195919456Y-66005544D02*
X198996887Y-62928113D01*
X195919456Y-66213703D02*
X195919456Y-66005544D01*
X223275000Y-87000000D02*
X223275000Y-85782600D01*
X223275000Y-85782600D02*
X223270405Y-85778005D01*
X223270405Y-85778005D02*
X222970406Y-85478006D01*
X195148286Y-66302374D02*
X195578206Y-65872454D01*
X195578206Y-65872454D02*
X195578206Y-65800030D01*
X201330011Y-62085501D02*
X201630010Y-62385500D01*
X201630010Y-62385500D02*
X202054274Y-62385500D01*
X195578206Y-65800030D02*
X199292735Y-62085501D01*
X199292735Y-62085501D02*
X201330011Y-62085501D01*
X224575000Y-87050000D02*
X224575000Y-85802992D01*
X224575000Y-85802992D02*
X224278225Y-85506217D01*
X199161279Y-61570960D02*
X201365469Y-61570960D01*
X194789076Y-65943163D02*
X199161279Y-61570960D01*
X201365469Y-61570960D02*
X201789733Y-61570960D01*
X225875000Y-85600000D02*
X225575000Y-85300000D01*
X225875000Y-87050000D02*
X225875000Y-85600000D01*
D33*
X226700000Y-79275000D02*
X225290000Y-79275000D01*
X225290000Y-79275000D02*
X220400000Y-79275000D01*
D34*
X198455330Y-64744670D02*
X196950000Y-66250000D01*
X199919670Y-64744670D02*
X198455330Y-64744670D01*
X196950000Y-66250000D02*
X196950000Y-66620000D01*
X196950000Y-66620000D02*
X196207956Y-67362044D01*
X195778036Y-67791964D02*
X188908036Y-67791964D01*
X196207956Y-67362044D02*
X195778036Y-67791964D01*
X188908036Y-67791964D02*
X188450000Y-68250000D01*
X188450000Y-68250000D02*
X188450000Y-75120000D01*
X185681964Y-77888036D02*
X185252044Y-78317956D01*
X182950000Y-80369670D02*
X182319670Y-80369670D01*
X183200330Y-80369670D02*
X182950000Y-80369670D01*
X185252044Y-78317956D02*
X183200330Y-80369670D01*
X188790265Y-81856177D02*
X187719891Y-82926551D01*
X187719891Y-82926551D02*
X187719891Y-84556772D01*
X187719891Y-84556772D02*
X187551796Y-84724867D01*
X190945000Y-94880000D02*
X190725000Y-95100000D01*
X190945000Y-94405000D02*
X190945000Y-94880000D01*
X190945000Y-94405000D02*
X190925000Y-94425000D01*
X190945000Y-92475000D02*
X190945000Y-94405000D01*
X188172590Y-84725736D02*
X188172590Y-85150000D01*
X188172590Y-83192272D02*
X188172590Y-84725736D01*
X189149475Y-82215387D02*
X188172590Y-83192272D01*
X192225000Y-94825000D02*
X192075000Y-94975000D01*
X192225000Y-93460000D02*
X192225000Y-94825000D01*
X192215000Y-92475000D02*
X192215000Y-93450000D01*
X192215000Y-93450000D02*
X192225000Y-93460000D01*
X189097589Y-89749999D02*
X188797590Y-89450000D01*
X194755000Y-87550000D02*
X192305001Y-89999999D01*
X189347589Y-89999999D02*
X189097589Y-89749999D01*
X192305001Y-89999999D02*
X189347589Y-89999999D01*
X194755000Y-87075000D02*
X194755000Y-87550000D01*
X189525000Y-83950000D02*
X189525000Y-82590912D01*
X189525000Y-82590912D02*
X189490725Y-82556637D01*
X205850000Y-59300000D02*
X205849999Y-57299999D01*
X205849999Y-57299999D02*
X205550000Y-57000000D01*
X193950001Y-69400001D02*
X194250000Y-69700000D01*
X193485000Y-87075000D02*
X193485000Y-85385000D01*
X188802411Y-68395973D02*
X188900785Y-68297599D01*
X193485000Y-85385000D02*
X190897589Y-82797589D01*
X188900785Y-68297599D02*
X192847599Y-68297599D01*
X190897589Y-82797589D02*
X190897589Y-79669357D01*
X192847599Y-68297599D02*
X193950001Y-69400001D01*
X188802411Y-77550795D02*
X188802411Y-68395973D01*
X189440358Y-78188742D02*
X188802411Y-77550795D01*
X189440358Y-78212126D02*
X189440358Y-78188742D01*
X190897589Y-79669357D02*
X189440358Y-78212126D01*
X194552499Y-69700000D02*
X194250000Y-69700000D01*
X196549206Y-67703293D02*
X194552499Y-69700000D01*
X196567166Y-78042166D02*
X196567166Y-77958746D01*
X201150000Y-82625000D02*
X196567166Y-78042166D01*
X202450000Y-82625000D02*
X201150000Y-82625000D01*
X205875000Y-90075000D02*
X205875000Y-86050000D01*
X205875000Y-86050000D02*
X202450000Y-82625000D01*
X209725000Y-94375000D02*
X209725000Y-92925000D01*
X209550000Y-94550000D02*
X209725000Y-94375000D01*
X209725000Y-92925000D02*
X209750000Y-92900000D01*
X199050000Y-94850000D02*
X198900000Y-95000000D01*
X199050000Y-92900000D02*
X199050000Y-94850000D01*
X160375000Y-85050000D02*
X160375000Y-87000000D01*
X160500000Y-84925000D02*
X160375000Y-85050000D01*
X160375000Y-87000000D02*
X160425000Y-87050000D01*
X171000000Y-82600000D02*
X170975000Y-82600000D01*
X171929600Y-81670400D02*
X171000000Y-82600000D01*
X171929600Y-78986620D02*
X171929600Y-81670400D01*
X157825000Y-85575000D02*
X157850000Y-85550000D01*
X157825000Y-87050000D02*
X157825000Y-85575000D01*
X171475000Y-81200000D02*
X170950000Y-81725000D01*
X171475000Y-80132830D02*
X171475000Y-81200000D01*
X171429220Y-78986620D02*
X171429220Y-80087050D01*
X171429220Y-80087050D02*
X171475000Y-80132830D01*
X165930120Y-78986620D02*
X165930120Y-75455120D01*
X165930120Y-75455120D02*
X164127411Y-73652411D01*
X164127411Y-73652411D02*
X162375973Y-73652411D01*
X161539192Y-79893254D02*
X159775000Y-81657446D01*
X162375973Y-73652411D02*
X161539192Y-74489192D01*
X161539192Y-74489192D02*
X161539192Y-79893254D01*
X159775000Y-81657446D02*
X159775000Y-81725000D01*
X159775000Y-81725000D02*
X159775000Y-87050000D01*
X166430500Y-78986620D02*
X166430500Y-75269500D01*
X161186782Y-74343219D02*
X161186782Y-79563218D01*
X166430500Y-75269500D02*
X164461000Y-73300000D01*
X164461000Y-73300000D02*
X162230000Y-73300000D01*
X162230000Y-73300000D02*
X161186782Y-74343219D01*
X161186782Y-79563218D02*
X158450000Y-82300000D01*
X158450000Y-82300000D02*
X158450000Y-87025000D01*
X158450000Y-87025000D02*
X158475000Y-87050000D01*
X169975000Y-87000000D02*
X169975000Y-84325000D01*
X169975000Y-84325000D02*
X170200000Y-84100000D01*
X171975000Y-82575000D02*
X172429980Y-82120020D01*
X172429980Y-82120020D02*
X172429980Y-78986620D01*
X162930380Y-58788540D02*
X162930380Y-70305380D01*
X162930380Y-70305380D02*
X166347410Y-73722410D01*
X167075736Y-73722410D02*
X167500000Y-73722410D01*
X166347410Y-73722410D02*
X167075736Y-73722410D01*
X185725000Y-87000000D02*
X185725000Y-84975000D01*
X165429740Y-75754740D02*
X163679822Y-74004822D01*
X165429740Y-78986620D02*
X165429740Y-75754740D01*
X163679822Y-74004822D02*
X162545178Y-74004822D01*
X162545178Y-74004822D02*
X162100000Y-74450000D01*
X162100000Y-74450000D02*
X162100000Y-80150000D01*
X162100000Y-80150000D02*
X160370000Y-81880000D01*
X159125000Y-87050000D02*
X159125000Y-82767410D01*
X159125000Y-82767410D02*
X159192410Y-82700000D01*
X163050000Y-82250000D02*
X161075000Y-84225000D01*
X169425000Y-82250000D02*
X163050000Y-82250000D01*
X170925000Y-80750000D02*
X169425000Y-82250000D01*
X170925000Y-80090890D02*
X170925000Y-80750000D01*
X170928840Y-78986620D02*
X170928840Y-80087050D01*
X170928840Y-80087050D02*
X170925000Y-80090890D01*
X161075000Y-84225000D02*
X161075000Y-87050000D01*
D32*
X217825000Y-75300000D02*
X216925000Y-74400000D01*
X217825000Y-82075000D02*
X217825000Y-75300000D01*
D33*
X154500000Y-90800000D02*
X154564000Y-90800000D01*
X154564000Y-90800000D02*
X155956000Y-89408000D01*
X153950000Y-83550000D02*
X153950000Y-82140000D01*
X153950000Y-82140000D02*
X153950000Y-77250000D01*
X154500000Y-90800000D02*
X154750000Y-90550000D01*
X205037488Y-69262512D02*
X212605501Y-76830525D01*
X203674976Y-67900000D02*
X205037488Y-69262512D01*
X217825000Y-82075000D02*
X213050000Y-77300000D01*
X199805330Y-67055330D02*
X200650000Y-67900000D01*
X200650000Y-67900000D02*
X203674976Y-67900000D01*
X213050000Y-77300000D02*
X213050000Y-77275024D01*
X212605501Y-76830525D02*
X213050000Y-77275024D01*
X156525000Y-88839000D02*
X155956000Y-89408000D01*
X156525000Y-87050000D02*
X156525000Y-88839000D01*
D34*
X198757217Y-76628536D02*
X198757217Y-76632217D01*
X198327297Y-76198616D02*
X198757217Y-76628536D01*
X198757217Y-76632217D02*
X199375000Y-77250000D01*
X199375000Y-77250000D02*
X200460660Y-77250000D01*
X200460660Y-77250000D02*
X201055330Y-77844670D01*
X170325000Y-55475000D02*
X171637500Y-54162500D01*
X169975000Y-55475000D02*
X170325000Y-55475000D01*
X171637500Y-54162500D02*
X171637500Y-54087500D01*
X169975000Y-55475000D02*
X169975000Y-55750000D01*
X169975000Y-55750000D02*
X168962500Y-56762500D01*
D33*
X193485000Y-93710001D02*
X193555501Y-93780502D01*
X193485000Y-92475000D02*
X193485000Y-93710001D01*
X193555501Y-93780502D02*
X194000000Y-94225001D01*
D34*
X168429480Y-57688110D02*
X168429480Y-57295520D01*
X168429480Y-57295520D02*
X168962500Y-56762500D01*
D33*
X199050000Y-87000000D02*
X197500000Y-87000000D01*
X197500000Y-87000000D02*
X197350000Y-86850000D01*
X197025000Y-88650000D02*
X197025000Y-87175000D01*
X197025000Y-87175000D02*
X197350000Y-86850000D01*
X208100000Y-87815000D02*
X208100000Y-85975000D01*
X208100000Y-85975000D02*
X208100000Y-84675000D01*
D34*
X193900399Y-81650000D02*
X195335660Y-81650000D01*
X193388156Y-81137757D02*
X193900399Y-81650000D01*
X195335660Y-81650000D02*
X196230330Y-82544670D01*
X168429480Y-58788540D02*
X168429480Y-57688110D01*
X168429480Y-57688110D02*
X168450000Y-57667590D01*
D33*
X197575000Y-52350000D02*
X208500000Y-52350000D01*
X208825000Y-56525000D02*
X211025000Y-58725000D01*
X208825000Y-52350000D02*
X208825000Y-56525000D01*
X211025000Y-58725000D02*
X212725000Y-58725000D01*
X208825000Y-52350000D02*
X209875000Y-53400000D01*
X209875000Y-53400000D02*
X212800000Y-53400000D01*
X208500000Y-52350000D02*
X208825000Y-52350000D01*
X208500000Y-52350000D02*
X209812500Y-51037500D01*
X209812500Y-51037500D02*
X212100000Y-48750000D01*
X209812500Y-51037500D02*
X209825000Y-51050000D01*
X209825000Y-51050000D02*
X212825000Y-51050000D01*
X179242830Y-65882170D02*
X180010660Y-66650000D01*
X183287500Y-60937500D02*
X185519670Y-63169670D01*
X179242830Y-65882170D02*
X179242830Y-64982170D01*
X179242830Y-64982170D02*
X183287500Y-60937500D01*
X225950000Y-52900000D02*
X225200000Y-53650000D01*
X225950000Y-50150000D02*
X225950000Y-52900000D01*
X224550000Y-48750000D02*
X225950000Y-50150000D01*
X212100000Y-48750000D02*
X224550000Y-48750000D01*
X225200000Y-53650000D02*
X222410000Y-53650000D01*
X222410000Y-53650000D02*
X222395000Y-53635000D01*
X185519670Y-63169670D02*
X185630330Y-63169670D01*
X189700000Y-88675000D02*
X186375000Y-88675000D01*
X208125000Y-87840000D02*
X208100000Y-87815000D01*
X208125000Y-88650000D02*
X208125000Y-87840000D01*
X208100000Y-84675000D02*
X201269670Y-77844670D01*
X201269670Y-77844670D02*
X201055330Y-77844670D01*
X209750000Y-87825000D02*
X208925000Y-88650000D01*
X209750000Y-87000000D02*
X209750000Y-87825000D01*
X208925000Y-88650000D02*
X208125000Y-88650000D01*
X192225000Y-88800000D02*
X192000000Y-89025000D01*
X192000000Y-89025000D02*
X191275000Y-89025000D01*
X192225000Y-88270000D02*
X192225000Y-88800000D01*
X192215000Y-87075000D02*
X192215000Y-88260000D01*
X192215000Y-88260000D02*
X192225000Y-88270000D01*
X190296383Y-88675000D02*
X189700000Y-88675000D01*
X191275000Y-89025000D02*
X190646383Y-89025000D01*
X190646383Y-89025000D02*
X190296383Y-88675000D01*
X191275000Y-89025000D02*
X191275000Y-87185000D01*
X191275000Y-87185000D02*
X191240000Y-87150000D01*
X179750000Y-87400000D02*
X179750000Y-83014340D01*
X179750000Y-83014340D02*
X181144670Y-81619670D01*
X197350000Y-83600000D02*
X197285660Y-83600000D01*
X197285660Y-83600000D02*
X196230330Y-82544670D01*
X180010660Y-66650000D02*
X181005330Y-67644670D01*
D34*
X182773492Y-69840594D02*
X181005330Y-68072432D01*
X182773493Y-69840594D02*
X182773492Y-69840594D01*
X181005330Y-68072432D02*
X181005330Y-67644670D01*
X187730593Y-64883493D02*
X186016770Y-63169670D01*
X187730594Y-64883493D02*
X187730593Y-64883493D01*
X186016770Y-63169670D02*
X185630330Y-63169670D01*
X197626837Y-68780924D02*
X199352431Y-67055330D01*
X199352431Y-67055330D02*
X199805330Y-67055330D01*
X180550000Y-81075000D02*
X180550000Y-80182239D01*
X180550000Y-80182239D02*
X183833163Y-76899076D01*
X180741117Y-81266117D02*
X180550000Y-81075000D01*
X181144670Y-81619670D02*
X180791117Y-81266117D01*
X180791117Y-81266117D02*
X180741117Y-81266117D01*
D33*
X218975000Y-88650000D02*
X220025000Y-87600000D01*
X218150000Y-88650000D02*
X218975000Y-88650000D01*
X220025000Y-87600000D02*
X220025000Y-87000000D01*
X218100000Y-87275000D02*
X218100000Y-88600000D01*
X218100000Y-88600000D02*
X218150000Y-88650000D01*
X180675000Y-88675000D02*
X181825000Y-87525000D01*
X179750000Y-88675000D02*
X180675000Y-88675000D01*
X181825000Y-87525000D02*
X181825000Y-87000000D01*
X179750000Y-87400000D02*
X179750000Y-88675000D01*
X167400000Y-88700000D02*
X168675000Y-87425000D01*
X166875000Y-88700000D02*
X167400000Y-88700000D01*
X168675000Y-87425000D02*
X168675000Y-87000000D01*
X166950000Y-87450000D02*
X166950000Y-88625000D01*
X166950000Y-88625000D02*
X166875000Y-88700000D01*
D34*
X199805330Y-67055330D02*
X199805330Y-66980330D01*
D33*
X230125000Y-78500000D02*
X228600000Y-76975000D01*
X228600000Y-76975000D02*
X226700000Y-76975000D01*
D34*
X219621100Y-101193600D02*
X219621100Y-97628904D01*
X219709390Y-97540614D02*
X220009389Y-97240615D01*
X219621100Y-97628904D02*
X219709390Y-97540614D01*
X221975000Y-95300000D02*
X221625000Y-95650000D01*
X221975000Y-92900000D02*
X221975000Y-95300000D01*
X159775000Y-95575000D02*
X159775000Y-93875000D01*
X161175000Y-96975000D02*
X159775000Y-95575000D01*
X159775000Y-93875000D02*
X159775000Y-92950000D01*
X160425000Y-95150000D02*
X163741100Y-98466100D01*
X160425000Y-92950000D02*
X160425000Y-95150000D01*
X163741100Y-98466100D02*
X163741100Y-101193600D01*
X185075000Y-94725000D02*
X187525000Y-97175000D01*
X185075000Y-92900000D02*
X185075000Y-94725000D01*
X187525000Y-97175000D02*
X188300006Y-97175000D01*
X169325000Y-95035000D02*
X167310000Y-97050000D01*
X169325000Y-92900000D02*
X169325000Y-95035000D01*
X167310000Y-97050000D02*
X166475000Y-97050000D01*
X171600000Y-97050000D02*
X171600000Y-96625736D01*
X171600000Y-96625736D02*
X171925000Y-96300736D01*
X171925000Y-96300736D02*
X171925000Y-93825000D01*
X171925000Y-93825000D02*
X171925000Y-92900000D01*
X175400000Y-97225000D02*
X173875000Y-95700000D01*
X175975000Y-97225000D02*
X175400000Y-97225000D01*
X173875000Y-95700000D02*
X173875000Y-92900000D01*
X181575000Y-97375000D02*
X183125000Y-95825000D01*
X181525000Y-97375000D02*
X181575000Y-97375000D01*
X183125000Y-95825000D02*
X183125000Y-92900000D01*
X184425000Y-92900000D02*
X184425000Y-95024998D01*
X185375003Y-95975001D02*
X185675002Y-96275000D01*
X184425000Y-95024998D02*
X185375003Y-95975001D01*
X186375000Y-94100000D02*
X188300000Y-96025000D01*
X186375000Y-92900000D02*
X186375000Y-94100000D01*
X188300000Y-96025000D02*
X189475002Y-96025000D01*
X189475002Y-96025000D02*
X190375003Y-96925001D01*
X190375003Y-96925001D02*
X190675002Y-97225000D01*
X200350000Y-96600000D02*
X199725000Y-97225000D01*
X200350000Y-93825000D02*
X200350000Y-96600000D01*
X200350000Y-92900000D02*
X200350000Y-93825000D01*
X201000000Y-92900000D02*
X201000000Y-96325000D01*
X201000000Y-96325000D02*
X201775000Y-97100000D01*
X201775000Y-97100000D02*
X201400000Y-96725000D01*
X202950000Y-95025000D02*
X205100000Y-97175000D01*
X202950000Y-92900000D02*
X202950000Y-95025000D01*
X205100000Y-97175000D02*
X205850736Y-97175000D01*
X205850736Y-97175000D02*
X206275000Y-97175000D01*
X205630000Y-96130000D02*
X207230000Y-96130000D01*
X205630000Y-96130000D02*
X204250000Y-94750000D01*
X204250000Y-94750000D02*
X204250000Y-92900000D01*
X207230000Y-96130000D02*
X207775001Y-96675001D01*
X207775001Y-96675001D02*
X208075000Y-96975000D01*
X212350000Y-94325000D02*
X213875000Y-95850000D01*
X212350000Y-92900000D02*
X212350000Y-94325000D01*
X213875000Y-95850000D02*
X213875000Y-97300000D01*
X213875000Y-97300000D02*
X213900000Y-97325000D01*
X215650000Y-96125000D02*
X217900000Y-96125000D01*
X213650000Y-92900000D02*
X213650000Y-94125000D01*
X213650000Y-94125000D02*
X215650000Y-96125000D01*
X217900000Y-96125000D02*
X219025000Y-97250000D01*
X219025000Y-97250000D02*
X219100000Y-97250000D01*
X212001100Y-101193600D02*
X211700000Y-100892500D01*
X211700000Y-100892500D02*
X211700000Y-92900000D01*
X211050000Y-92900000D02*
X211050000Y-97184368D01*
X211050000Y-97184368D02*
X211147590Y-97281958D01*
X210400000Y-96828900D02*
X209461100Y-97767800D01*
X210400000Y-92900000D02*
X210400000Y-96828900D01*
X209461100Y-97767800D02*
X209461100Y-101193600D01*
X202934387Y-96465613D02*
X203446888Y-96978114D01*
X202818774Y-96350000D02*
X202934387Y-96465613D01*
X201650000Y-92900000D02*
X201650000Y-95181226D01*
X201650000Y-95181226D02*
X202934387Y-96465613D01*
X203446888Y-96978114D02*
X203746887Y-97278113D01*
X206921100Y-97003546D02*
X206540153Y-96622599D01*
X206921100Y-101193600D02*
X206921100Y-97003546D01*
X206540153Y-96622599D02*
X205247599Y-96622599D01*
X205247599Y-96622599D02*
X203600000Y-94975000D01*
X203600000Y-94975000D02*
X203600000Y-92900000D01*
X198450000Y-97125000D02*
X199700000Y-95875000D01*
X199700000Y-95875000D02*
X199700000Y-92900000D01*
X202300000Y-92900000D02*
X202300000Y-95050000D01*
X202300000Y-95050000D02*
X203125000Y-95875000D01*
X204700000Y-98487100D02*
X204381100Y-98806000D01*
X204700000Y-97450000D02*
X204700000Y-98487100D01*
X204381100Y-98806000D02*
X204381100Y-101193600D01*
X203125000Y-95875000D02*
X204700000Y-97450000D01*
X183775000Y-96950000D02*
X183775000Y-93825000D01*
X184050000Y-97225000D02*
X183775000Y-96950000D01*
X183775000Y-93825000D02*
X183775000Y-92900000D01*
X182475000Y-94425022D02*
X180150021Y-96750001D01*
X180150021Y-96750001D02*
X179850022Y-97050000D01*
X182475000Y-92900000D02*
X182475000Y-94425022D01*
X173825000Y-96975000D02*
X173225000Y-96375000D01*
X173225000Y-96375000D02*
X173225000Y-92900000D01*
X169600000Y-97075000D02*
X170625000Y-96050000D01*
X169075000Y-97075000D02*
X169600000Y-97075000D01*
X170625000Y-96050000D02*
X170625000Y-92900000D01*
X163350736Y-97050000D02*
X161075000Y-94774264D01*
X163775000Y-97050000D02*
X163350736Y-97050000D01*
X161075000Y-94774264D02*
X161075000Y-92950000D01*
X213000000Y-92900000D02*
X213000000Y-94124264D01*
X213000000Y-94124264D02*
X215425736Y-96550000D01*
X216075736Y-97200000D02*
X215425736Y-96550000D01*
X216500000Y-97200000D02*
X216075736Y-97200000D01*
X214300000Y-93900000D02*
X216000000Y-95600000D01*
X214300000Y-92900000D02*
X214300000Y-93900000D01*
X216000000Y-95600000D02*
X219150000Y-95600000D01*
X219150000Y-95600000D02*
X220775000Y-97225000D01*
X220775000Y-97225000D02*
X221700000Y-97225000D01*
X224200000Y-97275000D02*
X223575000Y-96650000D01*
X223575000Y-96650000D02*
X220915938Y-96650000D01*
X220915938Y-96650000D02*
X219390938Y-95125000D01*
X219390938Y-95125000D02*
X216250000Y-95125000D01*
X216250000Y-95125000D02*
X214950000Y-93825000D01*
X214950000Y-93825000D02*
X214950000Y-92900000D01*
X158475000Y-96625000D02*
X158475000Y-93875000D01*
X158750000Y-96900000D02*
X158475000Y-96625000D01*
X158475000Y-93875000D02*
X158475000Y-92950000D01*
X159125000Y-95875000D02*
X161201100Y-97951100D01*
X159125000Y-92950000D02*
X159125000Y-95875000D01*
X161201100Y-97951100D02*
X161201100Y-101193600D01*
X158661100Y-101193600D02*
X158661100Y-97767800D01*
X158661100Y-97767800D02*
X157825000Y-96931700D01*
X157825000Y-96931700D02*
X157825000Y-93875000D01*
X157825000Y-93875000D02*
X157825000Y-92950000D01*
X156125000Y-97125000D02*
X157175000Y-96075000D01*
X157175000Y-96075000D02*
X157175000Y-92950000D01*
D32*
X229575000Y-51675000D02*
X229575000Y-57875000D01*
X229825000Y-51425000D02*
X229575000Y-51675000D01*
X229575000Y-57875000D02*
X226170000Y-61280000D01*
X226170000Y-61280000D02*
X224510000Y-61280000D01*
D33*
X200491205Y-79241205D02*
X201275000Y-80025000D01*
X201275000Y-80025000D02*
X206580001Y-85330001D01*
D34*
X202225000Y-73379088D02*
X202225000Y-73550000D01*
X200446637Y-71600725D02*
X202225000Y-73379088D01*
D33*
X182475000Y-87050000D02*
X182475000Y-89650000D01*
X182475000Y-89650000D02*
X181175000Y-90950000D01*
X151500000Y-83700000D02*
X151650000Y-83550000D01*
X221850000Y-72975000D02*
X221900000Y-72925000D01*
X220550000Y-72975000D02*
X221850000Y-72975000D01*
X176025490Y-64096383D02*
X176025490Y-64725000D01*
X176025490Y-63124510D02*
X176025490Y-64096383D01*
X176775000Y-62375000D02*
X176025490Y-63124510D01*
X224485000Y-61255000D02*
X224510000Y-61280000D01*
X222395000Y-61255000D02*
X224485000Y-61255000D01*
X168475000Y-55475000D02*
X168475000Y-54000000D01*
X168475000Y-55475000D02*
X164850000Y-55475000D01*
X164850000Y-55475000D02*
X163925000Y-56400000D01*
X225500000Y-90950000D02*
X225875000Y-91325000D01*
X225875000Y-91325000D02*
X225875000Y-92900000D01*
X215600000Y-91550000D02*
X215000000Y-90950000D01*
X215600000Y-92900000D02*
X215600000Y-91550000D01*
X215000000Y-90950000D02*
X218150000Y-90950000D01*
X216050000Y-90950000D02*
X212800000Y-90950000D01*
X212800000Y-90950000D02*
X210375000Y-90950000D01*
X204900000Y-91765000D02*
X204085000Y-90950000D01*
X204900000Y-92900000D02*
X204900000Y-91765000D01*
X204085000Y-90950000D02*
X204050000Y-90950000D01*
X204050000Y-90950000D02*
X199750000Y-90950000D01*
X205100000Y-90950000D02*
X204050000Y-90950000D01*
X174525000Y-92900000D02*
X174525000Y-90650000D01*
X174525000Y-90650000D02*
X174075000Y-90200000D01*
X195169499Y-96105501D02*
X195169499Y-92889499D01*
X194725000Y-96550000D02*
X195169499Y-96105501D01*
X195169499Y-92889499D02*
X194755000Y-92475000D01*
X183525000Y-47875000D02*
X181450004Y-47875000D01*
X212125000Y-56000000D02*
X211275000Y-56850000D01*
X212725000Y-56000000D02*
X212125000Y-56000000D01*
D34*
X193028946Y-81496967D02*
X194290989Y-82759011D01*
X194290989Y-82759011D02*
X195137309Y-83605330D01*
X163931140Y-56406140D02*
X163925000Y-56400000D01*
X163931140Y-58788540D02*
X163931140Y-56406140D01*
X173430740Y-56130740D02*
X173425000Y-56125000D01*
X173430740Y-58788540D02*
X173430740Y-56130740D01*
D33*
X199750000Y-90950000D02*
X197250000Y-90950000D01*
X199700000Y-87000000D02*
X199700000Y-88135000D01*
X199700000Y-88135000D02*
X199750000Y-88185000D01*
X199750000Y-88185000D02*
X199750000Y-90950000D01*
X184569670Y-64194670D02*
X183425000Y-63050000D01*
X184569670Y-64230330D02*
X184569670Y-64194670D01*
X179905330Y-68705330D02*
X178725000Y-67525000D01*
X179944670Y-68705330D02*
X179905330Y-68705330D01*
X161450000Y-90275000D02*
X157175000Y-90275000D01*
X157175000Y-87050000D02*
X157175000Y-88185000D01*
X157175000Y-88185000D02*
X157175000Y-90275000D01*
X168950000Y-90200000D02*
X174075000Y-90200000D01*
X168100000Y-90200000D02*
X168950000Y-90200000D01*
X169325000Y-87000000D02*
X169325000Y-89825000D01*
X169325000Y-89825000D02*
X168950000Y-90200000D01*
X182475000Y-85749998D02*
X181825002Y-85100000D01*
X182475000Y-87000000D02*
X182475000Y-85749998D01*
X181825002Y-85100000D02*
X181825002Y-83060658D01*
X181825002Y-83060658D02*
X182205330Y-82680330D01*
X200330545Y-79241205D02*
X200491205Y-79241205D01*
X199994670Y-78905330D02*
X200330545Y-79241205D01*
X206580001Y-85330001D02*
X206580001Y-90919999D01*
X206580001Y-90919999D02*
X206550000Y-90950000D01*
X208175000Y-90950000D02*
X210375000Y-90950000D01*
X210400000Y-87000000D02*
X210400000Y-90925000D01*
X210400000Y-90925000D02*
X210375000Y-90950000D01*
X206550000Y-90950000D02*
X208175000Y-90950000D01*
X208175000Y-90950000D02*
X208175000Y-90200000D01*
X208175000Y-90200000D02*
X208125000Y-90150000D01*
X205100000Y-90950000D02*
X206550000Y-90950000D01*
X194755000Y-92475000D02*
X194755000Y-91290000D01*
X194755000Y-91290000D02*
X194415000Y-90950000D01*
X194415000Y-90950000D02*
X194195000Y-90950000D01*
X187675000Y-92900000D02*
X187675000Y-91275000D01*
X187675000Y-91275000D02*
X188000000Y-90950000D01*
X187500000Y-90950000D02*
X188000000Y-90950000D01*
X194195000Y-90950000D02*
X187500000Y-90950000D01*
X197250000Y-90950000D02*
X194195000Y-90950000D01*
X197250000Y-90950000D02*
X197025000Y-90725000D01*
X197025000Y-90725000D02*
X197025000Y-90150000D01*
D34*
X181984363Y-69769885D02*
X181984363Y-69759363D01*
X182414283Y-70199805D02*
X181984363Y-69769885D01*
X181984363Y-69759363D02*
X181300000Y-69075000D01*
X181300000Y-69075000D02*
X180314340Y-69075000D01*
X180314340Y-69075000D02*
X179944670Y-68705330D01*
X186578681Y-64450000D02*
X184789340Y-64450000D01*
X187371384Y-65242703D02*
X186578681Y-64450000D01*
X184789340Y-64450000D02*
X184569670Y-64230330D01*
X198025000Y-67000000D02*
X198025000Y-66714340D01*
X198025000Y-66714340D02*
X198744670Y-65994670D01*
X201950000Y-66550000D02*
X201725000Y-66550000D01*
X201725000Y-66550000D02*
X200980330Y-65805330D01*
X196962496Y-68062504D02*
X198025000Y-67000000D01*
X196908416Y-68062504D02*
X196962496Y-68062504D01*
X198025000Y-67000000D02*
X198075000Y-67000000D01*
X198525000Y-67175000D02*
X198525000Y-66214340D01*
X198275000Y-67425000D02*
X198525000Y-67175000D01*
X198525000Y-66214340D02*
X198744670Y-65994670D01*
X197278286Y-68421714D02*
X198275000Y-67425000D01*
X197267626Y-68421714D02*
X197278286Y-68421714D01*
X201176511Y-65805330D02*
X200980330Y-65805330D01*
X185970464Y-79036377D02*
X184365921Y-80640921D01*
X184365921Y-80640921D02*
X183576511Y-81430330D01*
X182205330Y-82680330D02*
X182205330Y-82605330D01*
X182205330Y-82605330D02*
X183380330Y-81430330D01*
X183576511Y-81430330D02*
X183380330Y-81430330D01*
X197986047Y-76539866D02*
X199994670Y-78548489D01*
X199994670Y-78548489D02*
X199994670Y-78905330D01*
X195137309Y-83605330D02*
X195169670Y-83605330D01*
D33*
X219200000Y-90950000D02*
X225500000Y-90950000D01*
X218150000Y-90950000D02*
X219200000Y-90950000D01*
X219210000Y-90950000D02*
X219200000Y-90950000D01*
X174075000Y-90200000D02*
X179725000Y-90200000D01*
X166875000Y-90200000D02*
X168100000Y-90200000D01*
X179725000Y-90200000D02*
X179750000Y-90175000D01*
X162375000Y-92950000D02*
X162375000Y-92200000D01*
X162375000Y-92200000D02*
X162355001Y-92180001D01*
X162355001Y-92180001D02*
X162355001Y-91180001D01*
X162355001Y-91180001D02*
X161450000Y-90275000D01*
X218150000Y-90950000D02*
X218150000Y-90150000D01*
X166800000Y-90275000D02*
X166875000Y-90200000D01*
D34*
X179725001Y-71299999D02*
X179725001Y-71918535D01*
X181354613Y-71259475D02*
X180924693Y-70829555D01*
X179725001Y-71918535D02*
X177063892Y-74579644D01*
X168429480Y-77886190D02*
X168429480Y-78986620D01*
X171645508Y-74579644D02*
X168429480Y-77795672D01*
X168429480Y-77795672D02*
X168429480Y-77886190D01*
X180195445Y-70829555D02*
X179725001Y-71299999D01*
X180924693Y-70829555D02*
X180195445Y-70829555D01*
X177063892Y-74579644D02*
X171645508Y-74579644D01*
X196700000Y-96400000D02*
X196700000Y-101132500D01*
X196700000Y-101132500D02*
X196761100Y-101193600D01*
X190345179Y-79615331D02*
X190345179Y-80475736D01*
X190345179Y-80475736D02*
X190345179Y-80900000D01*
X189087948Y-78358100D02*
X190345179Y-79615331D01*
X189087947Y-78334715D02*
X189087948Y-78358100D01*
X186813419Y-77475001D02*
X188228233Y-77475001D01*
X185611254Y-78677166D02*
X186813419Y-77475001D01*
X188228233Y-77475001D02*
X189087947Y-78334715D01*
X186601100Y-101193600D02*
X186601100Y-98126100D01*
X184910794Y-77976707D02*
X184973293Y-77976707D01*
X199000000Y-57425000D02*
X200000000Y-56425000D01*
X199000000Y-59174083D02*
X199000000Y-57425000D01*
X193370195Y-64524283D02*
X193649800Y-64524283D01*
X193649800Y-64524283D02*
X199000000Y-59174083D01*
X201025000Y-56750000D02*
X201450000Y-56750000D01*
X199625000Y-58150000D02*
X201025000Y-56750000D01*
X199625000Y-59050000D02*
X199625000Y-58150000D01*
X194221427Y-64453573D02*
X199625000Y-59050000D01*
X193729406Y-64883493D02*
X194159326Y-64453573D01*
X194159326Y-64453573D02*
X194221427Y-64453573D01*
X200150000Y-58400000D02*
X200150000Y-59181319D01*
X200150000Y-59181319D02*
X194088616Y-65242703D01*
X201075000Y-57475000D02*
X200150000Y-58400000D01*
X202750000Y-57475000D02*
X201075000Y-57475000D01*
X189473363Y-63123363D02*
X188725000Y-62375000D01*
X189490725Y-63123363D02*
X189473363Y-63123363D01*
X188725000Y-62375000D02*
X188725000Y-53475000D01*
X188725000Y-53475000D02*
X193525000Y-48675000D01*
X193525000Y-48675000D02*
X193525000Y-47875000D01*
X187150000Y-62183558D02*
X187150000Y-51750000D01*
X188790265Y-63823823D02*
X187150000Y-62183558D01*
X187150000Y-51750000D02*
X189525000Y-49375000D01*
X189525000Y-49375000D02*
X189525000Y-47875000D01*
X191525000Y-49000000D02*
X187775000Y-52750000D01*
X191525000Y-47875000D02*
X191525000Y-49000000D01*
X187775000Y-52750000D02*
X187775000Y-62126059D01*
X187775000Y-62126059D02*
X189131514Y-63482573D01*
X185525000Y-48829594D02*
X184525000Y-49829594D01*
X185525000Y-47875000D02*
X185525000Y-48829594D01*
X184525000Y-49829594D02*
X184525000Y-60276979D01*
X184525000Y-60276979D02*
X187025000Y-62776979D01*
X187025000Y-62776979D02*
X188431054Y-64183033D01*
D33*
X229781100Y-101193600D02*
X229781100Y-96038900D01*
X179775000Y-90175000D02*
X179750000Y-90175000D01*
X181175000Y-90950000D02*
X180550000Y-90950000D01*
X180550000Y-90950000D02*
X179775000Y-90175000D01*
X181175000Y-90950000D02*
X181185000Y-90960000D01*
X187490000Y-90960000D02*
X187500000Y-90950000D01*
X181185000Y-90960000D02*
X187490000Y-90960000D01*
D32*
X155956000Y-91146000D02*
X155956000Y-89408000D01*
X156525000Y-91715000D02*
X155956000Y-91146000D01*
X156525000Y-92950000D02*
X156525000Y-91715000D01*
D33*
X166800000Y-90275000D02*
X163545000Y-90275000D01*
X163545000Y-90275000D02*
X161450000Y-90275000D01*
D32*
X154500000Y-93840000D02*
X155490000Y-94830000D01*
X154500000Y-92300000D02*
X154500000Y-93840000D01*
X155490000Y-94830000D02*
X155740000Y-94830000D01*
X168675000Y-92950000D02*
X168675000Y-93455000D01*
X167540000Y-94590000D02*
X166730000Y-94590000D01*
X168675000Y-93455000D02*
X167540000Y-94590000D01*
X179800000Y-94610000D02*
X179800000Y-94900000D01*
X181825000Y-92950000D02*
X181460000Y-92950000D01*
X181460000Y-92950000D02*
X179800000Y-94610000D01*
X218920000Y-92950000D02*
X218680000Y-93190000D01*
X218680000Y-93190000D02*
X218680000Y-94040000D01*
X220025000Y-92950000D02*
X218920000Y-92950000D01*
M02*
