M48
; DRILL file {KiCad (5.99.0-1468-g7e1294a4b)} date 08/22/20 19:19:56
; FORMAT={-:-/ absolute / inch / decimal}
; #@! TF.CreationDate,2020-08-22T19:19:56+02:00
; #@! TF.GenerationSoftware,Kicad,Pcbnew,(5.99.0-1468-g7e1294a4b)
; #@! TF.FileFunction,Plated,1,2,PTH
FMAT,2
INCH
T1C0.0157
T2C0.0250
T3C0.0315
T4C0.0433
%
G90
G05
T1
X5.89Y-3.805
X5.94Y-3.82
X6.1467Y-3.8238
X6.2146Y-3.3681
X6.25Y-3.815
X6.2674Y-3.2559
X6.3138Y-3.2236
X6.3189Y-3.3435
X6.3455Y-3.8179
X6.4321Y-3.2657
X6.4323Y-2.9407
X6.4469Y-2.9665
X6.4478Y-3.8209
X6.4537Y-2.2205
X6.456Y-3.0
X6.4757Y-3.0305
X6.4892Y-3.2116
X6.5541Y-3.8209
X6.5945Y-2.9025
X6.6447Y-2.9025
X6.6565Y-3.8219
X6.6998Y-2.8455
X6.7008Y-3.311
X6.7146Y-2.6526
X6.7303Y-3.2175
X6.7313Y-3.252
X6.7328Y-2.5827
X6.7342Y-2.6123
X6.7392Y-2.69
X6.747Y-3.3524
X6.748Y-2.8406
X6.7559Y-3.8209
X6.7567Y-2.5599
X6.7574Y-2.1294
X6.7707Y-3.251
X6.7709Y-2.5124
X6.7835Y-3.0266
X6.7906Y-2.4724
X6.7953Y-2.7953
X6.7992Y-2.8425
X6.8022Y-3.3622
X6.8051Y-3.2549
X6.813Y-2.7292
X6.8209Y-3.0167
X6.8221Y-2.6822
X6.8278Y-2.2096
X6.8435Y-3.8179
X6.8445Y-2.7648
X6.8465Y-2.8061
X6.8533Y-2.7018
X6.907Y-3.1152
X6.9154Y-2.3514
X6.9281Y-3.8278
X7.0024Y-3.3591
X7.0423Y-2.5069
X7.0679Y-2.4793
X7.0807Y-3.8209
X7.0945Y-2.4596
X7.1201Y-2.44
X7.1201Y-2.5896
X7.1467Y-3.8337
X7.1506Y-2.5659
X7.2028Y-2.5787
X7.2047Y-3.0976
X7.2077Y-3.334
X7.2091Y-3.1319
X7.2264Y-2.5522
X7.2461Y-3.8278
X7.2585Y-3.1748
X7.2599Y-3.2953
X7.31Y-3.7904
X7.312Y-3.3455
X7.3327Y-3.0008
X7.3535Y-3.0252
X7.3839Y-3.3356
X7.4084Y-3.3524
X7.4094Y-3.0798
X7.4134Y-3.8258
X7.433Y-3.5217
X7.438Y-3.126
X7.4549Y-2.7106
X7.4549Y-2.9384
X7.4616Y-3.3051
X7.4665Y-3.1703
X7.485Y-2.7561
X7.4857Y-2.7264
X7.4939Y-3.185
X7.5069Y-3.8278
X7.5089Y-3.7441
X7.5145Y-2.7334
X7.5259Y-2.9128
X7.562Y-3.7392
X7.563Y-2.7399
X7.5894Y-3.1026
X7.5896Y-3.0108
X7.5953Y-3.049
X7.6205Y-3.0333
X7.6476Y-2.7441
X7.685Y-2.8563
X7.6959Y-2.9843
X7.708Y-2.8892
X7.7156Y-2.8504
X7.7402Y-2.9596
X7.743Y-2.9161
X7.7441Y-3.7953
X7.7727Y-2.9236
X7.7963Y-2.6378
X7.813Y-3.8238
X7.8307Y-3.7402
X7.8632Y-3.8278
X7.874Y-2.2215
X7.8887Y-2.4775
X7.8917Y-2.3809
X7.9232Y-3.2096
X7.9311Y-2.2343
X7.9439Y-3.8228
X7.9445Y-2.4241
X7.9508Y-2.6201
X7.9549Y-2.4561
X7.9823Y-2.2628
X8.0215Y-3.8298
X8.0925Y-2.2441
X8.1053Y-3.5463
X8.1151Y-2.1148
X8.1211Y-3.8258
X8.1431Y-2.135
X8.1644Y-2.1703
X8.1768Y-2.1378
X8.1919Y-3.8179
X8.25Y-3.7224
X8.3129Y-3.83
X8.4114Y-3.3494
X8.4213Y-3.8317
X8.4498Y-2.3583
X8.4656Y-3.8297
X8.5236Y-3.8268
X8.565Y-3.8169
X8.626Y-3.8287
X8.6618Y-3.8284
X8.6791Y-3.7234
X8.6909Y-3.7569
X8.7254Y-3.7657
X8.7283Y-3.8278
X8.7638Y-3.7834
X8.7717Y-3.8297
X8.7784Y-3.3653
X8.8268Y-3.8297
X8.8299Y-3.3664
X8.8681Y-3.7195
X8.873Y-3.8278
X8.8809Y-3.3583
X8.9183Y-3.3445
T2
X6.06Y-3.78
X6.1315Y-3.7335
X6.14Y-3.52
X6.4388Y-3.5541
X6.5642Y-3.724
X6.5728Y-3.4429
X6.6329Y-2.126
X6.9301Y-2.5482
X6.9596Y-2.4557
X7.0364Y-2.6585
X7.0768Y-3.4409
X7.0787Y-3.7362
X7.1437Y-1.8848
X7.216Y-2.3991
X7.2215Y-2.4823
X7.3376Y-3.4911
X7.5305Y-3.5049
X7.6378Y-3.7096
X7.6493Y-3.2582
X7.6663Y-3.8012
X7.7697Y-3.2913
X7.7697Y-3.4193
X7.7785Y-2.061
X7.9242Y-3.1506
X7.9616Y-2.8957
X8.1929Y-3.3848
X8.3179Y-2.2382
X8.5404Y-2.9291
X8.5758Y-3.2313
X8.5866Y-3.436
X8.6094Y-3.7024
X8.6654Y-3.3553
X8.7362Y-2.8711
X8.839Y-2.4126
X9.0465Y-3.7811
X9.0476Y-3.4563
X9.0482Y-2.0246
T3
X7.8179Y-1.8868
X7.8967Y-1.8868
X7.9754Y-1.8868
X8.0541Y-1.8868
X7.2254Y-1.8848
X7.3041Y-1.8848
X7.3829Y-1.8848
X7.4616Y-1.8848
X7.5404Y-1.8848
X7.6191Y-1.8848
T4
X8.6557Y-2.0116
X8.6557Y-2.1116
X8.6557Y-2.2116
X8.6557Y-2.3116
X8.6557Y-2.4116
X8.7557Y-2.0116
X8.7557Y-2.1116
X8.7557Y-2.2116
X8.7557Y-2.3116
X8.7557Y-2.4116
T0
M30
