G04 #@! TF.GenerationSoftware,KiCad,Pcbnew,(5.99.0-1468-g7e1294a4b)*
G04 #@! TF.CreationDate,2020-08-22T19:19:53+02:00*
G04 #@! TF.ProjectId,MD_Flash_8M,4d445f46-6c61-4736-985f-384d2e6b6963,rev?*
G04 #@! TF.SameCoordinates,Original*
G04 #@! TF.FileFunction,Paste,Top*
G04 #@! TF.FilePolarity,Positive*
%FSLAX46Y46*%
G04 Gerber Fmt 4.6, Leading zero omitted, Abs format (unit mm)*
G04 Created by KiCad (PCBNEW (5.99.0-1468-g7e1294a4b)) date 2020-08-22 19:19:53*
%MOMM*%
%LPD*%
G01*
G04 APERTURE LIST*
%ADD10R,1.000000X1.250000*%
%ADD11R,1.250000X1.000000*%
%ADD12R,1.000000X1.600000*%
%ADD13R,1.600000X1.000000*%
%ADD14R,2.000000X1.500000*%
%ADD15R,2.000000X3.800000*%
%ADD16R,3.800000X2.000000*%
%ADD17R,1.500000X2.000000*%
%ADD18R,0.800000X0.750000*%
%ADD19C,1.500000*%
%ADD20R,0.750000X0.800000*%
%ADD21R,0.450000X1.450000*%
%ADD22R,0.600000X1.550000*%
%ADD23R,0.299720X1.800860*%
%ADD24R,0.200660X1.800860*%
%ADD25R,1.676400X6.451600*%
G04 APERTURE END LIST*
D10*
X230500000Y-90220000D03*
X228500000Y-90220000D03*
X228500000Y-93140000D03*
X230500000Y-93140000D03*
X220570000Y-72930000D03*
X218570000Y-72930000D03*
D11*
X154170000Y-86540000D03*
X154170000Y-88540000D03*
D12*
X231050000Y-84550000D03*
X228050000Y-84550000D03*
D13*
X151060000Y-86820000D03*
X151060000Y-89820000D03*
D14*
X226700000Y-81575000D03*
X226700000Y-76975000D03*
X226700000Y-79275000D03*
D15*
X220400000Y-79275000D03*
D16*
X153950000Y-77250000D03*
D17*
X153950000Y-83550000D03*
X156250000Y-83550000D03*
X151650000Y-83550000D03*
D18*
X168475000Y-55475000D03*
X169975000Y-55475000D03*
X212725000Y-58725000D03*
X214225000Y-58725000D03*
X214225000Y-56000000D03*
X212725000Y-56000000D03*
X212800000Y-53400000D03*
X214300000Y-53400000D03*
X214325000Y-51050000D03*
X212825000Y-51050000D03*
D19*
X205850000Y-59300000D03*
G36*
X179962348Y-68157322D02*
G01*
X180492678Y-68687652D01*
X179926992Y-69253338D01*
X179396662Y-68723008D01*
X179962348Y-68157322D01*
G37*
G36*
X181023008Y-67096662D02*
G01*
X181553338Y-67626992D01*
X180987652Y-68192678D01*
X180457322Y-67662348D01*
X181023008Y-67096662D01*
G37*
G36*
X185648008Y-62621662D02*
G01*
X186178338Y-63151992D01*
X185612652Y-63717678D01*
X185082322Y-63187348D01*
X185648008Y-62621662D01*
G37*
G36*
X184587348Y-63682322D02*
G01*
X185117678Y-64212652D01*
X184551992Y-64778338D01*
X184021662Y-64248008D01*
X184587348Y-63682322D01*
G37*
G36*
X201528338Y-65823008D02*
G01*
X200998008Y-66353338D01*
X200432322Y-65787652D01*
X200962652Y-65257322D01*
X201528338Y-65823008D01*
G37*
G36*
X200467678Y-64762348D02*
G01*
X199937348Y-65292678D01*
X199371662Y-64726992D01*
X199901992Y-64196662D01*
X200467678Y-64762348D01*
G37*
G36*
X199292678Y-66012348D02*
G01*
X198762348Y-66542678D01*
X198196662Y-65976992D01*
X198726992Y-65446662D01*
X199292678Y-66012348D01*
G37*
G36*
X200353338Y-67073008D02*
G01*
X199823008Y-67603338D01*
X199257322Y-67037652D01*
X199787652Y-66507322D01*
X200353338Y-67073008D01*
G37*
G36*
X200012348Y-78357322D02*
G01*
X200542678Y-78887652D01*
X199976992Y-79453338D01*
X199446662Y-78923008D01*
X200012348Y-78357322D01*
G37*
G36*
X201073008Y-77296662D02*
G01*
X201603338Y-77826992D01*
X201037652Y-78392678D01*
X200507322Y-77862348D01*
X201073008Y-77296662D01*
G37*
G36*
X196248008Y-81996662D02*
G01*
X196778338Y-82526992D01*
X196212652Y-83092678D01*
X195682322Y-82562348D01*
X196248008Y-81996662D01*
G37*
G36*
X195187348Y-83057322D02*
G01*
X195717678Y-83587652D01*
X195151992Y-84153338D01*
X194621662Y-83623008D01*
X195187348Y-83057322D01*
G37*
G36*
X182753338Y-82698008D02*
G01*
X182223008Y-83228338D01*
X181657322Y-82662652D01*
X182187652Y-82132322D01*
X182753338Y-82698008D01*
G37*
G36*
X181692678Y-81637348D02*
G01*
X181162348Y-82167678D01*
X180596662Y-81601992D01*
X181126992Y-81071662D01*
X181692678Y-81637348D01*
G37*
G36*
X182867678Y-80387348D02*
G01*
X182337348Y-80917678D01*
X181771662Y-80351992D01*
X182301992Y-79821662D01*
X182867678Y-80387348D01*
G37*
G36*
X183928338Y-81448008D02*
G01*
X183398008Y-81978338D01*
X182832322Y-81412652D01*
X183362652Y-80882322D01*
X183928338Y-81448008D01*
G37*
D20*
X208125000Y-90150000D03*
X208125000Y-88650000D03*
X197025000Y-88650000D03*
X197025000Y-90150000D03*
X218150000Y-88650000D03*
X218150000Y-90150000D03*
D21*
X199050000Y-87050000D03*
X199700000Y-87050000D03*
X200350000Y-87050000D03*
X201000000Y-87050000D03*
X201650000Y-87050000D03*
X202300000Y-87050000D03*
X202950000Y-87050000D03*
X203600000Y-87050000D03*
X204250000Y-87050000D03*
X204900000Y-87050000D03*
X204900000Y-92950000D03*
X204250000Y-92950000D03*
X203600000Y-92950000D03*
X202950000Y-92950000D03*
X202300000Y-92950000D03*
X201650000Y-92950000D03*
X201000000Y-92950000D03*
X200350000Y-92950000D03*
X199700000Y-92950000D03*
X199050000Y-92950000D03*
X209750000Y-87050000D03*
X210400000Y-87050000D03*
X211050000Y-87050000D03*
X211700000Y-87050000D03*
X212350000Y-87050000D03*
X213000000Y-87050000D03*
X213650000Y-87050000D03*
X214300000Y-87050000D03*
X214950000Y-87050000D03*
X215600000Y-87050000D03*
X215600000Y-92950000D03*
X214950000Y-92950000D03*
X214300000Y-92950000D03*
X213650000Y-92950000D03*
X213000000Y-92950000D03*
X212350000Y-92950000D03*
X211700000Y-92950000D03*
X211050000Y-92950000D03*
X210400000Y-92950000D03*
X209750000Y-92950000D03*
X220025000Y-87050000D03*
X220675000Y-87050000D03*
X221325000Y-87050000D03*
X221975000Y-87050000D03*
X222625000Y-87050000D03*
X223275000Y-87050000D03*
X223925000Y-87050000D03*
X224575000Y-87050000D03*
X225225000Y-87050000D03*
X225875000Y-87050000D03*
X225875000Y-92950000D03*
X225225000Y-92950000D03*
X224575000Y-92950000D03*
X223925000Y-92950000D03*
X223275000Y-92950000D03*
X222625000Y-92950000D03*
X221975000Y-92950000D03*
X221325000Y-92950000D03*
X220675000Y-92950000D03*
X220025000Y-92950000D03*
D13*
X151060000Y-92430000D03*
X151060000Y-95430000D03*
D20*
X179750000Y-90175000D03*
X179750000Y-88675000D03*
X154500000Y-90800000D03*
X154500000Y-92300000D03*
X166875000Y-88700000D03*
X166875000Y-90200000D03*
D22*
X190945000Y-92475000D03*
X192215000Y-92475000D03*
X193485000Y-92475000D03*
X194755000Y-92475000D03*
X194755000Y-87075000D03*
X193485000Y-87075000D03*
X192215000Y-87075000D03*
X190945000Y-87075000D03*
D23*
X162930380Y-78991700D03*
X163430760Y-78986620D03*
X163931140Y-78986620D03*
X164428980Y-78986620D03*
D24*
X164929360Y-78986620D03*
D23*
X165429740Y-78986620D03*
X165930120Y-78986620D03*
X166430500Y-78986620D03*
X166930880Y-78986620D03*
X167431260Y-78986620D03*
X167929100Y-78986620D03*
X168429480Y-78986620D03*
X168929860Y-78986620D03*
X169430240Y-78986620D03*
X169930620Y-78986620D03*
X170431000Y-78986620D03*
X170928840Y-78986620D03*
X171429220Y-78986620D03*
X171929600Y-78986620D03*
X172429980Y-78986620D03*
X172930360Y-78986620D03*
X173430740Y-78986620D03*
X173931120Y-78986620D03*
X174428960Y-78986620D03*
X174428960Y-58788540D03*
X173931120Y-58788540D03*
X173430740Y-58788540D03*
X172930360Y-58788540D03*
X172429980Y-58788540D03*
X171929600Y-58788540D03*
X171429220Y-58788540D03*
X170928840Y-58788540D03*
X170431000Y-58788540D03*
X169930620Y-58788540D03*
X169430240Y-58788540D03*
X168929860Y-58788540D03*
X168429480Y-58788540D03*
X167929100Y-58788540D03*
X167431260Y-58788540D03*
X166930880Y-58788540D03*
X166430500Y-58788540D03*
X165930120Y-58788540D03*
X165429740Y-58788540D03*
X164929360Y-58788540D03*
X164428980Y-58788540D03*
X163931140Y-58788540D03*
X163430760Y-58788540D03*
X162930380Y-58788540D03*
D21*
X181825000Y-92950000D03*
X182475000Y-92950000D03*
X183125000Y-92950000D03*
X183775000Y-92950000D03*
X184425000Y-92950000D03*
X185075000Y-92950000D03*
X185725000Y-92950000D03*
X186375000Y-92950000D03*
X187025000Y-92950000D03*
X187675000Y-92950000D03*
X187675000Y-87050000D03*
X187025000Y-87050000D03*
X186375000Y-87050000D03*
X185725000Y-87050000D03*
X185075000Y-87050000D03*
X184425000Y-87050000D03*
X183775000Y-87050000D03*
X183125000Y-87050000D03*
X182475000Y-87050000D03*
X181825000Y-87050000D03*
X168675000Y-92950000D03*
X169325000Y-92950000D03*
X169975000Y-92950000D03*
X170625000Y-92950000D03*
X171275000Y-92950000D03*
X171925000Y-92950000D03*
X172575000Y-92950000D03*
X173225000Y-92950000D03*
X173875000Y-92950000D03*
X174525000Y-92950000D03*
X174525000Y-87050000D03*
X173875000Y-87050000D03*
X173225000Y-87050000D03*
X172575000Y-87050000D03*
X171925000Y-87050000D03*
X171275000Y-87050000D03*
X170625000Y-87050000D03*
X169975000Y-87050000D03*
X169325000Y-87050000D03*
X168675000Y-87050000D03*
X156525000Y-92950000D03*
X157175000Y-92950000D03*
X157825000Y-92950000D03*
X158475000Y-92950000D03*
X159125000Y-92950000D03*
X159775000Y-92950000D03*
X160425000Y-92950000D03*
X161075000Y-92950000D03*
X161725000Y-92950000D03*
X162375000Y-92950000D03*
X162375000Y-87050000D03*
X161725000Y-87050000D03*
X161075000Y-87050000D03*
X160425000Y-87050000D03*
X159775000Y-87050000D03*
X159125000Y-87050000D03*
X158475000Y-87050000D03*
X157825000Y-87050000D03*
X157175000Y-87050000D03*
X156525000Y-87050000D03*
G36*
X199997624Y-73809867D02*
G01*
X200177229Y-73630262D01*
X200895650Y-74348683D01*
X200716045Y-74528288D01*
X199997624Y-73809867D01*
G37*
G36*
X191520262Y-82287229D02*
G01*
X191699867Y-82107624D01*
X192418288Y-82826045D01*
X192238683Y-83005650D01*
X191520262Y-82287229D01*
G37*
G36*
X191879473Y-81928019D02*
G01*
X192059078Y-81748414D01*
X192777499Y-82466835D01*
X192597894Y-82646440D01*
X191879473Y-81928019D01*
G37*
G36*
X192220722Y-81586769D02*
G01*
X192400327Y-81407164D01*
X193118748Y-82125585D01*
X192939143Y-82305190D01*
X192220722Y-81586769D01*
G37*
G36*
X192579933Y-81227559D02*
G01*
X192759538Y-81047954D01*
X193477959Y-81766375D01*
X193298354Y-81945980D01*
X192579933Y-81227559D01*
G37*
G36*
X192939143Y-80868349D02*
G01*
X193118748Y-80688744D01*
X193837169Y-81407165D01*
X193657564Y-81586770D01*
X192939143Y-80868349D01*
G37*
G36*
X193280393Y-80527099D02*
G01*
X193459998Y-80347494D01*
X194178419Y-81065915D01*
X193998814Y-81245520D01*
X193280393Y-80527099D01*
G37*
G36*
X193639603Y-80167889D02*
G01*
X193819208Y-79988284D01*
X194537629Y-80706705D01*
X194358024Y-80886310D01*
X193639603Y-80167889D01*
G37*
G36*
X193998813Y-79808678D02*
G01*
X194178418Y-79629073D01*
X194896839Y-80347494D01*
X194717234Y-80527099D01*
X193998813Y-79808678D01*
G37*
G36*
X194340063Y-79467429D02*
G01*
X194519668Y-79287824D01*
X195238089Y-80006245D01*
X195058484Y-80185850D01*
X194340063Y-79467429D01*
G37*
G36*
X194699273Y-79108218D02*
G01*
X194878878Y-78928613D01*
X195597299Y-79647034D01*
X195417694Y-79826639D01*
X194699273Y-79108218D01*
G37*
G36*
X195058483Y-78749008D02*
G01*
X195238088Y-78569403D01*
X195956509Y-79287824D01*
X195776904Y-79467429D01*
X195058483Y-78749008D01*
G37*
G36*
X195417694Y-78389798D02*
G01*
X195597299Y-78210193D01*
X196315720Y-78928614D01*
X196136115Y-79108219D01*
X195417694Y-78389798D01*
G37*
G36*
X195758943Y-78048548D02*
G01*
X195938548Y-77868943D01*
X196656969Y-78587364D01*
X196477364Y-78766969D01*
X195758943Y-78048548D01*
G37*
G36*
X196118153Y-77689338D02*
G01*
X196297758Y-77509733D01*
X197016179Y-78228154D01*
X196836574Y-78407759D01*
X196118153Y-77689338D01*
G37*
G36*
X196477364Y-77330128D02*
G01*
X196656969Y-77150523D01*
X197375390Y-77868944D01*
X197195785Y-78048549D01*
X196477364Y-77330128D01*
G37*
G36*
X196818613Y-76988878D02*
G01*
X196998218Y-76809273D01*
X197716639Y-77527694D01*
X197537034Y-77707299D01*
X196818613Y-76988878D01*
G37*
G36*
X197177824Y-76629668D02*
G01*
X197357429Y-76450063D01*
X198075850Y-77168484D01*
X197896245Y-77348089D01*
X197177824Y-76629668D01*
G37*
G36*
X197537034Y-76270458D02*
G01*
X197716639Y-76090853D01*
X198435060Y-76809274D01*
X198255455Y-76988879D01*
X197537034Y-76270458D01*
G37*
G36*
X197878284Y-75929208D02*
G01*
X198057889Y-75749603D01*
X198776310Y-76468024D01*
X198596705Y-76647629D01*
X197878284Y-75929208D01*
G37*
G36*
X198237494Y-75569998D02*
G01*
X198417099Y-75390393D01*
X199135520Y-76108814D01*
X198955915Y-76288419D01*
X198237494Y-75569998D01*
G37*
G36*
X198596704Y-75210787D02*
G01*
X198776309Y-75031182D01*
X199494730Y-75749603D01*
X199315125Y-75929208D01*
X198596704Y-75210787D01*
G37*
G36*
X198937954Y-74869538D02*
G01*
X199117559Y-74689933D01*
X199835980Y-75408354D01*
X199656375Y-75587959D01*
X198937954Y-74869538D01*
G37*
G36*
X199297164Y-74510327D02*
G01*
X199476769Y-74330722D01*
X200195190Y-75049143D01*
X200015585Y-75228748D01*
X199297164Y-74510327D01*
G37*
G36*
X199656374Y-74151117D02*
G01*
X199835979Y-73971512D01*
X200554400Y-74689933D01*
X200374795Y-74869538D01*
X199656374Y-74151117D01*
G37*
G36*
X189041712Y-82826045D02*
G01*
X189760133Y-82107624D01*
X189939738Y-82287229D01*
X189221317Y-83005650D01*
X189041712Y-82826045D01*
G37*
G36*
X180564350Y-74348683D02*
G01*
X181282771Y-73630262D01*
X181462376Y-73809867D01*
X180743955Y-74528288D01*
X180564350Y-74348683D01*
G37*
G36*
X180923560Y-74707894D02*
G01*
X181641981Y-73989473D01*
X181821586Y-74169078D01*
X181103165Y-74887499D01*
X180923560Y-74707894D01*
G37*
G36*
X181264810Y-75049143D02*
G01*
X181983231Y-74330722D01*
X182162836Y-74510327D01*
X181444415Y-75228748D01*
X181264810Y-75049143D01*
G37*
G36*
X181624020Y-75408354D02*
G01*
X182342441Y-74689933D01*
X182522046Y-74869538D01*
X181803625Y-75587959D01*
X181624020Y-75408354D01*
G37*
G36*
X181983230Y-75767564D02*
G01*
X182701651Y-75049143D01*
X182881256Y-75228748D01*
X182162835Y-75947169D01*
X181983230Y-75767564D01*
G37*
G36*
X182324480Y-76108814D02*
G01*
X183042901Y-75390393D01*
X183222506Y-75569998D01*
X182504085Y-76288419D01*
X182324480Y-76108814D01*
G37*
G36*
X182683690Y-76468024D02*
G01*
X183402111Y-75749603D01*
X183581716Y-75929208D01*
X182863295Y-76647629D01*
X182683690Y-76468024D01*
G37*
G36*
X183042901Y-76827234D02*
G01*
X183761322Y-76108813D01*
X183940927Y-76288418D01*
X183222506Y-77006839D01*
X183042901Y-76827234D01*
G37*
G36*
X183384150Y-77168484D02*
G01*
X184102571Y-76450063D01*
X184282176Y-76629668D01*
X183563755Y-77348089D01*
X183384150Y-77168484D01*
G37*
G36*
X183743361Y-77527694D02*
G01*
X184461782Y-76809273D01*
X184641387Y-76988878D01*
X183922966Y-77707299D01*
X183743361Y-77527694D01*
G37*
G36*
X184102571Y-77886904D02*
G01*
X184820992Y-77168483D01*
X185000597Y-77348088D01*
X184282176Y-78066509D01*
X184102571Y-77886904D01*
G37*
G36*
X184461781Y-78246115D02*
G01*
X185180202Y-77527694D01*
X185359807Y-77707299D01*
X184641386Y-78425720D01*
X184461781Y-78246115D01*
G37*
G36*
X184803031Y-78587364D02*
G01*
X185521452Y-77868943D01*
X185701057Y-78048548D01*
X184982636Y-78766969D01*
X184803031Y-78587364D01*
G37*
G36*
X185162241Y-78946574D02*
G01*
X185880662Y-78228153D01*
X186060267Y-78407758D01*
X185341846Y-79126179D01*
X185162241Y-78946574D01*
G37*
G36*
X185521451Y-79305785D02*
G01*
X186239872Y-78587364D01*
X186419477Y-78766969D01*
X185701056Y-79485390D01*
X185521451Y-79305785D01*
G37*
G36*
X185862701Y-79647034D02*
G01*
X186581122Y-78928613D01*
X186760727Y-79108218D01*
X186042306Y-79826639D01*
X185862701Y-79647034D01*
G37*
G36*
X186221911Y-80006245D02*
G01*
X186940332Y-79287824D01*
X187119937Y-79467429D01*
X186401516Y-80185850D01*
X186221911Y-80006245D01*
G37*
G36*
X186581121Y-80365455D02*
G01*
X187299542Y-79647034D01*
X187479147Y-79826639D01*
X186760726Y-80545060D01*
X186581121Y-80365455D01*
G37*
G36*
X186922371Y-80706705D02*
G01*
X187640792Y-79988284D01*
X187820397Y-80167889D01*
X187101976Y-80886310D01*
X186922371Y-80706705D01*
G37*
G36*
X187281581Y-81065915D02*
G01*
X188000002Y-80347494D01*
X188179607Y-80527099D01*
X187461186Y-81245520D01*
X187281581Y-81065915D01*
G37*
G36*
X187640792Y-81425125D02*
G01*
X188359213Y-80706704D01*
X188538818Y-80886309D01*
X187820397Y-81604730D01*
X187640792Y-81425125D01*
G37*
G36*
X187982041Y-81766375D02*
G01*
X188700462Y-81047954D01*
X188880067Y-81227559D01*
X188161646Y-81945980D01*
X187982041Y-81766375D01*
G37*
G36*
X188341252Y-82125585D02*
G01*
X189059673Y-81407164D01*
X189239278Y-81586769D01*
X188520857Y-82305190D01*
X188341252Y-82125585D01*
G37*
G36*
X188700462Y-82484795D02*
G01*
X189418883Y-81766374D01*
X189598488Y-81945979D01*
X188880067Y-82664400D01*
X188700462Y-82484795D01*
G37*
G36*
X199997624Y-71870133D02*
G01*
X200716045Y-71151712D01*
X200895650Y-71331317D01*
X200177229Y-72049738D01*
X199997624Y-71870133D01*
G37*
G36*
X199638414Y-71510922D02*
G01*
X200356835Y-70792501D01*
X200536440Y-70972106D01*
X199818019Y-71690527D01*
X199638414Y-71510922D01*
G37*
G36*
X199297164Y-71169673D02*
G01*
X200015585Y-70451252D01*
X200195190Y-70630857D01*
X199476769Y-71349278D01*
X199297164Y-71169673D01*
G37*
G36*
X198937954Y-70810462D02*
G01*
X199656375Y-70092041D01*
X199835980Y-70271646D01*
X199117559Y-70990067D01*
X198937954Y-70810462D01*
G37*
G36*
X198578744Y-70451252D02*
G01*
X199297165Y-69732831D01*
X199476770Y-69912436D01*
X198758349Y-70630857D01*
X198578744Y-70451252D01*
G37*
G36*
X198237494Y-70110002D02*
G01*
X198955915Y-69391581D01*
X199135520Y-69571186D01*
X198417099Y-70289607D01*
X198237494Y-70110002D01*
G37*
G36*
X197878284Y-69750792D02*
G01*
X198596705Y-69032371D01*
X198776310Y-69211976D01*
X198057889Y-69930397D01*
X197878284Y-69750792D01*
G37*
G36*
X197519073Y-69391582D02*
G01*
X198237494Y-68673161D01*
X198417099Y-68852766D01*
X197698678Y-69571187D01*
X197519073Y-69391582D01*
G37*
G36*
X197177824Y-69050332D02*
G01*
X197896245Y-68331911D01*
X198075850Y-68511516D01*
X197357429Y-69229937D01*
X197177824Y-69050332D01*
G37*
G36*
X196818613Y-68691122D02*
G01*
X197537034Y-67972701D01*
X197716639Y-68152306D01*
X196998218Y-68870727D01*
X196818613Y-68691122D01*
G37*
G36*
X196459403Y-68331912D02*
G01*
X197177824Y-67613491D01*
X197357429Y-67793096D01*
X196639008Y-68511517D01*
X196459403Y-68331912D01*
G37*
G36*
X196100193Y-67972701D02*
G01*
X196818614Y-67254280D01*
X196998219Y-67433885D01*
X196279798Y-68152306D01*
X196100193Y-67972701D01*
G37*
G36*
X195758943Y-67631452D02*
G01*
X196477364Y-66913031D01*
X196656969Y-67092636D01*
X195938548Y-67811057D01*
X195758943Y-67631452D01*
G37*
G36*
X195399733Y-67272242D02*
G01*
X196118154Y-66553821D01*
X196297759Y-66733426D01*
X195579338Y-67451847D01*
X195399733Y-67272242D01*
G37*
G36*
X195040523Y-66913031D02*
G01*
X195758944Y-66194610D01*
X195938549Y-66374215D01*
X195220128Y-67092636D01*
X195040523Y-66913031D01*
G37*
G36*
X194699273Y-66571782D02*
G01*
X195417694Y-65853361D01*
X195597299Y-66032966D01*
X194878878Y-66751387D01*
X194699273Y-66571782D01*
G37*
G36*
X194340063Y-66212571D02*
G01*
X195058484Y-65494150D01*
X195238089Y-65673755D01*
X194519668Y-66392176D01*
X194340063Y-66212571D01*
G37*
G36*
X193980853Y-65853361D02*
G01*
X194699274Y-65134940D01*
X194878879Y-65314545D01*
X194160458Y-66032966D01*
X193980853Y-65853361D01*
G37*
G36*
X193639603Y-65512111D02*
G01*
X194358024Y-64793690D01*
X194537629Y-64973295D01*
X193819208Y-65691716D01*
X193639603Y-65512111D01*
G37*
G36*
X193280393Y-65152901D02*
G01*
X193998814Y-64434480D01*
X194178419Y-64614085D01*
X193459998Y-65332506D01*
X193280393Y-65152901D01*
G37*
G36*
X192921182Y-64793691D02*
G01*
X193639603Y-64075270D01*
X193819208Y-64254875D01*
X193100787Y-64973296D01*
X192921182Y-64793691D01*
G37*
G36*
X192579933Y-64452441D02*
G01*
X193298354Y-63734020D01*
X193477959Y-63913625D01*
X192759538Y-64632046D01*
X192579933Y-64452441D01*
G37*
G36*
X192220722Y-64093231D02*
G01*
X192939143Y-63374810D01*
X193118748Y-63554415D01*
X192400327Y-64272836D01*
X192220722Y-64093231D01*
G37*
G36*
X191861512Y-63734021D02*
G01*
X192579933Y-63015600D01*
X192759538Y-63195205D01*
X192041117Y-63913626D01*
X191861512Y-63734021D01*
G37*
G36*
X191520262Y-63392771D02*
G01*
X192238683Y-62674350D01*
X192418288Y-62853955D01*
X191699867Y-63572376D01*
X191520262Y-63392771D01*
G37*
G36*
X189041712Y-62853955D02*
G01*
X189221317Y-62674350D01*
X189939738Y-63392771D01*
X189760133Y-63572376D01*
X189041712Y-62853955D01*
G37*
G36*
X188682501Y-63213165D02*
G01*
X188862106Y-63033560D01*
X189580527Y-63751981D01*
X189400922Y-63931586D01*
X188682501Y-63213165D01*
G37*
G36*
X188341252Y-63554415D02*
G01*
X188520857Y-63374810D01*
X189239278Y-64093231D01*
X189059673Y-64272836D01*
X188341252Y-63554415D01*
G37*
G36*
X187982041Y-63913625D02*
G01*
X188161646Y-63734020D01*
X188880067Y-64452441D01*
X188700462Y-64632046D01*
X187982041Y-63913625D01*
G37*
G36*
X187622831Y-64272835D02*
G01*
X187802436Y-64093230D01*
X188520857Y-64811651D01*
X188341252Y-64991256D01*
X187622831Y-64272835D01*
G37*
G36*
X187281581Y-64614085D02*
G01*
X187461186Y-64434480D01*
X188179607Y-65152901D01*
X188000002Y-65332506D01*
X187281581Y-64614085D01*
G37*
G36*
X186922371Y-64973295D02*
G01*
X187101976Y-64793690D01*
X187820397Y-65512111D01*
X187640792Y-65691716D01*
X186922371Y-64973295D01*
G37*
G36*
X186563161Y-65332506D02*
G01*
X186742766Y-65152901D01*
X187461187Y-65871322D01*
X187281582Y-66050927D01*
X186563161Y-65332506D01*
G37*
G36*
X186221911Y-65673755D02*
G01*
X186401516Y-65494150D01*
X187119937Y-66212571D01*
X186940332Y-66392176D01*
X186221911Y-65673755D01*
G37*
G36*
X185862701Y-66032966D02*
G01*
X186042306Y-65853361D01*
X186760727Y-66571782D01*
X186581122Y-66751387D01*
X185862701Y-66032966D01*
G37*
G36*
X185503491Y-66392176D02*
G01*
X185683096Y-66212571D01*
X186401517Y-66930992D01*
X186221912Y-67110597D01*
X185503491Y-66392176D01*
G37*
G36*
X185144280Y-66751386D02*
G01*
X185323885Y-66571781D01*
X186042306Y-67290202D01*
X185862701Y-67469807D01*
X185144280Y-66751386D01*
G37*
G36*
X184803031Y-67092636D02*
G01*
X184982636Y-66913031D01*
X185701057Y-67631452D01*
X185521452Y-67811057D01*
X184803031Y-67092636D01*
G37*
G36*
X184443821Y-67451846D02*
G01*
X184623426Y-67272241D01*
X185341847Y-67990662D01*
X185162242Y-68170267D01*
X184443821Y-67451846D01*
G37*
G36*
X184084610Y-67811056D02*
G01*
X184264215Y-67631451D01*
X184982636Y-68349872D01*
X184803031Y-68529477D01*
X184084610Y-67811056D01*
G37*
G36*
X183743361Y-68152306D02*
G01*
X183922966Y-67972701D01*
X184641387Y-68691122D01*
X184461782Y-68870727D01*
X183743361Y-68152306D01*
G37*
G36*
X183384150Y-68511516D02*
G01*
X183563755Y-68331911D01*
X184282176Y-69050332D01*
X184102571Y-69229937D01*
X183384150Y-68511516D01*
G37*
G36*
X183024940Y-68870726D02*
G01*
X183204545Y-68691121D01*
X183922966Y-69409542D01*
X183743361Y-69589147D01*
X183024940Y-68870726D01*
G37*
G36*
X182683690Y-69211976D02*
G01*
X182863295Y-69032371D01*
X183581716Y-69750792D01*
X183402111Y-69930397D01*
X182683690Y-69211976D01*
G37*
G36*
X182324480Y-69571186D02*
G01*
X182504085Y-69391581D01*
X183222506Y-70110002D01*
X183042901Y-70289607D01*
X182324480Y-69571186D01*
G37*
G36*
X181965270Y-69930397D02*
G01*
X182144875Y-69750792D01*
X182863296Y-70469213D01*
X182683691Y-70648818D01*
X181965270Y-69930397D01*
G37*
G36*
X181624020Y-70271646D02*
G01*
X181803625Y-70092041D01*
X182522046Y-70810462D01*
X182342441Y-70990067D01*
X181624020Y-70271646D01*
G37*
G36*
X181264810Y-70630857D02*
G01*
X181444415Y-70451252D01*
X182162836Y-71169673D01*
X181983231Y-71349278D01*
X181264810Y-70630857D01*
G37*
G36*
X180905600Y-70990067D02*
G01*
X181085205Y-70810462D01*
X181803626Y-71528883D01*
X181624021Y-71708488D01*
X180905600Y-70990067D01*
G37*
G36*
X180564350Y-71331317D02*
G01*
X180743955Y-71151712D01*
X181462376Y-71870133D01*
X181282771Y-72049738D01*
X180564350Y-71331317D01*
G37*
D19*
X201575000Y-59175000D03*
D25*
X229781100Y-101193600D03*
X227241100Y-101193600D03*
X224701100Y-101193600D03*
X222161100Y-101193600D03*
X219621100Y-101193600D03*
X217081100Y-101193600D03*
X214541100Y-101193600D03*
X212001100Y-101193600D03*
X209461100Y-101193600D03*
X206921100Y-101193600D03*
X204381100Y-101193600D03*
X201841100Y-101193600D03*
X199301100Y-101193600D03*
X196761100Y-101193600D03*
X194221100Y-101193600D03*
X191681100Y-101193600D03*
X189141100Y-101193600D03*
X186601100Y-101193600D03*
X184061100Y-101193600D03*
X181521100Y-101193600D03*
X178981100Y-101193600D03*
X176441100Y-101193600D03*
X173901100Y-101193600D03*
X171361100Y-101193600D03*
X168821100Y-101193600D03*
X166281100Y-101193600D03*
X163741100Y-101193600D03*
X161201100Y-101193600D03*
X158661100Y-101193600D03*
X156121100Y-101193600D03*
X153581100Y-101193600D03*
X151041100Y-101193600D03*
M02*
