G04 #@! TF.GenerationSoftware,KiCad,Pcbnew,(5.99.0-1468-g7e1294a4b)*
G04 #@! TF.CreationDate,2020-08-22T19:19:54+02:00*
G04 #@! TF.ProjectId,MD_Flash_8M,4d445f46-6c61-4736-985f-384d2e6b6963,rev?*
G04 #@! TF.SameCoordinates,Original*
G04 #@! TF.FileFunction,Soldermask,Bot*
G04 #@! TF.FilePolarity,Negative*
%FSLAX46Y46*%
G04 Gerber Fmt 4.6, Leading zero omitted, Abs format (unit mm)*
G04 Created by KiCad (PCBNEW (5.99.0-1468-g7e1294a4b)) date 2020-08-22 19:19:54*
%MOMM*%
%LPD*%
G01*
G04 APERTURE LIST*
%ADD10O,1.750000X1.750000*%
%ADD11C,2.300000*%
%ADD12C,6.750000*%
G04 APERTURE END LIST*
G36*
G01*
X199250000Y-48800000D02*
X197900000Y-48800000D01*
G75*
G02*
X197700000Y-48600000I0J200000D01*
G01*
X197700000Y-47250000D01*
G75*
G02*
X197900000Y-47050000I200000J0D01*
G01*
X199250000Y-47050000D01*
G75*
G02*
X199450000Y-47250000I0J-200000D01*
G01*
X199450000Y-48600000D01*
G75*
G02*
X199250000Y-48800000I-200000J0D01*
G01*
G37*
D10*
X200575000Y-47925000D03*
X202575000Y-47925000D03*
X204575000Y-47925000D03*
G36*
G01*
X184200000Y-48750000D02*
X182850000Y-48750000D01*
G75*
G02*
X182650000Y-48550000I0J200000D01*
G01*
X182650000Y-47200000D01*
G75*
G02*
X182850000Y-47000000I200000J0D01*
G01*
X184200000Y-47000000D01*
G75*
G02*
X184400000Y-47200000I0J-200000D01*
G01*
X184400000Y-48550000D01*
G75*
G02*
X184200000Y-48750000I-200000J0D01*
G01*
G37*
X185525000Y-47875000D03*
X187525000Y-47875000D03*
X189525000Y-47875000D03*
X191525000Y-47875000D03*
X193525000Y-47875000D03*
G36*
G01*
X218905000Y-49945000D02*
X220805000Y-49945000D01*
G75*
G02*
X221005000Y-50145000I0J-200000D01*
G01*
X221005000Y-52045000D01*
G75*
G02*
X220805000Y-52245000I-200000J0D01*
G01*
X218905000Y-52245000D01*
G75*
G02*
X218705000Y-52045000I0J200000D01*
G01*
X218705000Y-50145000D01*
G75*
G02*
X218905000Y-49945000I200000J0D01*
G01*
G37*
D11*
X222395000Y-51095000D03*
X219855000Y-53635000D03*
X222395000Y-53635000D03*
X219855000Y-56175000D03*
X222395000Y-56175000D03*
X219855000Y-58715000D03*
X222395000Y-58715000D03*
X219855000Y-61255000D03*
X222395000Y-61255000D03*
D12*
X225971100Y-70713600D03*
X156121100Y-70713600D03*
G36*
G01*
X228155500Y-97967800D02*
X228155500Y-104419400D01*
G75*
G02*
X228079300Y-104495600I-76200J0D01*
G01*
X226402900Y-104495600D01*
G75*
G02*
X226326700Y-104419400I0J76200D01*
G01*
X226326700Y-97967800D01*
G75*
G02*
X226402900Y-97891600I76200J0D01*
G01*
X228079300Y-97891600D01*
G75*
G02*
X228155500Y-97967800I0J-76200D01*
G01*
G37*
G36*
G01*
X225615500Y-97967800D02*
X225615500Y-104419400D01*
G75*
G02*
X225539300Y-104495600I-76200J0D01*
G01*
X223862900Y-104495600D01*
G75*
G02*
X223786700Y-104419400I0J76200D01*
G01*
X223786700Y-97967800D01*
G75*
G02*
X223862900Y-97891600I76200J0D01*
G01*
X225539300Y-97891600D01*
G75*
G02*
X225615500Y-97967800I0J-76200D01*
G01*
G37*
G36*
G01*
X223075500Y-97967800D02*
X223075500Y-104419400D01*
G75*
G02*
X222999300Y-104495600I-76200J0D01*
G01*
X221322900Y-104495600D01*
G75*
G02*
X221246700Y-104419400I0J76200D01*
G01*
X221246700Y-97967800D01*
G75*
G02*
X221322900Y-97891600I76200J0D01*
G01*
X222999300Y-97891600D01*
G75*
G02*
X223075500Y-97967800I0J-76200D01*
G01*
G37*
G36*
G01*
X220535500Y-97967800D02*
X220535500Y-104419400D01*
G75*
G02*
X220459300Y-104495600I-76200J0D01*
G01*
X218782900Y-104495600D01*
G75*
G02*
X218706700Y-104419400I0J76200D01*
G01*
X218706700Y-97967800D01*
G75*
G02*
X218782900Y-97891600I76200J0D01*
G01*
X220459300Y-97891600D01*
G75*
G02*
X220535500Y-97967800I0J-76200D01*
G01*
G37*
G36*
G01*
X217995500Y-97967800D02*
X217995500Y-104419400D01*
G75*
G02*
X217919300Y-104495600I-76200J0D01*
G01*
X216242900Y-104495600D01*
G75*
G02*
X216166700Y-104419400I0J76200D01*
G01*
X216166700Y-97967800D01*
G75*
G02*
X216242900Y-97891600I76200J0D01*
G01*
X217919300Y-97891600D01*
G75*
G02*
X217995500Y-97967800I0J-76200D01*
G01*
G37*
G36*
G01*
X215455500Y-97967800D02*
X215455500Y-104419400D01*
G75*
G02*
X215379300Y-104495600I-76200J0D01*
G01*
X213702900Y-104495600D01*
G75*
G02*
X213626700Y-104419400I0J76200D01*
G01*
X213626700Y-97967800D01*
G75*
G02*
X213702900Y-97891600I76200J0D01*
G01*
X215379300Y-97891600D01*
G75*
G02*
X215455500Y-97967800I0J-76200D01*
G01*
G37*
G36*
G01*
X212915500Y-97967800D02*
X212915500Y-104419400D01*
G75*
G02*
X212839300Y-104495600I-76200J0D01*
G01*
X211162900Y-104495600D01*
G75*
G02*
X211086700Y-104419400I0J76200D01*
G01*
X211086700Y-97967800D01*
G75*
G02*
X211162900Y-97891600I76200J0D01*
G01*
X212839300Y-97891600D01*
G75*
G02*
X212915500Y-97967800I0J-76200D01*
G01*
G37*
G36*
G01*
X210375500Y-97967800D02*
X210375500Y-104419400D01*
G75*
G02*
X210299300Y-104495600I-76200J0D01*
G01*
X208622900Y-104495600D01*
G75*
G02*
X208546700Y-104419400I0J76200D01*
G01*
X208546700Y-97967800D01*
G75*
G02*
X208622900Y-97891600I76200J0D01*
G01*
X210299300Y-97891600D01*
G75*
G02*
X210375500Y-97967800I0J-76200D01*
G01*
G37*
G36*
G01*
X207835500Y-97967800D02*
X207835500Y-104419400D01*
G75*
G02*
X207759300Y-104495600I-76200J0D01*
G01*
X206082900Y-104495600D01*
G75*
G02*
X206006700Y-104419400I0J76200D01*
G01*
X206006700Y-97967800D01*
G75*
G02*
X206082900Y-97891600I76200J0D01*
G01*
X207759300Y-97891600D01*
G75*
G02*
X207835500Y-97967800I0J-76200D01*
G01*
G37*
G36*
G01*
X205295500Y-97967800D02*
X205295500Y-104419400D01*
G75*
G02*
X205219300Y-104495600I-76200J0D01*
G01*
X203542900Y-104495600D01*
G75*
G02*
X203466700Y-104419400I0J76200D01*
G01*
X203466700Y-97967800D01*
G75*
G02*
X203542900Y-97891600I76200J0D01*
G01*
X205219300Y-97891600D01*
G75*
G02*
X205295500Y-97967800I0J-76200D01*
G01*
G37*
G36*
G01*
X202755500Y-97967800D02*
X202755500Y-104419400D01*
G75*
G02*
X202679300Y-104495600I-76200J0D01*
G01*
X201002900Y-104495600D01*
G75*
G02*
X200926700Y-104419400I0J76200D01*
G01*
X200926700Y-97967800D01*
G75*
G02*
X201002900Y-97891600I76200J0D01*
G01*
X202679300Y-97891600D01*
G75*
G02*
X202755500Y-97967800I0J-76200D01*
G01*
G37*
G36*
G01*
X200215500Y-97967800D02*
X200215500Y-104419400D01*
G75*
G02*
X200139300Y-104495600I-76200J0D01*
G01*
X198462900Y-104495600D01*
G75*
G02*
X198386700Y-104419400I0J76200D01*
G01*
X198386700Y-97967800D01*
G75*
G02*
X198462900Y-97891600I76200J0D01*
G01*
X200139300Y-97891600D01*
G75*
G02*
X200215500Y-97967800I0J-76200D01*
G01*
G37*
G36*
G01*
X197675500Y-97967800D02*
X197675500Y-104419400D01*
G75*
G02*
X197599300Y-104495600I-76200J0D01*
G01*
X195922900Y-104495600D01*
G75*
G02*
X195846700Y-104419400I0J76200D01*
G01*
X195846700Y-97967800D01*
G75*
G02*
X195922900Y-97891600I76200J0D01*
G01*
X197599300Y-97891600D01*
G75*
G02*
X197675500Y-97967800I0J-76200D01*
G01*
G37*
G36*
G01*
X195135500Y-97967800D02*
X195135500Y-104419400D01*
G75*
G02*
X195059300Y-104495600I-76200J0D01*
G01*
X193382900Y-104495600D01*
G75*
G02*
X193306700Y-104419400I0J76200D01*
G01*
X193306700Y-97967800D01*
G75*
G02*
X193382900Y-97891600I76200J0D01*
G01*
X195059300Y-97891600D01*
G75*
G02*
X195135500Y-97967800I0J-76200D01*
G01*
G37*
G36*
G01*
X192595500Y-97967800D02*
X192595500Y-104419400D01*
G75*
G02*
X192519300Y-104495600I-76200J0D01*
G01*
X190842900Y-104495600D01*
G75*
G02*
X190766700Y-104419400I0J76200D01*
G01*
X190766700Y-97967800D01*
G75*
G02*
X190842900Y-97891600I76200J0D01*
G01*
X192519300Y-97891600D01*
G75*
G02*
X192595500Y-97967800I0J-76200D01*
G01*
G37*
G36*
G01*
X190055500Y-97967800D02*
X190055500Y-104419400D01*
G75*
G02*
X189979300Y-104495600I-76200J0D01*
G01*
X188302900Y-104495600D01*
G75*
G02*
X188226700Y-104419400I0J76200D01*
G01*
X188226700Y-97967800D01*
G75*
G02*
X188302900Y-97891600I76200J0D01*
G01*
X189979300Y-97891600D01*
G75*
G02*
X190055500Y-97967800I0J-76200D01*
G01*
G37*
G36*
G01*
X187515500Y-97967800D02*
X187515500Y-104419400D01*
G75*
G02*
X187439300Y-104495600I-76200J0D01*
G01*
X185762900Y-104495600D01*
G75*
G02*
X185686700Y-104419400I0J76200D01*
G01*
X185686700Y-97967800D01*
G75*
G02*
X185762900Y-97891600I76200J0D01*
G01*
X187439300Y-97891600D01*
G75*
G02*
X187515500Y-97967800I0J-76200D01*
G01*
G37*
G36*
G01*
X184975500Y-97967800D02*
X184975500Y-104419400D01*
G75*
G02*
X184899300Y-104495600I-76200J0D01*
G01*
X183222900Y-104495600D01*
G75*
G02*
X183146700Y-104419400I0J76200D01*
G01*
X183146700Y-97967800D01*
G75*
G02*
X183222900Y-97891600I76200J0D01*
G01*
X184899300Y-97891600D01*
G75*
G02*
X184975500Y-97967800I0J-76200D01*
G01*
G37*
G36*
G01*
X182435500Y-97967800D02*
X182435500Y-104419400D01*
G75*
G02*
X182359300Y-104495600I-76200J0D01*
G01*
X180682900Y-104495600D01*
G75*
G02*
X180606700Y-104419400I0J76200D01*
G01*
X180606700Y-97967800D01*
G75*
G02*
X180682900Y-97891600I76200J0D01*
G01*
X182359300Y-97891600D01*
G75*
G02*
X182435500Y-97967800I0J-76200D01*
G01*
G37*
G36*
G01*
X179895500Y-97967800D02*
X179895500Y-104419400D01*
G75*
G02*
X179819300Y-104495600I-76200J0D01*
G01*
X178142900Y-104495600D01*
G75*
G02*
X178066700Y-104419400I0J76200D01*
G01*
X178066700Y-97967800D01*
G75*
G02*
X178142900Y-97891600I76200J0D01*
G01*
X179819300Y-97891600D01*
G75*
G02*
X179895500Y-97967800I0J-76200D01*
G01*
G37*
G36*
G01*
X177355500Y-97967800D02*
X177355500Y-104419400D01*
G75*
G02*
X177279300Y-104495600I-76200J0D01*
G01*
X175602900Y-104495600D01*
G75*
G02*
X175526700Y-104419400I0J76200D01*
G01*
X175526700Y-97967800D01*
G75*
G02*
X175602900Y-97891600I76200J0D01*
G01*
X177279300Y-97891600D01*
G75*
G02*
X177355500Y-97967800I0J-76200D01*
G01*
G37*
G36*
G01*
X174815500Y-97967800D02*
X174815500Y-104419400D01*
G75*
G02*
X174739300Y-104495600I-76200J0D01*
G01*
X173062900Y-104495600D01*
G75*
G02*
X172986700Y-104419400I0J76200D01*
G01*
X172986700Y-97967800D01*
G75*
G02*
X173062900Y-97891600I76200J0D01*
G01*
X174739300Y-97891600D01*
G75*
G02*
X174815500Y-97967800I0J-76200D01*
G01*
G37*
G36*
G01*
X172275500Y-97967800D02*
X172275500Y-104419400D01*
G75*
G02*
X172199300Y-104495600I-76200J0D01*
G01*
X170522900Y-104495600D01*
G75*
G02*
X170446700Y-104419400I0J76200D01*
G01*
X170446700Y-97967800D01*
G75*
G02*
X170522900Y-97891600I76200J0D01*
G01*
X172199300Y-97891600D01*
G75*
G02*
X172275500Y-97967800I0J-76200D01*
G01*
G37*
G36*
G01*
X169735500Y-97967800D02*
X169735500Y-104419400D01*
G75*
G02*
X169659300Y-104495600I-76200J0D01*
G01*
X167982900Y-104495600D01*
G75*
G02*
X167906700Y-104419400I0J76200D01*
G01*
X167906700Y-97967800D01*
G75*
G02*
X167982900Y-97891600I76200J0D01*
G01*
X169659300Y-97891600D01*
G75*
G02*
X169735500Y-97967800I0J-76200D01*
G01*
G37*
G36*
G01*
X167195500Y-97967800D02*
X167195500Y-104419400D01*
G75*
G02*
X167119300Y-104495600I-76200J0D01*
G01*
X165442900Y-104495600D01*
G75*
G02*
X165366700Y-104419400I0J76200D01*
G01*
X165366700Y-97967800D01*
G75*
G02*
X165442900Y-97891600I76200J0D01*
G01*
X167119300Y-97891600D01*
G75*
G02*
X167195500Y-97967800I0J-76200D01*
G01*
G37*
G36*
G01*
X164655500Y-97967800D02*
X164655500Y-104419400D01*
G75*
G02*
X164579300Y-104495600I-76200J0D01*
G01*
X162902900Y-104495600D01*
G75*
G02*
X162826700Y-104419400I0J76200D01*
G01*
X162826700Y-97967800D01*
G75*
G02*
X162902900Y-97891600I76200J0D01*
G01*
X164579300Y-97891600D01*
G75*
G02*
X164655500Y-97967800I0J-76200D01*
G01*
G37*
G36*
G01*
X162115500Y-97967800D02*
X162115500Y-104419400D01*
G75*
G02*
X162039300Y-104495600I-76200J0D01*
G01*
X160362900Y-104495600D01*
G75*
G02*
X160286700Y-104419400I0J76200D01*
G01*
X160286700Y-97967800D01*
G75*
G02*
X160362900Y-97891600I76200J0D01*
G01*
X162039300Y-97891600D01*
G75*
G02*
X162115500Y-97967800I0J-76200D01*
G01*
G37*
G36*
G01*
X159575500Y-97967800D02*
X159575500Y-104419400D01*
G75*
G02*
X159499300Y-104495600I-76200J0D01*
G01*
X157822900Y-104495600D01*
G75*
G02*
X157746700Y-104419400I0J76200D01*
G01*
X157746700Y-97967800D01*
G75*
G02*
X157822900Y-97891600I76200J0D01*
G01*
X159499300Y-97891600D01*
G75*
G02*
X159575500Y-97967800I0J-76200D01*
G01*
G37*
G36*
G01*
X157035500Y-97967800D02*
X157035500Y-104419400D01*
G75*
G02*
X156959300Y-104495600I-76200J0D01*
G01*
X155282900Y-104495600D01*
G75*
G02*
X155206700Y-104419400I0J76200D01*
G01*
X155206700Y-97967800D01*
G75*
G02*
X155282900Y-97891600I76200J0D01*
G01*
X156959300Y-97891600D01*
G75*
G02*
X157035500Y-97967800I0J-76200D01*
G01*
G37*
G36*
G01*
X154495500Y-97967800D02*
X154495500Y-104419400D01*
G75*
G02*
X154419300Y-104495600I-76200J0D01*
G01*
X152742900Y-104495600D01*
G75*
G02*
X152666700Y-104419400I0J76200D01*
G01*
X152666700Y-97967800D01*
G75*
G02*
X152742900Y-97891600I76200J0D01*
G01*
X154419300Y-97891600D01*
G75*
G02*
X154495500Y-97967800I0J-76200D01*
G01*
G37*
G36*
G01*
X151955500Y-97967800D02*
X151955500Y-104419400D01*
G75*
G02*
X151879300Y-104495600I-76200J0D01*
G01*
X150202900Y-104495600D01*
G75*
G02*
X150126700Y-104419400I0J76200D01*
G01*
X150126700Y-97967800D01*
G75*
G02*
X150202900Y-97891600I76200J0D01*
G01*
X151879300Y-97891600D01*
G75*
G02*
X151955500Y-97967800I0J-76200D01*
G01*
G37*
G36*
G01*
X230695500Y-97967800D02*
X230695500Y-104419400D01*
G75*
G02*
X230619300Y-104495600I-76200J0D01*
G01*
X228942900Y-104495600D01*
G75*
G02*
X228866700Y-104419400I0J76200D01*
G01*
X228866700Y-97967800D01*
G75*
G02*
X228942900Y-97891600I76200J0D01*
G01*
X230619300Y-97891600D01*
G75*
G02*
X230695500Y-97967800I0J-76200D01*
G01*
G37*
G36*
X219983517Y-52244000D02*
G01*
X219983517Y-52246000D01*
X219982303Y-52246932D01*
X219920320Y-52263541D01*
X219875327Y-52308534D01*
X219858857Y-52369999D01*
X219875327Y-52431465D01*
X219920375Y-52476512D01*
X219964004Y-52491706D01*
X219993564Y-52496071D01*
X219995132Y-52497314D01*
X219994839Y-52499292D01*
X219993063Y-52500039D01*
X219870028Y-52487107D01*
X219692178Y-52501104D01*
X219690373Y-52500243D01*
X219690216Y-52498249D01*
X219691605Y-52497154D01*
X219723547Y-52490365D01*
X219780488Y-52461352D01*
X219815144Y-52407987D01*
X219818474Y-52344441D01*
X219789585Y-52287743D01*
X219736127Y-52253027D01*
X219697919Y-52246975D01*
X219696365Y-52245717D01*
X219696678Y-52243741D01*
X219698232Y-52243000D01*
X219981785Y-52243000D01*
X219983517Y-52244000D01*
G37*
M02*
